<svg xmlns="http://www.w3.org/2000/svg" width="480" height="170" viewBox="0 0 480 170">
    <g fill="none" fill-rule="evenodd">
        <g transform="translate(152.92)">
            <ellipse cx="85.289" cy="85" fill="#EC1C24" rx="85.289" ry="85"/>
            <g fill="#FAFAF9">
                <path d="M93.867 21.138a17.855 17.855 0 0 1 0 9.693c-.297.895-.893 1.64-1.936 1.939a17.8 17.8 0 0 1-9.683 0c-.893-.299-1.638-.895-1.936-1.939a17.855 17.855 0 0 1 0-9.693c.298-.895.894-1.64 1.936-1.938a17.8 17.8 0 0 1 9.683 0c1.043.298 1.639 1.043 1.936 1.938zm-58.393 25.5c3.128.746 6.107 2.535 8.193 4.921.596.746.894 1.64.596 2.535-.745 3.132-2.533 6.114-4.916 8.202-.745.597-1.639.895-2.533.597-3.128-.746-6.107-2.536-8.193-4.922-.595-.745-.893-1.64-.595-2.535.744-3.131 2.532-6.114 4.915-8.201.596-.597 1.639-.746 2.533-.597zm25.77-20.43c2.384 2.237 4.022 5.22 4.767 8.351.15.895 0 1.939-.745 2.535-2.234 2.386-5.213 4.027-8.341 4.772-.894.15-1.937 0-2.533-.745-2.383-2.237-4.022-5.22-4.767-8.351-.149-.895 0-1.939.745-2.535 2.235-2.386 5.214-4.027 8.342-4.772 1.043-.15 1.937.149 2.532.745zm84.463 31.913c-2.235 2.386-5.065 4.175-8.193 4.92-.894.299-1.937 0-2.533-.596-2.383-2.237-4.17-5.07-4.915-8.202-.298-.894 0-1.938.595-2.535 2.235-2.386 5.065-4.175 8.193-4.92.894-.299 1.937 0 2.533.596 2.383 2.237 4.17 5.07 4.916 8.202.298.894.149 1.789-.596 2.535zM124.703 32.77c-.745 3.131-2.384 6.114-4.767 8.35-.745.597-1.639.895-2.532.746-3.129-.745-6.108-2.386-8.342-4.772-.596-.745-.894-1.64-.745-2.535.745-3.131 2.383-6.114 4.767-8.35.745-.597 1.638-.895 2.532-.746 3.128.745 6.108 2.386 8.342 4.772.596.745.894 1.64.745 2.535zM90.74 101.814c5.51-8.351 9.384-17.895 10.725-28.334 0-.447.298-.745.595-.894.298-.15.745-.15 1.043.149 3.873 2.982 8.193 5.219 12.96 6.71.596.15 1.043.746.894 1.491-2.384 11.93-7.3 22.965-14.3 32.51-.15.297-.597.447-.894.596-.447 0-.745 0-1.043-.299-3.724-2.833-7.002-6.263-9.98-9.842-.299-.596-.448-1.342 0-2.087zM86.121 129.103c-14.598-12.079-25.026-28.93-28.899-48.167-.149-.596.298-1.193.894-1.49 4.767-1.492 9.087-3.729 12.96-6.711.298-.299.745-.299 1.043-.15.298.15.596.448.596.895 2.383 17.746 11.768 33.404 25.174 43.842.298.299.447.597.447.895 0 .447 0 .746-.298 1.044-3.128 3.579-6.405 6.86-9.98 9.842-.447.597-1.34.597-1.937 0zM147.196 87.2c4.171-2.386 6.406-7.158 5.661-11.781 0-.298-.298-.597-.596-.746-.298-.149-.745-.149-1.043.15a41.63 41.63 0 0 1-28.154 6.263c-.596-.15-1.191.298-1.34 1.043a90.593 90.593 0 0 1-7.002 20.878 1.275 1.275 0 0 0 0 1.043c.15.299.447.597.745.746 7.895 3.43 16.535 5.518 25.473 5.667.596 0 1.192-.299 1.49-.895 2.83-7.009 4.617-14.465 4.766-22.368z"/>
                <path d="M99.677 69.603c3.128-.447 31.58-5.517 21.45-13.57a82.788 82.788 0 0 0-29.196-15.21c-3.277-.895-6.405-.895-9.683 0-10.725 3.13-20.706 8.35-29.197 15.21-10.13 8.202 18.323 13.123 21.451 13.57 2.235 6.114 6.853 14.465 12.513 14.465 5.81 0 10.577-8.35 12.662-14.465zM32.048 109.419c-2.98-6.86-4.767-14.465-4.916-22.369-4.171-2.386-6.257-7.157-5.512-11.78 0-.299.298-.597.596-.746.298-.149.745-.149 1.043.15 8.342 5.517 18.322 7.605 28.154 6.262.596-.149 1.192.299 1.34 1.044a90.593 90.593 0 0 0 7.002 20.877c.149.299.149.746 0 1.044a1.796 1.796 0 0 1-.745.746c-7.895 3.43-16.535 5.517-25.473 5.667-.596.149-1.191-.299-1.49-.895zM115.765 145.507c-8.64 4.175-18.322 6.412-28.452 6.412-1.639 0-3.277 0-4.916-.15-.298 0-.596-.148-.894-.447-.148-.298-.297-.596-.148-.894 4.32-16.702 19.514-28.93 37.538-28.93 7.597 0 11.322 3.579 11.322 8.35 0 5.966-4.767 11.036-14.45 15.659zM58.712 145.507c5.065 2.386 10.576 4.324 16.386 5.368.745.15 1.34-.298 1.49-1.044 1.34-5.368 3.724-10.438 6.852-14.912.447-.597.447-1.491-.149-1.939a38.669 38.669 0 0 0-27.707-11.631c-7.597 0-11.321 3.579-11.321 8.35-.15 6.115 4.617 11.185 14.45 15.808z"/>
            </g>
        </g>
        <path fill="#1D1D1D" fill-rule="nonzero" d="M75.104 167.146V142.88H2.114c-2.818-9.374-2.818-20.118 0-29.492C21.566 80.107 38.363 38.733 48.292 0 63.16.005 77.112 5.167 86.596 14.165c-9.68 32.024-25.142 66.863-42.442 96.097H76.9V86.977c13.343-3.786 24.105-3.786 37.448 0v23.285h18.183c-.013 11.904-2.108 23.785-5.952 32.62h-12.231v24.264c-13.433 3.805-25.81 3.805-39.244 0zM422.573 167.146V142.88h-72.99c-2.818-9.374-2.818-20.118 0-29.492C369.035 80.107 385.832 38.733 395.761 0c14.867.005 28.819 5.167 38.303 14.165-9.68 32.024-25.142 66.863-42.442 96.097h32.746V86.977c13.343-3.786 24.105-3.786 37.448 0v23.285H480c-.013 11.904-2.108 23.785-5.952 32.62h-12.231v24.264c-13.433 3.805-25.81 3.805-39.244 0z"/>
    </g>
</svg>
