<svg xmlns="http://www.w3.org/2000/svg" width="37" height="40" viewBox="0 0 37 40">
    <path fill="#E30613" fill-rule="nonzero" d="M13.948 1.488c-1.562-1.126-3.21-1.617-4.9-1.46-1.433.134-2.595.604-3.452 1.398-.834.771-1.316 1.798-1.393 2.969-.102 1.545.532 3.23 1.74 4.623.012.013-1.308.032-3.958.055a2 2 0 0 0-1.982 2v7.944c0 .79.64 1.43 1.43 1.43v17.526a2 2 0 0 0 2 2H33.54a2 2 0 0 0 2-2V20.446c.79 0 1.429-.64 1.429-1.429V11.09a2 2 0 0 0-2-2h-4.005c1.273-1.465 1.907-3.15 1.805-4.695-.077-1.17-.558-2.198-1.393-2.97C30.52.633 29.358.163 27.925.03c-1.69-.158-3.338.333-4.9 1.46-1.15.828-2.251 2.006-3.275 3.5-.486.71-.908 1.422-1.264 2.08a23.326 23.326 0 0 0-1.263-2.08c-1.024-1.495-2.126-2.672-3.275-3.5zM2.928 12.853v-.857h31.116v5.544H2.928v-4.687zm17.573 7.593v5.827l-2.014-.926-2.015.926v-5.827h4.03zM8.16 7.121c-.701-.808-1.09-1.756-1.038-2.536.028-.424.185-.772.468-1.033.368-.341.967-.559 1.732-.63.967-.09 1.912.206 2.889.904.87.624 1.733 1.55 2.564 2.755a21.21 21.21 0 0 1 1.47 2.51h-4.752c-1.336-.333-2.516-1.028-3.333-1.97zM4.358 37.067v-16.62h9.188v10.375l4.94-2.273 4.94 2.273V20.446h9.19v16.621H4.357zm17.81-30.443c.834-1.216 1.7-2.153 2.576-2.784.983-.709 1.934-1.009 2.908-.918.764.071 1.363.289 1.732.63.282.261.44.609.467 1.033.051.78-.336 1.728-1.037 2.536-.818.942-1.998 1.637-3.334 1.97h-4.753c.37-.739.854-1.609 1.442-2.467z"/>
</svg>
