<svg width="24" height="24" viewBox="0 0 24 24" fill="none" xmlns="http://www.w3.org/2000/svg">
<path fill-rule="evenodd" clip-rule="evenodd" d="M11.9998 4.52779C10.9383 3.57771 9.53653 3 7.99982 3C4.68611 3 1.99982 5.68629 2 9.05133C2.0284 13.0342 5.36167 17.0171 11.9998 21C18.638 17.0171 21.9712 13.0342 21.9998 9C21.9998 5.68629 19.3135 3 15.9998 3C14.4631 3 13.0613 3.57771 11.9998 4.52779ZM19.9997 9.03457C19.9788 11.9722 17.3997 15.2227 11.9998 18.6503C6.59992 15.2227 4.02088 11.9723 3.99982 9C3.99982 6.79086 5.79068 5 7.99982 5C8.99935 5 9.93676 5.36538 10.666 6.01806L11.9998 7.21186L13.3336 6.01806C14.0629 5.36538 15.0003 5 15.9998 5C18.209 5 19.9998 6.79086 19.9997 9.03457Z" fill="#1D1D1D" fill-opacity="0.24"/>
</svg>
