<svg width="121" height="122" viewBox="0 0 121 122" fill="none" xmlns="http://www.w3.org/2000/svg">
<path fill-rule="evenodd" clip-rule="evenodd" d="M66.0519 2.37969C66.8673 5.23533 66.8673 8.36292 66.0519 11.2186C65.78 12.0345 65.2364 12.7144 64.2851 12.9863C61.431 13.8022 58.3051 13.8022 55.451 12.9863C54.6356 12.7144 53.956 12.1704 53.6842 11.2186C52.8688 8.36292 52.8688 5.23533 53.6842 2.37969C53.956 1.5638 54.4997 0.883886 55.451 0.611921C58.3051 -0.203974 61.431 -0.203974 64.2851 0.611921C65.2364 0.883886 65.78 1.5638 66.0519 2.37969ZM12.7761 25.6327C15.6301 26.3126 18.3483 27.9444 20.251 30.1201C20.7946 30.8 21.0664 31.6159 20.7946 32.4318C20.1151 35.2875 18.4842 38.0071 16.3097 39.9109C15.6301 40.4548 14.8147 40.7268 13.9992 40.4548C11.1452 39.7749 8.427 38.1431 6.52429 35.9674C5.98066 35.2875 5.70884 34.4716 5.98066 33.6557C6.6602 30.8 8.29109 28.0804 10.4656 26.1766C11.0093 25.6327 11.9606 25.4967 12.7761 25.6327ZM36.2895 7.00309C38.4641 9.04283 39.9591 11.7625 40.6386 14.6181C40.7745 15.434 40.6386 16.3859 39.9591 16.9298C37.9204 19.1055 35.2023 20.6013 32.3482 21.2813C31.5328 21.4172 30.5814 21.2813 30.0378 20.6013C27.8632 18.5616 26.3683 15.842 25.6887 12.9863C25.5528 12.1704 25.6887 11.2185 26.3683 10.6746C28.4069 8.4989 31.125 7.00309 33.9791 6.32318C34.9305 6.1872 35.7459 6.45916 36.2895 7.00309ZM113.346 36.1034C111.308 38.2791 108.725 39.9109 105.871 40.5908C105.056 40.8628 104.105 40.5908 103.561 40.0469C101.386 38.0071 99.7555 35.4235 99.076 32.5678C98.8042 31.7519 99.076 30.8001 99.6196 30.2561C101.658 28.0804 104.24 26.4486 107.095 25.7687C107.91 25.4967 108.861 25.7687 109.405 26.3126C111.58 28.3524 113.21 30.936 113.89 33.7917C114.162 34.6076 114.026 35.4235 113.346 36.1034ZM94.1865 12.9863C93.507 15.842 92.012 18.5616 89.8375 20.6013C89.1579 21.1453 88.3425 21.4172 87.527 21.2813C84.673 20.6013 81.9548 19.1055 79.9162 16.9298C79.3725 16.2499 79.1007 15.434 79.2366 14.6181C79.9162 11.7625 81.4112 9.04283 83.5857 7.00309C84.2652 6.45916 85.0807 6.1872 85.8961 6.32318C88.7502 7.00309 91.4684 8.4989 93.507 10.6746C94.0506 11.3545 94.3224 12.1704 94.1865 12.9863Z" fill="#FAFAF9"/>
<path fill-rule="evenodd" clip-rule="evenodd" d="M63.1968 75.9463C68.2254 68.3312 71.759 59.6284 72.9822 50.1096C72.9822 49.7016 73.254 49.4297 73.5258 49.2937C73.7976 49.1577 74.2053 49.1577 74.4771 49.4297C78.0108 52.1493 81.9521 54.1891 86.3011 55.5489C86.8448 55.6849 87.2525 56.2288 87.1166 56.9087C84.9421 67.7873 80.4571 77.85 74.0694 86.5529C73.9335 86.8249 73.5258 86.9609 73.254 87.0968C72.8462 87.0968 72.5744 87.0968 72.3026 86.8249C68.9049 84.2412 65.9149 81.1136 63.1968 77.85C62.925 77.3061 62.7891 76.6262 63.1968 75.9463Z" fill="#FAFAF9"/>
<path fill-rule="evenodd" clip-rule="evenodd" d="M58.9823 100.831C45.6634 89.8165 36.1498 74.4505 32.6162 56.9087C32.4803 56.3648 32.888 55.8209 33.4316 55.5489C37.7807 54.1891 41.722 52.1493 45.2556 49.4297C45.5274 49.1577 45.9352 49.1577 46.207 49.2937C46.4788 49.4297 46.7506 49.7016 46.7506 50.1096C48.9251 66.2915 57.4874 80.5697 69.7191 90.0885C69.9909 90.3604 70.1268 90.6324 70.1268 90.9044C70.1268 91.3123 70.1268 91.5843 69.855 91.8562C67.0009 95.1198 64.0109 98.1114 60.7491 100.831C60.3414 101.375 59.526 101.375 58.9823 100.831Z" fill="#FAFAF9"/>
<path fill-rule="evenodd" clip-rule="evenodd" d="M114.707 62.62C118.513 60.4443 120.551 56.0928 119.872 51.8774C119.872 51.6054 119.6 51.3334 119.328 51.1974C119.056 51.0615 118.649 51.0615 118.377 51.3334C110.766 56.2288 101.66 58.2685 92.6903 57.0447C92.1467 56.9087 91.6031 57.3167 91.4671 57.9966C90.1081 64.6597 87.9335 71.0509 85.0795 77.0341C84.9436 77.3061 84.9436 77.714 85.0795 77.986C85.2154 78.258 85.4872 78.5299 85.759 78.6659C92.9621 81.7935 100.845 83.6973 108.999 83.8333C109.543 83.8333 110.087 83.5613 110.358 83.0174C112.941 76.6262 114.572 69.8271 114.707 62.62Z" fill="#FAFAF9"/>
<path fill-rule="evenodd" clip-rule="evenodd" d="M71.3518 46.574C74.2058 46.1661 100.164 41.5427 90.9225 34.1996C83.1758 27.9444 74.2058 23.185 64.2845 20.3294C61.2946 19.5135 58.4405 19.5135 55.4505 20.3294C45.6652 23.185 36.5593 27.9444 28.8126 34.1996C19.5708 41.6787 45.5292 46.1661 48.3833 46.574C50.4219 52.1493 54.6351 59.7643 59.7996 59.7643C65.1 59.7643 69.4491 52.1493 71.3518 46.574Z" fill="#FAFAF9"/>
<path fill-rule="evenodd" clip-rule="evenodd" d="M9.64927 82.8813C6.93111 76.6261 5.30021 69.691 5.16431 62.484C1.35888 60.3082 -0.543831 55.9568 0.135709 51.7413C0.135709 51.4694 0.407525 51.1974 0.679341 51.0614C0.951158 50.9254 1.35888 50.9254 1.6307 51.1974C9.24155 56.2288 18.3474 58.1325 27.3173 56.9087C27.8609 56.7727 28.4046 57.1806 28.5405 57.8606C29.8996 64.5237 32.0741 70.9149 34.9282 76.8981C35.0641 77.1701 35.0641 77.578 34.9282 77.85C34.7923 78.122 34.5204 78.3939 34.2486 78.5299C27.0455 81.6575 19.1628 83.5613 11.0084 83.6972C10.4647 83.8332 9.92109 83.4253 9.64927 82.8813Z" fill="#FAFAF9"/>
<path fill-rule="evenodd" clip-rule="evenodd" d="M86.0301 115.789C78.1475 119.597 69.3135 121.636 60.0717 121.636C58.5767 121.636 57.0817 121.636 55.5868 121.5C55.3149 121.5 55.0431 121.364 54.7713 121.092C54.6354 120.82 54.4995 120.549 54.6354 120.277C58.5767 105.047 72.4393 93.8959 88.8842 93.8959C95.8155 93.8959 99.2132 97.1595 99.2132 101.511C99.2132 106.95 94.8642 111.574 86.0301 115.789Z" fill="#FAFAF9"/>
<path fill-rule="evenodd" clip-rule="evenodd" d="M33.9752 115.789C38.5961 117.965 43.6247 119.733 48.9251 120.684C49.6046 120.82 50.1483 120.413 50.2842 119.733C51.5074 114.837 53.6819 110.214 56.536 106.134C56.9437 105.59 56.9437 104.775 56.4 104.367C50.0124 97.8394 41.0424 93.7599 31.1212 93.7599C24.1899 93.7599 20.7922 97.0235 20.7922 101.375C20.6562 106.95 25.0053 111.574 33.9752 115.789Z" fill="#FAFAF9"/>
</svg>
