<?xml version="1.0" encoding="UTF-8"?>
<svg width="361px" height="134px" viewBox="0 0 361 134" version="1.1" xmlns="http://www.w3.org/2000/svg" xmlns:xlink="http://www.w3.org/1999/xlink">
    <!-- Generator: Sketch 57.1 (83088) - https://sketch.com -->
    <title>ic_logo-monopizza_white</title>
    <desc>Created with Sketch.</desc>
    <g id="mobile" stroke="none" stroke-width="1" fill="none" fill-rule="evenodd">
        <g id="ic_logo-monopizza_white">
            <path d="M53.508,0.351 C82.572,0.351 106.132,23.687 106.132,52.477 C106.132,81.264 82.572,104.6 53.508,104.6 C24.445,104.6 0.882,81.264 0.882,52.477 C0.882,23.687 24.445,0.351 53.508,0.351" id="Fill-1" fill="#DE4C2B"></path>
            <path d="M65.173,95.644 C70.064,88.883 75.666,84.188 80.745,85.077 C81.797,85.261 82.666,85.559 83.382,85.949 C85.132,84.417 86.761,82.753 88.252,80.971 C85.58,74.126 82.405,69.244 78.32,69.227 C65.581,68.692 53.722,79.51 45.497,96.453 C47.742,96.851 50.043,97.084 52.388,97.141 C57.105,84.758 63.369,78.227 71.022,76.908 C63.654,78.816 58.233,86.267 54.17,97.147 C57.971,97.093 61.656,96.574 65.173,95.644 Z M81.877,87.211 L81.833,87.197 C77.088,85.644 71.484,89.489 66.64,95.229 C72.263,93.537 77.42,90.786 81.877,87.211 Z M20.449,82.871 C22.635,85.202 25.07,87.302 27.71,89.129 C27.606,85.925 28.133,82.594 29.6,79.072 C32.441,70.61 37.106,63.311 46.498,59.181 C46.329,57.348 45.983,55.655 45.812,53.821 C40.926,52.128 37.15,46.366 37.191,39.884 C37.215,34.955 37.239,30.022 37.265,25.093 C34.175,27.855 33.374,31.554 34.521,36.797 C33.214,39.779 32.114,42.661 33.312,46.217 C32.474,50.845 33.302,54.57 35.736,57.292 C36.748,58.786 34.332,64.5 32.755,66.428 C29.854,69.53 26.77,72.471 23.866,75.573 C21.707,77.716 20.536,80.14 20.449,82.871 Z M29.419,90.255 C33.76,92.976 38.603,94.982 43.778,96.11 C46.27,90.453 48.777,86.209 52.988,81.179 C42.621,80.739 34.903,78.37 33.593,74.254 C30.319,79.973 29.135,85.221 29.419,90.255 L29.419,90.255 Z" id="Fill-2" fill="#FFFFFE"></path>
            <path d="M38.202,24.036 C38.202,24.036 39.896,16.82 48.374,14.746 C46.571,16.462 46.03,19.713 46.03,19.713 C46.03,19.713 41.375,20 38.202,24.036" id="Fill-3" fill="#FFFFFE"></path>
            <path d="M47.87,19.732 C48.435,17.694 49.23,15.887 50.467,14.516 C61.287,13.397 68.115,20.922 69.44,29.036 C71.265,40.2 73.257,51.794 72.51,55.748 C73.35,59.75 76.286,64.623 80.015,67.673 C74.254,66.694 68.405,68.765 65.152,70.845 C63.446,67.459 63.167,63.877 64.25,60.107 C62.84,57.887 61.388,54.354 61.902,48.889 C61.009,43.165 60.92,36.2 61.76,27.808 C61.5,23.256 53.997,19.282 47.87,19.732" id="Fill-4" fill="#FFFFFE"></path>
            <path d="M38.671,24.842 C43.287,17.997 57.937,20.827 59.992,27.557 C54.386,21.385 43.825,20.961 38.671,24.842" id="Fill-5" fill="#FFFFFE"></path>
            <path d="M40.09,33.711 C40.465,33.248 41.042,32.891 41.814,32.791 C42.455,32.709 43.231,32.808 44.132,33.175 L44.141,33.18 C44.565,33.389 44.828,33.591 44.981,33.807 C45.123,34.003 45.167,34.208 45.144,34.431 L45.144,34.434 C45.082,35.559 45.034,36.836 44.99,38.121 C44.934,39.618 44.881,41.133 44.798,42.419 C45.368,43.013 45.928,43.277 46.528,43.242 C47.152,43.204 47.835,42.843 48.636,42.199 L48.852,42.026 L48.852,43.593 L48.779,43.629 C47.755,44.15 46.903,44.417 46.102,44.334 C45.291,44.256 44.544,43.825 43.736,42.958 L43.694,42.911 L43.704,42.852 C43.876,41.593 44.046,40.213 44.218,38.834 C44.387,37.454 44.558,36.071 44.741,34.735 C44.751,34.68 44.753,34.592 44.759,34.501 L44.762,34.428 C44.464,34.118 44.02,33.851 43.526,33.687 C43.13,33.556 42.699,33.491 42.284,33.523 C41.879,33.552 41.489,33.675 41.16,33.919 C40.915,34.1 40.702,34.355 40.545,34.689 C41.257,34.413 41.882,34.238 42.455,34.22 C43.115,34.2 43.704,34.388 44.269,34.874 L44.325,34.921 L44.313,34.991 C44.298,35.093 44.269,35.249 44.238,35.404 C44.213,35.55 44.186,35.696 44.168,35.808 L44.153,35.901 L44.058,35.916 C43.789,35.963 43.476,35.984 43.154,35.984 C42.828,35.984 42.492,35.96 42.169,35.914 L42.095,35.904 L42.066,35.834 L42.039,35.764 C41.962,35.579 41.844,35.293 41.84,35.04 C41.584,35.063 41.264,35.149 40.921,35.287 C40.533,35.445 40.125,35.667 39.759,35.937 L39.614,36.045 L39.557,35.872 C39.474,35.617 39.48,35.207 39.587,34.78 C39.676,34.417 39.842,34.036 40.086,33.714 L40.09,33.711 Z M38.741,25.949 C45.073,21.772 53.782,23.327 60.172,29.129 C59.419,35.04 59.347,40.867 59.945,46.607 L59.942,46.572 C55.801,51.628 51.608,53.942 47.364,53.444 C42.837,52.387 38.644,46.637 38.564,40.029 C38.623,35.337 38.682,30.641 38.741,25.949 Z M60.072,47.735 C60.161,48.474 60.261,49.208 60.371,49.944 C59.649,53.982 60.696,57.738 62.479,61.394 C61.657,65.204 61.719,68.602 63.591,71.841 C60.521,73.394 57.247,76.478 54.418,79.779 C41.424,78.699 31.088,76.49 35.607,69.756 C39.164,65.16 43.218,61.561 48.121,59.824 C48.121,59.824 47.447,54.021 47.486,54.34 C52.468,54.68 56.721,52.749 60.072,47.735 Z M50.194,35.128 C49.772,35.372 49.396,35.665 49.24,35.861 L49.006,36.162 L49.006,35.122 L49.056,35.084 C49.994,34.388 50.753,34.033 51.659,33.939 C52.504,33.851 53.468,33.995 54.822,34.294 C54.746,34.133 54.636,33.995 54.506,33.875 C54.065,33.468 53.359,33.278 52.605,33.23 C51.839,33.186 51.026,33.289 50.39,33.47 C49.925,33.602 49.559,33.775 49.39,33.953 L48.986,34.388 L49.172,33.828 C49.369,33.224 49.852,32.82 50.479,32.592 C51.106,32.363 51.883,32.31 52.67,32.413 C53.451,32.515 54.243,32.77 54.911,33.157 C55.793,33.667 56.452,34.408 56.58,35.337 L56.615,35.597 L56.384,35.462 C56.183,35.348 55.382,35.122 54.666,34.976 C54.19,34.877 53.767,34.809 53.625,34.827 C53.62,34.97 53.589,35.19 53.531,35.377 C53.471,35.565 53.382,35.732 53.262,35.787 L53.244,35.796 L53.223,35.799 C52.975,35.828 52.718,35.849 52.445,35.857 C52.179,35.866 51.898,35.866 51.599,35.855 L51.531,35.851 L51.496,35.796 C51.384,35.629 51.283,35.459 51.212,35.26 C51.153,35.105 51.115,34.932 51.1,34.739 C50.819,34.806 50.496,34.956 50.194,35.128 Z M42.976,45.738 C44.207,46.409 45.765,46.54 47.391,46.382 C49.029,46.223 50.736,45.769 52.25,45.268 L53.2,44.952 L52.362,45.497 L50.813,46.511 L50.798,46.52 L50.783,46.526 C49.443,46.994 47.846,47.228 46.394,47.197 C44.999,47.161 43.733,46.88 42.943,46.323 L42.908,46.297 L42.896,46.253 L42.786,45.887 L42.716,45.594 L42.976,45.738 Z M44.86,47.715 C45.548,47.814 46.253,47.847 46.965,47.82 C47.678,47.794 48.406,47.705 49.145,47.562 L49.508,47.492 L49.269,47.773 C49.156,47.905 49.029,48.025 48.887,48.131 C48.364,48.529 47.658,48.766 46.957,48.798 C46.253,48.834 45.548,48.66 45.037,48.233 C44.927,48.142 44.828,48.037 44.736,47.922 L44.54,47.667 L44.86,47.715 L44.86,47.715 Z" id="Fill-6" fill="#FFFFFE"></path>
            <path d="M53.508,6.789 C66.245,6.789 77.778,11.904 86.122,20.169 C94.471,28.438 99.634,39.859 99.634,52.477 C99.634,65.093 94.471,76.513 86.122,84.782 C77.778,93.048 66.245,98.161 53.508,98.161 C40.77,98.161 29.238,93.048 20.893,84.782 C12.544,76.513 7.381,65.093 7.381,52.477 C7.381,39.859 12.544,28.438 20.893,20.169 C29.238,11.904 40.77,6.789 53.508,6.789 Z M84.682,21.595 C76.704,13.693 65.682,8.807 53.508,8.807 C41.333,8.807 30.311,13.693 22.333,21.595 C14.354,29.498 9.418,40.415 9.418,52.477 C9.418,64.536 14.354,75.453 22.333,83.356 C30.311,91.258 41.333,96.144 53.508,96.144 C65.682,96.144 76.704,91.258 84.682,83.356 C92.661,75.453 97.597,64.536 97.597,52.477 C97.597,40.415 92.661,29.498 84.682,21.595 L84.682,21.595 Z" id="Fill-7" fill="#FFFFFE"></path>
            <path d="M177.614,5.654 L165.256,5.654 L154.873,21.72 L144.49,5.654 L132.132,5.654 L132.132,48.152 L144.49,48.152 L144.49,26.225 L154.102,41.013 L155.645,41.013 L165.256,26.225 L165.256,48.152 L177.614,48.152 L177.614,5.654 Z M202.762,49.341 C205.938,49.33 208.898,48.747 211.643,47.613 C214.376,46.483 216.791,44.909 218.867,42.868 C220.94,40.844 222.555,38.463 223.729,35.756 C224.888,33.038 225.489,30.091 225.504,26.904 C225.489,23.718 224.888,20.768 223.729,18.05 C222.555,15.343 220.94,12.965 218.867,10.938 C216.791,8.899 214.376,7.326 211.643,6.193 C208.898,5.06 205.938,4.479 202.762,4.465 C199.586,4.479 196.626,5.06 193.879,6.193 C191.15,7.326 188.73,8.899 186.657,10.938 C184.584,12.965 182.967,15.343 181.795,18.05 C180.636,20.768 180.036,23.718 180.022,26.904 C180.036,30.091 180.636,33.038 181.795,35.756 C182.967,38.463 184.584,40.844 186.657,42.868 C188.73,44.909 191.15,46.483 193.879,47.613 C196.626,48.747 199.586,49.33 202.762,49.341 Z M202.762,36.933 C200.888,36.919 199.202,36.509 197.726,35.671 C196.239,34.851 195.068,33.688 194.21,32.188 C193.349,30.685 192.906,28.928 192.894,26.904 C192.906,24.877 193.349,23.12 194.21,21.62 C195.068,20.118 196.239,18.958 197.726,18.135 C199.202,17.3 200.888,16.887 202.762,16.875 C204.634,16.887 206.323,17.3 207.795,18.135 C209.283,18.958 210.457,20.118 211.314,21.62 C212.173,23.12 212.616,24.877 212.63,26.904 C212.616,28.928 212.173,30.685 211.314,32.188 C210.457,33.688 209.283,34.851 207.795,35.671 C206.323,36.509 204.634,36.919 202.762,36.933 Z M255.371,5.654 L255.371,20.953 L240.78,20.953 L240.78,5.654 L227.91,5.654 L227.91,48.152 L240.78,48.152 L240.78,32.853 L255.371,32.853 L255.371,48.152 L268.241,48.152 L268.241,5.654 L255.371,5.654 Z M293.389,49.341 C296.565,49.33 299.526,48.747 302.273,47.613 C305.003,46.483 307.422,44.909 309.495,42.868 C311.568,40.844 313.185,38.463 314.356,35.756 C315.515,33.038 316.115,30.091 316.13,26.904 C316.115,23.718 315.515,20.768 314.356,18.05 C313.185,15.343 311.568,12.965 309.495,10.938 C307.422,8.899 305.003,7.326 302.273,6.193 C299.526,5.06 296.565,4.479 293.389,4.465 C290.214,4.479 287.253,5.06 284.509,6.193 C281.777,7.326 279.361,8.899 277.284,10.938 C275.211,12.965 273.597,15.343 272.422,18.05 C271.264,20.768 270.663,23.718 270.649,26.904 C270.663,30.091 271.264,33.038 272.422,35.756 C273.597,38.463 275.211,40.844 277.284,42.868 C279.361,44.909 281.777,46.483 284.509,47.613 C287.253,48.747 290.214,49.33 293.389,49.341 Z M293.389,36.933 C291.517,36.919 289.829,36.509 288.356,35.671 C286.869,34.851 285.695,33.688 284.837,32.188 C283.98,30.685 283.536,28.928 283.521,26.904 C283.536,24.877 283.98,23.12 284.837,21.62 C285.695,20.118 286.869,18.958 288.356,18.135 C289.829,17.3 291.517,16.887 293.389,16.875 C295.264,16.887 296.952,17.3 298.425,18.135 C299.913,18.958 301.084,20.118 301.942,21.62 C302.802,23.12 303.246,24.877 303.258,26.904 C303.246,28.928 302.802,30.685 301.942,32.188 C301.084,33.688 299.913,34.851 298.425,35.671 C296.952,36.509 295.264,36.919 293.389,36.933 Z M172.466,56.954 L132.132,56.954 L132.132,99.452 L145.005,99.452 L145.005,68.855 L159.593,68.855 L159.593,99.452 L172.466,99.452 L172.466,56.954 Z M207.911,56.954 L189.547,78.201 L189.547,56.954 L177.017,56.954 L177.017,99.452 L186.456,99.452 L204.82,78.201 L204.82,99.452 L217.351,99.452 L217.351,56.954 L207.911,56.954 Z M260.52,87.553 L260.52,56.954 L247.647,56.954 L247.647,87.553 L234.774,87.553 L234.774,56.954 L221.902,56.954 L221.902,99.452 L255.286,99.452 L255.286,110.843 L267.813,110.843 L267.813,87.553 L260.52,87.553 Z M307.977,87.553 L307.977,56.954 L295.108,56.954 L295.108,87.553 L282.235,87.553 L282.235,56.954 L269.362,56.954 L269.362,99.452 L302.743,99.452 L302.743,110.843 L315.273,110.843 L315.273,87.553 L307.977,87.553 Z M347.974,56.954 L347.974,60.949 C346.557,59.32 344.798,58.043 342.68,57.138 C340.548,56.23 338.061,55.779 335.187,55.764 C332.353,55.779 329.707,56.359 327.235,57.493 C324.775,58.626 322.601,60.196 320.712,62.238 C318.839,64.265 317.367,66.643 316.308,69.349 C315.234,72.068 314.69,75.014 314.675,78.201 C314.69,81.391 315.234,84.338 316.308,87.056 C317.367,89.762 318.839,92.143 320.712,94.168 C322.601,96.209 324.775,97.779 327.235,98.913 C329.707,100.046 332.353,100.629 335.187,100.64 C338.061,100.629 340.548,100.16 342.68,99.255 C344.798,98.347 346.557,97.088 347.974,95.456 L347.974,99.452 L360.844,99.452 L360.844,56.954 L347.974,56.954 Z M337.759,88.573 C335.773,88.558 334.013,88.134 332.484,87.299 C330.952,86.461 329.751,85.272 328.879,83.728 C328.007,82.185 327.563,80.342 327.548,78.201 C327.563,76.063 328.007,74.223 328.879,72.677 C329.751,71.134 330.952,69.944 332.484,69.109 C334.013,68.272 335.773,67.847 337.759,67.833 C339.749,67.847 341.509,68.272 343.038,69.109 C344.567,69.944 345.771,71.134 346.643,72.677 C347.515,74.223 347.959,76.063 347.974,78.201 C347.959,80.342 347.515,82.185 346.643,83.728 C345.771,85.272 344.567,86.461 343.038,87.299 C341.509,88.134 339.749,88.558 337.759,88.573 L337.759,88.573 Z" id="Fill-8" fill="#FFFFFE"></path>
            <path d="M205.586,118.013 C205.818,118.013 206.037,118.025 206.244,118.05 C206.45,118.074 206.669,118.095 206.901,118.111 C207.48,118.029 208.063,117.988 208.65,117.988 C209.237,117.988 209.82,118.009 210.399,118.05 C210.978,118.091 211.56,118.128 212.147,118.16 C212.734,118.193 213.317,118.21 213.896,118.21 C214.392,118.439 214.872,118.725 215.335,119.069 C215.798,119.413 216.137,119.847 216.352,120.372 C216.385,120.601 216.34,120.814 216.215,121.01 C216.092,121.207 215.947,121.379 215.781,121.526 C215.451,121.559 215.124,121.559 214.802,121.526 C214.479,121.493 214.157,121.453 213.834,121.404 C213.512,121.354 213.189,121.309 212.867,121.268 C212.544,121.227 212.218,121.207 211.887,121.207 C211.937,121.633 211.99,122.059 212.048,122.484 C212.106,122.911 212.102,123.336 212.036,123.762 C211.854,124.892 211.734,126.018 211.676,127.14 C211.618,128.262 211.507,129.389 211.341,130.519 C211.192,130.748 211.007,130.883 210.783,130.924 C210.56,130.965 210.337,130.944 210.113,130.863 C209.89,130.781 209.675,130.662 209.468,130.507 C209.262,130.351 209.1,130.191 208.985,130.027 C208.902,129.29 208.894,128.553 208.96,127.816 C209.026,127.079 209.105,126.346 209.195,125.617 C209.286,124.888 209.353,124.159 209.394,123.43 C209.435,122.702 209.406,121.969 209.307,121.232 C208.877,121.215 208.456,121.203 208.042,121.195 C207.629,121.186 207.207,121.223 206.777,121.305 C206.397,121.223 206.037,121.056 205.698,120.802 C205.359,120.548 205.156,120.216 205.09,119.807 C204.991,119.626 204.95,119.458 204.966,119.303 C204.983,119.147 205.028,119 205.103,118.861 C205.177,118.721 205.264,118.582 205.363,118.443 C205.462,118.304 205.537,118.16 205.586,118.013 Z M220.842,118.111 C221.156,118.078 221.47,118.041 221.784,118.001 C222.098,117.96 222.413,117.939 222.727,117.939 C222.81,117.923 222.884,117.935 222.95,117.976 C223.016,118.017 223.082,118.062 223.149,118.111 C223.248,118.078 223.347,118.05 223.446,118.025 C223.546,118.001 223.645,117.98 223.744,117.964 C223.711,117.997 223.678,118.025 223.645,118.05 C223.612,118.074 223.612,118.111 223.645,118.16 C223.728,118.226 223.814,118.291 223.905,118.357 C223.996,118.422 224.083,118.48 224.166,118.529 C224.248,118.578 224.29,118.656 224.29,118.762 C224.29,118.869 224.306,118.963 224.339,119.045 C224.438,119.11 224.554,119.131 224.687,119.106 C224.819,119.082 224.926,119.11 225.009,119.192 C225.125,119.225 225.241,119.254 225.356,119.278 C225.472,119.303 225.58,119.34 225.679,119.389 C225.811,119.52 225.956,119.618 226.113,119.684 C226.27,119.749 226.39,119.864 226.473,120.028 C226.588,120.126 226.646,120.257 226.646,120.421 C226.646,120.584 226.712,120.716 226.845,120.814 C226.944,121.043 226.977,121.285 226.944,121.539 C226.911,121.793 226.944,122.034 227.043,122.263 L227.043,123.394 C226.977,123.557 226.964,123.721 227.006,123.885 C227.047,124.049 227.026,124.212 226.944,124.376 C226.894,124.507 226.882,124.639 226.907,124.769 C226.932,124.9 226.911,125.032 226.845,125.163 C226.828,125.539 226.778,125.904 226.696,126.256 C226.613,126.608 226.53,126.964 226.448,127.325 C226.332,127.554 226.237,127.791 226.162,128.037 C226.088,128.283 226.009,128.52 225.927,128.75 C225.811,128.897 225.695,129.045 225.58,129.192 C225.464,129.34 225.389,129.503 225.356,129.683 C225.224,129.749 225.137,129.851 225.096,129.99 C225.054,130.13 224.943,130.199 224.761,130.199 C224.744,130.249 224.711,130.285 224.662,130.31 C224.612,130.334 224.567,130.355 224.525,130.371 C224.484,130.388 224.447,130.412 224.414,130.445 C224.381,130.478 224.372,130.527 224.389,130.592 C224.207,130.576 224.029,130.609 223.856,130.691 C223.682,130.773 223.512,130.855 223.347,130.936 C222.967,131.018 222.595,131.043 222.231,131.01 C221.867,130.977 221.503,131.002 221.139,131.084 C221.172,131.051 221.206,131.014 221.239,130.973 C221.272,130.932 221.255,130.904 221.189,130.887 C220.958,130.871 220.751,130.801 220.569,130.678 C220.387,130.556 220.18,130.494 219.949,130.494 C219.75,130.33 219.548,130.179 219.341,130.04 C219.134,129.9 218.94,129.749 218.758,129.585 C218.675,129.405 218.564,129.262 218.423,129.155 C218.283,129.049 218.163,128.922 218.064,128.774 C217.948,128.643 217.873,128.504 217.84,128.357 C217.807,128.209 217.766,128.062 217.716,127.914 C217.468,126.964 217.357,126.002 217.381,125.027 C217.406,124.053 217.485,123.082 217.617,122.116 C217.683,121.985 217.725,121.854 217.741,121.723 C217.757,121.592 217.807,121.469 217.89,121.354 C217.89,121.289 217.894,121.223 217.902,121.158 C217.911,121.092 217.931,121.035 217.964,120.986 C218.196,120.609 218.403,120.228 218.584,119.843 C218.766,119.458 219.039,119.135 219.403,118.873 C219.469,118.856 219.51,118.82 219.527,118.762 C219.544,118.705 219.56,118.652 219.577,118.603 C219.593,118.553 219.622,118.513 219.663,118.48 C219.705,118.447 219.783,118.447 219.899,118.48 C220.031,118.365 220.188,118.3 220.37,118.283 C220.552,118.267 220.709,118.21 220.842,118.111 Z M222.901,119.733 C222.785,119.798 222.665,119.847 222.541,119.88 C222.417,119.913 222.305,119.978 222.206,120.077 C222.057,120.322 221.888,120.56 221.698,120.789 C221.507,121.019 221.388,121.281 221.338,121.575 C221.272,121.674 221.201,121.764 221.127,121.846 C221.052,121.928 221.007,122.034 220.991,122.165 C220.924,122.345 220.895,122.53 220.904,122.718 C220.912,122.906 220.875,123.082 220.792,123.246 C220.743,123.525 220.73,123.811 220.755,124.106 C220.78,124.401 220.751,124.688 220.668,124.966 C220.668,125.343 220.685,125.724 220.718,126.109 C220.751,126.493 220.784,126.874 220.817,127.251 C220.85,127.48 220.904,127.697 220.978,127.902 C221.052,128.107 221.106,128.324 221.139,128.553 C221.189,128.635 221.263,128.705 221.363,128.762 C221.462,128.819 221.561,128.856 221.66,128.873 C221.776,128.905 221.9,128.926 222.032,128.934 C222.165,128.942 222.272,128.889 222.355,128.774 C222.686,128.463 222.942,128.111 223.124,127.718 C223.306,127.325 223.463,126.931 223.595,126.539 C223.579,126.424 223.595,126.325 223.645,126.244 C223.694,126.162 223.719,126.072 223.719,125.973 C223.736,125.777 223.777,125.588 223.843,125.408 C223.909,125.228 223.942,125.048 223.942,124.868 C223.926,124.573 223.955,124.282 224.029,123.996 C224.104,123.709 224.133,123.418 224.116,123.123 C224.099,122.861 224.108,122.599 224.141,122.337 C224.174,122.075 224.174,121.813 224.141,121.551 C224.141,121.272 224.124,120.998 224.091,120.728 C224.058,120.458 223.959,120.208 223.794,119.978 C223.661,119.896 223.521,119.815 223.372,119.733 C223.223,119.651 223.066,119.651 222.901,119.733 Z M228.854,128.381 C228.97,128.365 229.085,128.357 229.201,128.357 C229.317,128.357 229.433,128.373 229.548,128.406 C229.697,128.373 229.838,128.385 229.97,128.443 C230.102,128.5 230.235,128.561 230.367,128.627 C230.78,128.823 231.095,129.143 231.31,129.585 C231.392,129.683 231.479,129.786 231.57,129.892 C231.661,129.999 231.698,130.126 231.682,130.273 C231.715,130.453 231.752,130.629 231.793,130.801 C231.835,130.973 231.814037,131.149 231.731,131.329 C231.665,131.395 231.64,131.465 231.657,131.538 C231.673,131.612 231.665,131.69 231.632,131.772 C231.516,131.952 231.425,132.148 231.359,132.362 C231.293,132.574 231.169,132.746 230.987,132.877 C230.937,132.976 230.867,133.049 230.776,133.099 C230.685,133.148 230.582,133.156 230.466,133.123 C230.119,133.041 229.825,132.849 229.586,132.546 C229.346,132.243 229.243,131.903 229.276,131.526 C229.309,131.444 229.358,131.362 229.424,131.28 C229.491,131.198 229.515,131.1 229.499,130.986 C229.366,130.92 229.226,130.863 229.077,130.814 C228.995,130.683 228.879,130.58 228.73,130.507 C228.581,130.433 228.49,130.306 228.457,130.126 C228.341,129.978 228.242,129.814 228.159,129.634 C228.077,129.454 228.035,129.266 228.035,129.069 C228.168,128.66 228.44,128.43 228.854,128.381 Z M240.81,118.037 C241.406,117.923 241.972,117.992 242.509,118.246 C243.047,118.5 243.489,118.865 243.837,119.34 C243.869,120.257 243.832,121.166 243.725,122.067 C243.617,122.968 243.497,123.864 243.365,124.757 C243.233,125.65 243.105,126.551 242.98,127.46 C242.857,128.369 242.794,129.274 242.794,130.175 C242.794,130.388 242.728,130.552 242.596,130.666 C242.464,130.781 242.307,130.859 242.125,130.9 C241.943,130.94 241.753,130.953 241.554,130.936 C241.356,130.92 241.174,130.887 241.009,130.838 C240.595,130.592 240.31,130.277 240.153,129.892 C239.996,129.507 239.901,129.094 239.867,128.652 C239.835,128.209 239.83,127.763 239.855,127.312 C239.88,126.862 239.876,126.44 239.843,126.047 C239.165,125.916 238.503,125.699 237.858,125.396 C237.213,125.093 236.676,124.671 236.246,124.131 C235.882,123.197 235.725,122.231 235.774,121.232 C235.824,120.232 236.006,119.266 236.32,118.332 C236.618,118.168 236.903,118.111 237.176,118.16 C237.449,118.21 237.697,118.316 237.92,118.48 C238.143,118.644 238.342,118.852 238.516,119.106 C238.689,119.36 238.826,119.61 238.925,119.856 C238.892,120.183 238.846,120.507 238.789,120.826 C238.73,121.145 238.677,121.469 238.627,121.797 C238.578,122.124 238.549,122.456 238.541,122.792 C238.532,123.127 238.561,123.459 238.627,123.787 C238.677,123.951 238.768,124.082 238.9,124.18 C239.032,124.278 239.181,124.339 239.347,124.364 C239.512,124.389 239.669,124.368 239.818,124.303 C239.967,124.237 240.083,124.123 240.165,123.959 C240.215,123.484 240.277,123.009 240.351,122.534 C240.426,122.059 240.492,121.58 240.55,121.096 C240.608,120.613 240.653,120.134 240.686,119.659 C240.719,119.184 240.711,118.709 240.661,118.234 C240.694,118.168 240.744,118.103 240.81,118.037 Z M245.498,118.013 C245.73,118.013 245.949,118.025 246.156,118.05 C246.362,118.074 246.582,118.095 246.813,118.111 C247.392,118.029 247.975,117.988 248.562,117.988 C249.149,117.988 249.732,118.009 250.311,118.05 C250.889,118.091 251.472,118.128 252.059,118.16 C252.647,118.193 253.229,118.21 253.808,118.21 C254.304,118.439 254.784,118.725 255.247,119.069 C255.71,119.413 256.049,119.847 256.264,120.372 C256.297,120.601 256.251,120.814 256.128,121.01 C256.003,121.207 255.859,121.379 255.693,121.526 C255.363,121.559 255.036,121.559 254.714,121.526 C254.391,121.493 254.069,121.453 253.746,121.404 C253.424,121.354 253.101,121.309 252.779,121.268 C252.456,121.227 252.13,121.207 251.799,121.207 C251.849,121.633 251.902,122.059 251.96,122.484 C252.018,122.911 252.014,123.336 251.948,123.762 C251.766,124.892 251.646,126.018 251.588,127.14 C251.53,128.262 251.419,129.389 251.253,130.519 C251.104,130.748 250.918,130.883 250.695,130.924 C250.472,130.965 250.248,130.944 250.025,130.863 C249.802,130.781 249.587,130.662 249.38,130.507 C249.174,130.351 249.013,130.191 248.897,130.027 C248.814,129.29 248.806,128.553 248.872,127.816 C248.938,127.079 249.017,126.346 249.108,125.617 C249.199,124.888 249.265,124.159 249.306,123.43 C249.347,122.702 249.318,121.969 249.219,121.232 C248.789,121.215 248.367,121.203 247.954,121.195 C247.541,121.186 247.119,121.223 246.689,121.305 C246.309,121.223 245.949,121.056 245.61,120.802 C245.271,120.548 245.068,120.216 245.002,119.807 C244.903,119.626 244.862,119.458 244.878,119.303 C244.895,119.147 244.94,119 245.015,118.861 C245.089,118.721 245.176,118.582 245.275,118.443 C245.374,118.304 245.449,118.16 245.498,118.013 Z M260.754,118.111 C261.068,118.078 261.382,118.041 261.696,118.001 C262.011,117.96 262.325,117.939 262.639,117.939 C262.721,117.923 262.796,117.935 262.862,117.976 C262.928,118.017 262.994,118.062 263.06,118.111 C263.16,118.078 263.259,118.05 263.358,118.025 C263.457,118.001 263.557,117.98 263.656,117.964 C263.623,117.997 263.59,118.025 263.557,118.05 C263.524,118.074 263.524,118.111 263.557,118.16 C263.639,118.226 263.726,118.291 263.817,118.357 C263.908,118.422 263.995,118.48 264.078,118.529 C264.16,118.578 264.202,118.656 264.202,118.762 C264.202,118.869 264.218,118.963 264.251,119.045 C264.351,119.11 264.466,119.131 264.599,119.106 C264.731,119.082 264.838,119.11 264.921,119.192 C265.037,119.225 265.152,119.254 265.268,119.278 C265.384,119.303 265.491,119.34 265.591,119.389 C265.723,119.52 265.868,119.618 266.025,119.684 C266.182,119.749 266.302,119.864 266.384,120.028 C266.5,120.126 266.558,120.257 266.558,120.421 C266.558,120.584 266.624,120.716 266.757,120.814 C266.856,121.043 266.889,121.285 266.856,121.539 C266.823,121.793 266.856,122.034 266.955,122.263 L266.955,123.394 C266.889,123.557 266.876,123.721 266.918,123.885 C266.959,124.049 266.939,124.212 266.856,124.376 C266.806,124.507 266.794,124.639 266.819,124.769 C266.843,124.9 266.823,125.032 266.757,125.163 C266.74,125.539 266.691,125.904 266.608,126.256 C266.525,126.608 266.442,126.964 266.36,127.325 C266.244,127.554 266.149,127.791 266.074,128.037 C266,128.283 265.922,128.52 265.839,128.75 C265.723,128.897 265.607,129.045 265.491,129.192 C265.376,129.34 265.301,129.503 265.268,129.683 C265.136,129.749 265.049,129.851 265.008,129.99 C264.967,130.13 264.855,130.199 264.673,130.199 C264.656,130.249 264.623,130.285 264.574,130.31 C264.524,130.334 264.479,130.355 264.437,130.371 C264.396,130.388 264.359,130.412 264.326,130.445 C264.292,130.478 264.284,130.527 264.301,130.592 C264.119,130.576 263.941,130.609 263.767,130.691 C263.594,130.773 263.424,130.855 263.259,130.936 C262.879,131.018 262.507,131.043 262.143,131.01 C261.779,130.977 261.415,131.002 261.051,131.084 C261.084,131.051 261.117,131.014 261.151,130.973 C261.184,130.932 261.167,130.904 261.101,130.887 C260.869,130.871 260.663,130.801 260.481,130.678 C260.299,130.556 260.092,130.494 259.861,130.494 C259.662,130.33 259.46,130.179 259.253,130.04 C259.046,129.9 258.852,129.749 258.67,129.585 C258.587,129.405 258.476,129.262 258.335,129.155 C258.195,129.049 258.075,128.922 257.975,128.774 C257.86,128.643 257.785,128.504 257.752,128.357 C257.719,128.209 257.678,128.062 257.628,127.914 C257.38,126.964 257.268,126.002 257.293,125.027 C257.318,124.053 257.397,123.082 257.529,122.116 C257.595,121.985 257.636,121.854 257.653,121.723 C257.67,121.592 257.719,121.469 257.802,121.354 C257.802,121.289 257.806,121.223 257.814,121.158 C257.822,121.092 257.843,121.035 257.876,120.986 C258.108,120.609 258.314,120.228 258.496,119.843 C258.678,119.458 258.951,119.135 259.315,118.873 C259.381,118.856 259.423,118.82 259.439,118.762 C259.455,118.705 259.472,118.652 259.489,118.603 C259.505,118.553 259.534,118.513 259.575,118.48 C259.617,118.447 259.695,118.447 259.811,118.48 C259.943,118.365 260.101,118.3 260.282,118.283 C260.464,118.267 260.621,118.21 260.754,118.111 Z M262.812,119.733 C262.697,119.798 262.577,119.847 262.453,119.88 C262.329,119.913 262.217,119.978 262.118,120.077 C261.969,120.322 261.8,120.56 261.609,120.789 C261.419,121.019 261.299,121.281 261.25,121.575 C261.184,121.674 261.113,121.764 261.039,121.846 C260.965,121.928 260.919,122.034 260.902,122.165 C260.836,122.345 260.808,122.53 260.816,122.718 C260.824,122.906 260.787,123.082 260.704,123.246 C260.654,123.525 260.642,123.811 260.667,124.106 C260.692,124.401 260.663,124.688 260.58,124.966 C260.58,125.343 260.597,125.724 260.63,126.109 C260.663,126.493 260.696,126.874 260.729,127.251 C260.762,127.48 260.816,127.697 260.89,127.902 C260.965,128.107 261.018,128.324 261.051,128.553 C261.101,128.635 261.175,128.705 261.275,128.762 C261.374,128.819 261.473,128.856 261.572,128.873 C261.688,128.905 261.812,128.926 261.944,128.934 C262.077,128.942 262.184,128.889 262.267,128.774 C262.598,128.463 262.854,128.111 263.036,127.718 C263.218,127.325 263.375,126.931 263.507,126.539 C263.491,126.424 263.507,126.325 263.557,126.244 C263.606,126.162 263.631,126.072 263.631,125.973 C263.648,125.777 263.689,125.588 263.755,125.408 C263.821,125.228 263.854,125.048 263.854,124.868 C263.838,124.573 263.867,124.282 263.941,123.996 C264.016,123.709 264.044,123.418 264.028,123.123 C264.012,122.861 264.02,122.599 264.053,122.337 C264.086,122.075 264.086,121.813 264.053,121.551 C264.053,121.272 264.036,120.998 264.003,120.728 C263.97,120.458 263.871,120.208 263.705,119.978 C263.573,119.896 263.433,119.815 263.284,119.733 C263.135,119.651 262.978,119.651 262.812,119.733 Z M271.569,118.013 C271.8,118.013 272.019,118.025 272.226,118.05 C272.433,118.074 272.652,118.095 272.883,118.111 C273.462,118.029 274.045,117.988 274.632,117.988 C275.219,117.988 275.802,118.009 276.381,118.05 C276.96,118.091 277.543,118.128 278.13,118.16 C278.717,118.193 279.3,118.21 279.879,118.21 C280.375,118.439 280.854,118.725 281.317,119.069 C281.78,119.413 282.12,119.847 282.334,120.372 C282.368,120.601 282.322,120.814 282.198,121.01 C282.074,121.207 281.929,121.379 281.764,121.526 C281.433,121.559 281.106,121.559 280.784,121.526 C280.462,121.493 280.139,121.453 279.817,121.404 C279.494,121.354 279.172,121.309 278.849,121.268 C278.527,121.227 278.2,121.207 277.87,121.207 C277.919,121.633 277.973,122.059 278.031,122.484 C278.089,122.911 278.084,123.336 278.018,123.762 C277.836,124.892 277.716,126.018 277.659,127.14 C277.601,128.262 277.489,129.389 277.324,130.519 C277.175,130.748 276.989,130.883 276.765,130.924 C276.542,130.965 276.319,130.944 276.096,130.863 C275.872,130.781 275.658,130.662 275.451,130.507 C275.244,130.351 275.083,130.191 274.967,130.027 C274.884,129.29 274.876,128.553 274.943,127.816 C275.009,127.079 275.087,126.346 275.178,125.617 C275.269,124.888 275.335,124.159 275.376,123.43 C275.418,122.702 275.389,121.969 275.29,121.232 C274.86,121.215 274.438,121.203 274.025,121.195 C273.611,121.186 273.19,121.223 272.76,121.305 C272.379,121.223 272.019,121.056 271.68,120.802 C271.341,120.548 271.139,120.216 271.073,119.807 C270.973,119.626 270.932,119.458 270.949,119.303 C270.965,119.147 271.011,119 271.085,118.861 C271.16,118.721 271.246,118.582 271.346,118.443 C271.445,118.304 271.519,118.16 271.569,118.013 Z M284.641,118.111 C285.038,117.964 285.418,117.943 285.782,118.05 C286.146,118.156 286.485,118.324 286.799,118.553 C286.998,118.93 287.072,119.327 287.023,119.745 C286.973,120.163 286.907,120.56 286.824,120.937 C287.138,120.691 287.49,120.515 287.878,120.408 C288.267,120.302 288.664,120.253 289.069,120.261 C289.474,120.269 289.867,120.335 290.247,120.458 C290.628,120.58 290.983,120.748 291.314,120.961 C291.711,121.436 291.988,121.956 292.145,122.521 C292.302,123.087 292.389,123.668 292.405,124.266 C292.422,124.864 292.389,125.466 292.306,126.072 C292.224,126.678 292.141,127.259 292.058,127.816 C292.008,128.029 291.946,128.246 291.872,128.467 C291.798,128.688 291.703,128.897 291.587,129.094 C291.471,129.29 291.335,129.47 291.178,129.634 C291.02,129.798 290.834,129.913 290.62,129.978 C290.371,130.06 290.123,130.15 289.875,130.249 C289.627,130.347 289.371,130.396 289.106,130.396 C288.776,130.265 288.474,130.085 288.201,129.855 C287.928,129.626 287.659,129.389 287.395,129.143 C287.345,128.979 287.353,128.84 287.419,128.725 C287.486,128.61 287.581,128.516 287.705,128.443 C287.829,128.369 287.969,128.307 288.126,128.258 C288.283,128.209 288.42,128.16 288.536,128.111 C288.685,127.898 288.784,127.673 288.833,127.435 C288.883,127.198 288.92,126.956 288.945,126.71 C288.97,126.465 288.986,126.219 288.995,125.973 C289.003,125.728 289.032,125.482 289.081,125.236 C289.081,124.63 289.094,124.02 289.119,123.406 C289.143,122.792 289.007,122.206 288.71,121.649 L288.263,121.649 C288.031,122.075 287.783,122.48 287.519,122.865 C287.254,123.25 286.985,123.648 286.709,124.057 C286.618,125.105 286.564,126.154 286.547,127.202 C286.531,128.25 286.506,129.298 286.477,130.347 C286.295,130.641 286.047,130.822 285.741,130.887 C285.431,130.953 285.121,130.944 284.815,130.863 C284.505,130.781 284.224,130.629 283.963,130.408 C283.707,130.187 283.525,129.937 283.426,129.659 C283.327,127.775 283.323,125.896 283.414,124.02 C283.504,122.145 283.616,120.265 283.748,118.381 C283.864,118.25 284.005,118.181 284.17,118.173 C284.335,118.164 284.492,118.144 284.641,118.111 Z M294.712,118.087 C294.977,118.021 295.258,118.037 295.556,118.136 C295.853,118.234 296.114,118.381 296.337,118.578 C296.56,118.774 296.722,119.004 296.821,119.266 C296.92,119.528 296.903,119.807 296.771,120.101 C296.457,121.772 296.255,123.447 296.164,125.126 C296.073,126.805 296.019,128.496 296.002,130.199 C295.754,130.511 295.415,130.699 294.985,130.764 C294.555,130.83 294.175,130.748 293.844,130.519 C293.646,130.355 293.472,130.175 293.323,129.978 C293.174,129.782 292.992,129.618 292.777,129.487 C292.744,127.685 292.79,125.891 292.914,124.106 C293.038,122.321 293.166,120.535 293.299,118.75 C293.48,118.521 293.699,118.373 293.956,118.308 C294.212,118.242 294.464,118.168 294.712,118.087 Z M304.039,118.013 C304.436,117.98 304.841,117.992 305.255,118.05 C305.668,118.107 306.069,118.213 306.458,118.369 C306.846,118.525 307.202,118.729 307.524,118.983 C307.847,119.237 308.116,119.544 308.33,119.905 C308.579,120.232 308.781,120.589 308.938,120.974 C309.095,121.359 309.195,121.756 309.236,122.165 C309.277,122.575 309.244,122.98 309.137,123.381 C309.029,123.783 308.843,124.147 308.579,124.475 C308.496,124.671 308.488,124.855 308.554,125.027 C308.62,125.2 308.703,125.376 308.802,125.556 C308.901,125.736 308.992,125.916 309.075,126.096 C309.157,126.276 309.174,126.473 309.124,126.686 C309.306,127.276 309.298,127.89 309.099,128.529 C308.901,129.167 308.537,129.667 308.008,130.027 C307.594,130.355 307.136,130.592 306.631,130.74 C306.127,130.887 305.614,130.953 305.093,130.936 C304.572,130.92 304.06,130.83 303.555,130.666 C303.051,130.502 302.6,130.257 302.204,129.929 C301.922,129.814 301.695,129.655 301.521,129.45 C301.348,129.245 301.211,129.016 301.112,128.762 C301.013,128.508 300.947,128.242 300.914,127.964 C300.881,127.685 300.881,127.407 300.914,127.128 C301.079,126.915 301.24,126.817 301.397,126.833 C301.554,126.85 301.711,126.907 301.869,127.005 C302.026,127.104 302.187,127.21 302.352,127.325 C302.518,127.439 302.691,127.497 302.873,127.497 C303.005,127.53 303.117,127.595 303.208,127.693 C303.299,127.791 303.394,127.886 303.493,127.976 C303.593,128.066 303.708,128.123 303.841,128.148 C303.973,128.172 304.138,128.119 304.337,127.988 C304.767,128.054 305.164,127.988 305.527,127.791 C305.891,127.595 306.206,127.349 306.47,127.055 C306.536,126.842 306.532,126.628 306.458,126.416 C306.383,126.203 306.263,126.031 306.098,125.9 C305.767,125.834 305.445,125.756 305.131,125.666 C304.816,125.576 304.568,125.376 304.386,125.064 C304.337,124.704 304.299,124.323 304.275,123.922 C304.25,123.521 304.345,123.164 304.56,122.853 C304.891,122.755 305.222,122.644 305.552,122.521 C305.883,122.399 306.206,122.247 306.52,122.067 C306.586,121.788 306.536,121.539 306.371,121.317 C306.206,121.096 306.057,120.871 305.924,120.642 C305.345,120.576 304.779,120.691 304.225,120.986 C303.671,121.281 303.287,121.698 303.072,122.239 C302.939,122.452 302.778,122.636 302.588,122.792 C302.398,122.947 302.146,122.935 301.831,122.755 C301.451,122.493 301.195,122.161 301.063,121.76 C300.93,121.359 300.901,120.953 300.976,120.544 C301.05,120.134 301.22,119.749 301.484,119.389 C301.749,119.028 302.079,118.766 302.477,118.603 C302.741,118.504 302.993,118.39 303.233,118.259 C303.473,118.128 303.741,118.046 304.039,118.013 L304.039,118.013 Z" id="Fill-9" fill="#DE4C2B"></path>
            <path d="M311.208,118.185 C311.456,118.185 311.708,118.218 311.964,118.283 C312.221,118.349 312.465,118.439 312.696,118.553 C312.928,118.668 313.143,118.811 313.341,118.983 C313.54,119.155 313.688,119.364 313.788,119.61 C313.821,119.905 313.829,120.204 313.813,120.507 C313.796,120.81 313.771,121.113 313.738,121.416 C313.705,121.719 313.676,122.022 313.651,122.325 C313.626,122.628 313.631,122.935 313.664,123.246 C313.928,123.197 314.205,123.189 314.495,123.222 C314.784,123.254 315.078,123.283 315.375,123.308 C315.673,123.332 315.962,123.332 316.244,123.308 C316.524,123.283 316.781,123.197 317.012,123.05 C317.029,122.313 317.041,121.584 317.05,120.863 C317.058,120.142 317.112,119.413 317.211,118.676 C317.194,118.562 317.219,118.447 317.285,118.332 C317.351,118.218 317.438,118.132 317.546,118.074 C317.653,118.017 317.769,117.988 317.893,117.988 C318.017,117.988 318.145,118.037 318.277,118.136 C318.658,118.136 318.997,118.255 319.294,118.492 C319.592,118.729 319.832,118.987 320.014,119.266 C320.096,120.134 320.126,121.006 320.101,121.883 C320.076,122.759 320.039,123.635 319.989,124.512 C319.939,125.388 319.91,126.264 319.902,127.14 C319.894,128.017 319.939,128.889 320.039,129.757 C319.939,130.101 319.815,130.445 319.667,130.789 C319.468,130.92 319.253,130.99 319.022,130.998 C318.79,131.006 318.567,130.969 318.352,130.887 C318.137,130.805 317.943,130.687 317.769,130.531 C317.595,130.375 317.459,130.199 317.36,130.003 C317.227,129.692 317.14,129.376 317.099,129.057 C317.058,128.737 317.037,128.41 317.037,128.074 C317.037,127.738 317.041,127.407 317.05,127.079 C317.058,126.751 317.054,126.424 317.037,126.096 C316.74,126.064 316.438,126.027 316.132,125.986 C315.826,125.945 315.524,125.924 315.227,125.924 C314.929,125.924 314.631,125.949 314.333,125.998 C314.036,126.047 313.755,126.145 313.49,126.293 C313.44,126.637 313.428,126.993 313.453,127.361 C313.478,127.73 313.502,128.098 313.527,128.467 C313.552,128.836 313.552,129.2 313.527,129.561 C313.502,129.921 313.416,130.273 313.267,130.617 C312.887,130.748 312.469,130.793 312.014,130.752 C311.559,130.711 311.2,130.519 310.935,130.175 C310.67,129.929 310.497,129.622 310.414,129.253 C310.331,128.885 310.29,128.529 310.29,128.185 C310.257,126.563 310.29,124.954 310.389,123.357 C310.489,121.76 310.58,120.15 310.662,118.529 C310.745,118.447 310.836,118.381 310.935,118.332 C311.034,118.283 311.125,118.234 311.208,118.185 Z M329.49,121.575 C329.672,122.132 329.762,122.693 329.762,123.258 C329.762,123.824 329.721,124.393 329.638,124.966 C329.589,125.179 329.568,125.392 329.576,125.605 C329.585,125.818 329.539,126.022 329.44,126.219 C329.407,126.399 329.39,126.579 329.39,126.76 C329.39,126.94 329.333,127.112 329.217,127.276 C329.151,127.439 329.134,127.607 329.167,127.779 C329.2,127.951 329.175,128.127 329.093,128.307 C329.01,128.438 328.985,128.582 329.018,128.737 C329.051,128.893 329.018,129.036 328.919,129.167 C328.836,129.233 328.824,129.327 328.882,129.45 C328.94,129.573 328.911,129.651 328.795,129.683 C328.712,129.716 328.667,129.786 328.658,129.892 C328.65,129.999 328.696,130.068 328.795,130.101 C328.762,130.117 328.733,130.126 328.708,130.126 C328.683,130.126 328.654,130.134 328.621,130.15 C328.506,130.33 328.348,130.445 328.15,130.494 C327.968,130.527 327.782,130.547 327.592,130.556 C327.402,130.564 327.216,130.552 327.034,130.519 C326.934,130.601 326.831,130.674 326.724,130.74 C326.616,130.805 326.505,130.863 326.389,130.912 C325.909,130.944 325.438,130.94 324.975,130.9 C324.512,130.859 324.065,130.748 323.635,130.568 C323.52,130.47 323.396,130.396 323.263,130.347 C323.131,130.298 323.007,130.232 322.891,130.15 C322.875,130.134 322.862,130.126 322.854,130.126 C322.846,130.126 322.834,130.117 322.817,130.101 L322.792,130.077 C322.726,130.044 322.684,130.019 322.668,130.003 C322.684,129.921 322.647,129.864 322.556,129.831 C322.465,129.798 322.404,129.749 322.37,129.683 C322.056,129.405 321.82,129.077 321.663,128.701 C321.506,128.324 321.37,127.939 321.254,127.546 C321.188,127.366 321.167,127.189 321.192,127.018 C321.217,126.846 321.188,126.67 321.105,126.489 C321.155,126.26 321.209,126.043 321.267,125.838 C321.324,125.633 321.378,125.416 321.428,125.187 C321.543,125.089 321.622,124.97 321.663,124.831 C321.705,124.692 321.783,124.565 321.899,124.45 C321.916,124.385 321.932,124.319 321.949,124.254 C321.965,124.188 321.998,124.131 322.048,124.082 C322.18,124 322.292,123.885 322.383,123.738 C322.474,123.59 322.585,123.467 322.718,123.369 C322.834,123.287 322.949,123.217 323.065,123.16 C323.181,123.103 323.272,123.009 323.338,122.878 C323.503,122.681 323.714,122.554 323.97,122.497 C324.227,122.439 324.471,122.394 324.702,122.362 C325.033,122.362 325.363,122.357 325.694,122.35 C326.025,122.341 326.339,122.419 326.637,122.583 C326.769,122.55 326.819,122.456 326.786,122.3 C326.753,122.145 326.761,122.026 326.811,121.944 C326.794,121.747 326.773,121.555 326.748,121.367 C326.724,121.178 326.703,120.986 326.686,120.789 C326.637,120.658 326.563,120.535 326.463,120.421 C326.364,120.306 326.224,120.273 326.042,120.322 C325.909,120.322 325.806,120.376 325.731,120.482 C325.657,120.589 325.554,120.626 325.421,120.593 C325.272,120.609 325.132,120.699 325,120.863 C324.884,120.978 324.752,121.047 324.603,121.072 C324.454,121.096 324.297,121.125 324.132,121.158 C323.9,121.174 323.685,121.129 323.487,121.023 C323.288,120.916 323.098,120.798 322.916,120.666 C322.8,120.535 322.684,120.408 322.569,120.286 C322.453,120.163 322.337,120.036 322.222,119.905 C322.172,119.774 322.197,119.663 322.296,119.573 C322.395,119.483 322.478,119.389 322.544,119.29 C322.627,119.078 322.751,118.914 322.916,118.799 C322.999,118.766 323.082,118.738 323.164,118.713 C323.247,118.689 323.33,118.652 323.412,118.603 C323.627,118.488 323.846,118.414 324.069,118.381 C324.293,118.349 324.52,118.3 324.752,118.234 C324.768,118.185 324.834,118.144 324.95,118.111 C325.016,118.128 325.078,118.136 325.136,118.136 C325.194,118.136 325.231,118.177 325.248,118.259 C325.297,118.275 325.331,118.263 325.347,118.222 C325.363,118.181 325.376,118.14 325.384,118.099 C325.392,118.058 325.413,118.034 325.446,118.025 C325.479,118.017 325.545,118.054 325.645,118.136 C325.777,118.168 325.922,118.164 326.079,118.123 C326.236,118.083 326.347,118.144 326.414,118.308 C326.579,118.324 326.732,118.373 326.873,118.455 C327.013,118.537 327.15,118.619 327.282,118.701 C327.381,118.734 327.476,118.762 327.567,118.787 C327.658,118.811 327.737,118.865 327.803,118.947 C327.902,119.061 328.026,119.147 328.175,119.204 C328.324,119.262 328.423,119.372 328.473,119.536 C328.754,119.815 328.985,120.13 329.167,120.482 C329.349,120.834 329.456,121.199 329.49,121.575 Z M326.513,125.064 C326.48,124.933 326.5,124.815 326.575,124.708 C326.649,124.602 326.654,124.483 326.587,124.352 C326.604,124.27 326.579,124.229 326.513,124.229 C326.447,124.229 326.397,124.245 326.364,124.278 C326.182,124.311 326.009,124.376 325.843,124.475 C325.678,124.573 325.521,124.679 325.372,124.794 C325.339,124.942 325.252,125.044 325.111,125.101 C324.971,125.158 324.851,125.236 324.752,125.335 C324.57,125.564 324.396,125.797 324.231,126.035 C324.065,126.272 323.925,126.53 323.809,126.809 C323.677,127.005 323.631,127.214 323.673,127.435 C323.714,127.656 323.743,127.873 323.759,128.086 C323.759,128.217 323.793,128.332 323.859,128.43 C323.925,128.529 324.012,128.615 324.119,128.688 C324.227,128.762 324.342,128.823 324.466,128.873 C324.59,128.922 324.71,128.955 324.826,128.971 C324.942,128.922 325.053,128.873 325.161,128.823 C325.268,128.774 325.38,128.742 325.496,128.725 C325.579,128.692 325.657,128.684 325.731,128.701 C325.806,128.717 325.868,128.684 325.918,128.602 C325.951,128.406 325.988,128.209 326.029,128.013 C326.07,127.816 326.099,127.619 326.116,127.423 C326.232,127.03 326.306,126.633 326.339,126.231 C326.372,125.83 326.43,125.441 326.513,125.064 Z M332.491,130.077 C332.441,129.913 332.326,129.798 332.144,129.732 C332.111,129.667 332.065,129.614 332.007,129.573 C331.949,129.532 331.887,129.495 331.821,129.462 C331.689,129.233 331.565,128.995 331.449,128.75 C331.333,128.504 331.226,128.258 331.127,128.013 C331.061,127.865 331.027,127.71 331.027,127.546 C331.027,127.382 330.986,127.227 330.904,127.079 C330.87,126.588 330.829,126.092 330.779,125.593 C330.73,125.093 330.755,124.597 330.854,124.106 C330.936,123.926 330.982,123.742 330.99,123.553 C330.998,123.365 331.011,123.181 331.027,123 C331.143,122.951 331.189,122.857 331.164,122.718 C331.139,122.579 331.16,122.468 331.226,122.386 C331.275,122.304 331.321,122.227 331.362,122.153 C331.404,122.079 331.416,121.993 331.4,121.895 C331.433,121.813 331.462,121.731 331.486,121.649 C331.511,121.567 331.54,121.485 331.573,121.404 C331.623,121.272 331.689,121.141 331.772,121.01 C331.854,120.879 331.896,120.732 331.896,120.568 C332.111,120.273 332.297,119.966 332.454,119.647 C332.611,119.327 332.822,119.037 333.086,118.774 C333.153,118.676 333.243,118.598 333.359,118.541 C333.475,118.484 333.533,118.39 333.533,118.259 C333.748,118.177 333.963,118.128 334.178,118.111 C334.393,118.095 334.608,118.07 334.823,118.037 C334.889,118.005 334.968,117.988 335.058,117.988 C335.149,117.988 335.228,118.013 335.294,118.062 C335.426,118.128 335.559,118.173 335.691,118.197 C335.823,118.222 335.955,118.242 336.088,118.259 C336.071,118.357 336.1,118.426 336.175,118.467 C336.249,118.508 336.328,118.553 336.41,118.603 C336.51,118.635 336.592,118.684 336.658,118.75 C336.724,118.816 336.799,118.889 336.881,118.971 C336.898,119.119 336.944,119.254 337.018,119.377 C337.055,119.438 337.419,119.648 337.586,119.933 C337.756,120.224 337.728,120.59 337.761,120.652 C337.827,120.775 337.885,120.902 337.935,121.033 C337.984,121.164 338.001,121.304 337.984,121.451 C338.018,121.565 337.984,121.66 337.885,121.734 C337.786,121.807 337.774,121.89 337.836,121.992 C337.874,122.054 337.86,122.11 337.811,122.151 C337.761,122.192 337.72,122.229 337.687,122.262 C337.72,122.442 337.683,122.593 337.575,122.716 C337.468,122.839 337.356,122.958 337.24,123.072 C336.876,123.269 336.517,123.462 336.161,123.65 C335.806,123.838 334.88,123.025 334.451,123.025 C334.335,123.025 334.261,123.074 334.227,123.172 C334.194,123.271 334.153,123.361 334.103,123.443 C333.954,123.59 333.872,123.77 333.855,123.983 C333.839,124.196 333.797,124.393 333.731,124.573 C333.649,124.802 333.595,125.032 333.57,125.261 C333.545,125.49 333.492,125.719 333.409,125.949 C333.425,126.227 333.425,126.497 333.409,126.76 C333.392,127.022 333.417,127.284 333.483,127.546 C333.483,127.972 333.599,128.365 333.831,128.725 C333.93,128.856 334.054,128.95 334.202,129.008 C334.351,129.065 334.475,129.151 334.575,129.266 C334.69,129.298 334.81,129.343 334.934,129.401 C335.058,129.458 335.162,129.421 335.244,129.29 C335.41,129.159 335.592,129.053 335.79,128.971 C335.989,128.889 336.187,128.881 336.385,128.946 C336.518,129.094 336.629,129.262 336.72,129.45 C336.811,129.638 336.84,129.831 336.807,130.027 C336.642,130.191 336.46,130.347 336.262,130.494 L336.212,130.543 C336.195,130.56 336.171,130.576 336.137,130.592 C336.071,130.625 336.022,130.658 335.989,130.691 C335.873,130.707 335.765,130.715 335.666,130.715 C335.567,130.715 335.468,130.691 335.368,130.641 C335.319,130.707 335.29,130.785 335.282,130.875 C335.273,130.965 335.178,130.969 334.996,130.887 C334.93,130.887 334.877,130.908 334.835,130.949 C334.794,130.99 334.748,131.018 334.699,131.035 C334.5,131.002 334.306,130.965 334.116,130.924 C333.926,130.883 333.74,130.855 333.558,130.838 C333.492,130.74 333.409,130.662 333.31,130.605 C333.21,130.547 333.111,130.494 333.012,130.445 C332.913,130.396 332.817,130.343 332.727,130.285 C332.636,130.228 332.557,130.158 332.491,130.077 Z M335.344,120.887 C335.129,121.101 334.988,121.33 334.922,121.575 C335.008,121.584 335.041,121.953 335.247,122.161 C335.438,122.355 335.803,122.391 335.851,122.335 C335.95,122.221 336.058,122.122 336.174,122.041 C336.256,121.91 336.335,121.774 336.409,121.635 C336.484,121.496 336.524,121.344 336.546,121.181 C336.557,121.098 336.575,121.013 336.583,120.923 C336.587,120.876 336.547,120.531 336.389,120.265 C336.243,120.018 335.979,119.847 335.939,119.831 C335.856,120.028 335.757,120.208 335.641,120.372 C335.526,120.535 335.426,120.707 335.344,120.887 Z M339.039,118.111 C339.354,118.078 339.668,118.078 339.982,118.111 C340.296,118.144 340.619,118.16 340.95,118.16 C341.131,118.341 341.334,118.496 341.557,118.627 C341.781,118.758 341.934,118.955 342.016,119.217 C342.066,119.938 342.091,120.65 342.091,121.354 C342.091,122.059 342.025,122.763 341.892,123.467 C341.76,124.205 341.698,124.946 341.706,125.691 C341.715,126.436 341.661,127.177 341.545,127.914 C341.71,127.882 341.905,127.865 342.128,127.865 C342.351,127.865 342.55,127.845 342.723,127.804 C342.897,127.763 343.021,127.673 343.095,127.534 C343.17,127.394 343.141,127.169 343.009,126.858 C343.058,125.433 343.157,124.028 343.306,122.644 C343.455,121.26 343.596,119.864 343.728,118.455 C344.108,118.471 344.489,118.476 344.869,118.467 C345.249,118.459 345.613,118.537 345.96,118.701 C346.06,118.848 346.171,118.992 346.295,119.131 C346.419,119.27 346.527,119.413 346.618,119.561 C346.709,119.708 346.771,119.868 346.804,120.04 C346.837,120.212 346.82,120.404 346.754,120.617 C346.655,121.829 346.506,123.041 346.308,124.254 C346.109,125.466 346.026,126.686 346.06,127.914 C346.175,127.914 346.308,127.918 346.456,127.927 C346.605,127.935 346.729,127.918 346.829,127.877 C346.928,127.837 346.982,127.755 346.99,127.632 C346.998,127.509 346.928,127.308 346.779,127.03 C346.895,125.687 346.977,124.348 347.027,123.013 C347.077,121.678 347.242,120.347 347.523,119.02 C347.705,119.069 347.895,119.069 348.094,119.02 C348.292,118.971 348.495,118.922 348.701,118.873 C348.908,118.824 349.106,118.799 349.297,118.799 C349.487,118.799 349.656,118.873 349.805,119.02 C349.904,119.151 350.016,119.266 350.14,119.364 C350.264,119.462 350.372,119.573 350.463,119.696 C350.554,119.819 350.611,119.95 350.636,120.089 C350.661,120.228 350.624,120.396 350.525,120.593 C350.392,121.952 350.243,123.299 350.078,124.634 C349.913,125.969 349.797,127.325 349.731,128.701 C349.731,128.881 349.714,129.081 349.681,129.303 C349.648,129.524 349.582,129.724 349.483,129.904 C349.383,130.085 349.247,130.22 349.073,130.31 C348.9,130.4 348.681,130.396 348.416,130.298 C348.284,130.38 348.098,130.482 347.858,130.605 C347.618,130.728 347.432,130.83 347.3,130.912 C346.787,130.732 346.27,130.625 345.749,130.592 C345.229,130.56 344.703,130.56 344.174,130.592 C343.645,130.625 343.112,130.683 342.574,130.764 C342.037,130.846 341.512,130.912 340.999,130.961 C340.768,131.043 340.557,131.059 340.367,131.01 C340.177,130.961 339.999,130.883 339.833,130.777 C339.668,130.67 339.507,130.543 339.35,130.396 C339.193,130.249 339.031,130.126 338.866,130.027 C338.634,129.389 338.511,128.746 338.494,128.098 C338.477,127.452 338.506,126.8 338.581,126.145 C338.655,125.49 338.73,124.835 338.804,124.18 C338.878,123.525 338.891,122.869 338.841,122.214 C338.924,121.526 338.978,120.842 339.002,120.163 C339.027,119.483 339.039,118.799 339.039,118.111 Z M352.038,118.136 C352.451,118.168 352.86,118.213 353.265,118.271 C353.671,118.328 354.047,118.48 354.394,118.725 C354.626,119.004 354.746,119.319 354.754,119.671 C354.762,120.023 354.783,120.372 354.816,120.716 C355.014,120.552 355.229,120.421 355.461,120.322 C355.692,120.224 355.936,120.15 356.193,120.101 C356.449,120.052 356.705,120.011 356.962,119.978 C357.218,119.946 357.47,119.913 357.718,119.88 C358.099,119.995 358.458,120.138 358.797,120.31 C359.136,120.482 359.463,120.683 359.777,120.912 C360.058,121.223 360.273,121.563 360.422,121.932 C360.571,122.3 360.678,122.685 360.744,123.087 C360.81,123.488 360.844,123.893 360.844,124.303 C360.844,124.712 360.844,125.113 360.844,125.507 C360.794,125.834 360.753,126.17 360.719,126.514 C360.687,126.858 360.645,127.198 360.596,127.534 C360.546,127.869 360.471,128.197 360.372,128.516 C360.273,128.836 360.141,129.143 359.975,129.438 C359.827,129.651 359.653,129.855 359.455,130.052 C359.256,130.249 359.037,130.412 358.797,130.543 C358.557,130.674 358.305,130.768 358.041,130.826 C357.776,130.883 357.503,130.871 357.222,130.789 C356.776,130.658 356.329,130.461 355.882,130.199 C355.436,129.937 355.13,129.569 354.965,129.094 C355.014,128.897 355.105,128.77 355.238,128.713 C355.37,128.655 355.514,128.627 355.672,128.627 C355.829,128.627 355.994,128.643 356.168,128.676 C356.341,128.709 356.503,128.725 356.651,128.725 C356.883,128.529 357.048,128.299 357.147,128.037 C357.247,127.775 357.317,127.501 357.358,127.214 C357.4,126.928 357.429,126.641 357.445,126.354 C357.462,126.067 357.495,125.785 357.544,125.507 C357.544,125.195 357.553,124.88 357.569,124.561 C357.586,124.241 357.594,123.926 357.594,123.615 C357.594,123.303 357.565,122.992 357.507,122.681 C357.449,122.37 357.338,122.075 357.172,121.797 C356.99,121.764 356.805,121.719 356.614,121.662 C356.424,121.604 356.23,121.584 356.031,121.6 C355.932,121.682 355.853,121.776 355.796,121.883 C355.738,121.989 355.684,122.1 355.634,122.214 C355.585,122.329 355.527,122.439 355.461,122.546 C355.395,122.652 355.295,122.738 355.163,122.804 C355.031,122.869 354.927,122.96 354.853,123.074 C354.779,123.189 354.729,123.316 354.704,123.455 C354.679,123.594 354.663,123.742 354.655,123.897 C354.646,124.053 354.642,124.188 354.642,124.303 C354.659,125.285 354.618,126.26 354.518,127.227 C354.419,128.193 354.394,129.159 354.444,130.126 C354.394,130.371 354.279,130.552 354.097,130.666 C353.915,130.781 353.704,130.842 353.464,130.85 C353.224,130.859 352.98,130.838 352.732,130.789 C352.484,130.74 352.269,130.674 352.087,130.592 C352.005,130.461 351.939,130.322 351.889,130.175 C351.839,130.027 351.798,129.88 351.765,129.732 C351.682,128.766 351.649,127.8 351.666,126.833 C351.682,125.867 351.715,124.9 351.765,123.934 C351.814,122.968 351.868,122.001 351.926,121.035 C351.984,120.069 352.021,119.102 352.038,118.136 L352.038,118.136 Z" id="Fill-10" fill="#DE4C2B"></path>
        </g>
    </g>
</svg>