<?xml version="1.0" encoding="UTF-8"?>
<svg width="361px" height="134px" viewBox="0 0 361 134" version="1.1" xmlns="http://www.w3.org/2000/svg" xmlns:xlink="http://www.w3.org/1999/xlink">
    <!-- Generator: Sketch 57.1 (83088) - https://sketch.com -->
    <title>ic_logo-monopizza_black</title>
    <desc>Created with Sketch.</desc>
    <g id="mobile" stroke="none" stroke-width="1" fill="none" fill-rule="evenodd">
        <g id="ic_logo-monopizza_black">
            <path d="M53.508,0.771 C82.572,0.771 106.132,24.107 106.132,52.897 C106.132,81.684 82.572,105.02 53.508,105.02 C24.445,105.02 0.882,81.684 0.882,52.897 C0.882,24.107 24.445,0.771 53.508,0.771" id="Fill-1" fill="#DE4C2B"></path>
            <path d="M65.173,96.064 C70.064,89.303 75.666,84.608 80.745,85.497 C81.797,85.681 82.666,85.979 83.382,86.369 C85.132,84.837 86.761,83.173 88.252,81.391 C85.58,74.546 82.405,69.664 78.32,69.647 C65.581,69.112 53.722,79.93 45.497,96.872 C47.742,97.271 50.043,97.504 52.388,97.561 C57.105,85.178 63.369,78.647 71.022,77.328 C63.654,79.236 58.233,86.687 54.17,97.567 C57.971,97.513 61.656,96.994 65.173,96.064 Z M81.877,87.631 L81.833,87.617 C77.088,86.064 71.484,89.909 66.64,95.649 C72.263,93.957 77.42,91.206 81.877,87.631 Z M20.449,83.291 C22.635,85.622 25.07,87.722 27.71,89.549 C27.606,86.345 28.133,83.014 29.6,79.492 C32.441,71.03 37.106,63.731 46.498,59.601 C46.329,57.768 45.983,56.075 45.812,54.241 C40.926,52.548 37.15,46.786 37.191,40.304 C37.215,35.375 37.239,30.442 37.265,25.513 C34.175,28.275 33.374,31.974 34.521,37.217 C33.214,40.199 32.114,43.081 33.312,46.637 C32.474,51.265 33.302,54.99 35.736,57.712 C36.748,59.206 34.332,64.92 32.755,66.848 C29.854,69.95 26.77,72.891 23.866,75.992 C21.707,78.135 20.536,80.56 20.449,83.291 Z M29.419,90.675 C33.76,93.396 38.603,95.402 43.778,96.53 C46.27,90.873 48.777,86.629 52.988,81.599 C42.621,81.159 34.903,78.79 33.593,74.674 C30.319,80.393 29.135,85.641 29.419,90.675 L29.419,90.675 Z" id="Fill-2" fill="#FFFFFE"></path>
            <path d="M38.202,24.456 C38.202,24.456 39.896,17.24 48.374,15.166 C46.571,16.882 46.03,20.133 46.03,20.133 C46.03,20.133 41.375,20.42 38.202,24.456" id="Fill-3" fill="#FFFFFE"></path>
            <path d="M47.87,20.152 C48.435,18.114 49.23,16.306 50.467,14.936 C61.287,13.817 68.115,21.342 69.44,29.456 C71.265,40.62 73.257,52.214 72.51,56.168 C73.35,60.17 76.286,65.043 80.015,68.093 C74.254,67.114 68.405,69.185 65.152,71.265 C63.446,67.879 63.167,64.297 64.25,60.527 C62.84,58.307 61.388,54.774 61.902,49.309 C61.009,43.585 60.92,36.62 61.76,28.228 C61.5,23.676 53.997,19.702 47.87,20.152" id="Fill-4" fill="#FFFFFE"></path>
            <path d="M38.671,25.262 C43.287,18.417 57.937,21.247 59.992,27.977 C54.386,21.805 43.825,21.381 38.671,25.262" id="Fill-5" fill="#FFFFFE"></path>
            <path d="M40.09,34.131 C40.465,33.668 41.042,33.311 41.814,33.211 C42.455,33.129 43.231,33.228 44.132,33.595 L44.141,33.6 C44.565,33.809 44.828,34.011 44.981,34.227 C45.123,34.423 45.167,34.628 45.144,34.851 L45.144,34.854 C45.082,35.979 45.034,37.256 44.99,38.541 C44.934,40.038 44.881,41.553 44.798,42.839 C45.368,43.433 45.928,43.697 46.528,43.662 C47.152,43.624 47.835,43.263 48.636,42.619 L48.852,42.446 L48.852,44.013 L48.779,44.049 C47.755,44.57 46.903,44.837 46.102,44.754 C45.291,44.676 44.544,44.245 43.736,43.378 L43.694,43.331 L43.704,43.272 C43.876,42.013 44.046,40.633 44.218,39.254 C44.387,37.874 44.558,36.491 44.741,35.155 C44.751,35.1 44.753,35.012 44.759,34.921 L44.762,34.848 C44.464,34.538 44.02,34.271 43.526,34.107 C43.13,33.976 42.699,33.911 42.284,33.943 C41.879,33.972 41.489,34.095 41.16,34.339 C40.915,34.52 40.702,34.775 40.545,35.109 C41.257,34.833 41.882,34.658 42.455,34.64 C43.115,34.62 43.704,34.808 44.269,35.293 L44.325,35.341 L44.313,35.411 C44.298,35.513 44.269,35.669 44.238,35.824 C44.213,35.97 44.186,36.116 44.168,36.228 L44.153,36.321 L44.058,36.336 C43.789,36.383 43.476,36.404 43.154,36.404 C42.828,36.404 42.492,36.38 42.169,36.334 L42.095,36.324 L42.066,36.254 L42.039,36.184 C41.962,35.999 41.844,35.713 41.84,35.46 C41.584,35.483 41.264,35.569 40.921,35.707 C40.533,35.865 40.125,36.087 39.759,36.357 L39.614,36.465 L39.557,36.292 C39.474,36.037 39.48,35.627 39.587,35.2 C39.676,34.837 39.842,34.456 40.086,34.134 L40.09,34.131 Z M38.741,26.369 C45.073,22.191 53.782,23.747 60.172,29.549 C59.419,35.46 59.347,41.287 59.945,47.027 L59.942,46.992 C55.801,52.048 51.608,54.362 47.364,53.864 C42.837,52.807 38.644,47.057 38.564,40.449 C38.623,35.757 38.682,31.061 38.741,26.369 Z M60.072,48.155 C60.161,48.894 60.261,49.628 60.371,50.364 C59.649,54.402 60.696,58.158 62.479,61.814 C61.657,65.624 61.719,69.022 63.591,72.261 C60.521,73.814 57.247,76.898 54.418,80.199 C41.424,79.119 31.088,76.91 35.607,70.176 C39.164,65.58 43.218,61.981 48.121,60.243 C48.121,60.243 47.447,54.441 47.486,54.76 C52.468,55.1 56.721,53.169 60.072,48.155 Z M50.194,35.548 C49.772,35.792 49.396,36.085 49.24,36.281 L49.006,36.582 L49.006,35.542 L49.056,35.504 C49.994,34.808 50.753,34.453 51.659,34.359 C52.504,34.271 53.468,34.415 54.822,34.714 C54.746,34.553 54.636,34.415 54.506,34.295 C54.065,33.888 53.359,33.698 52.605,33.65 C51.839,33.606 51.026,33.709 50.39,33.89 C49.925,34.022 49.559,34.195 49.39,34.373 L48.986,34.808 L49.172,34.248 C49.369,33.644 49.852,33.24 50.479,33.012 C51.106,32.783 51.883,32.73 52.67,32.833 C53.451,32.935 54.243,33.19 54.911,33.577 C55.793,34.087 56.452,34.827 56.58,35.757 L56.615,36.017 L56.384,35.882 C56.183,35.768 55.382,35.542 54.666,35.396 C54.19,35.297 53.767,35.229 53.625,35.247 C53.62,35.39 53.589,35.61 53.531,35.797 C53.471,35.985 53.382,36.152 53.262,36.207 L53.244,36.216 L53.223,36.219 C52.975,36.248 52.718,36.269 52.445,36.277 C52.179,36.286 51.898,36.286 51.599,36.275 L51.531,36.271 L51.496,36.216 C51.384,36.049 51.283,35.879 51.212,35.68 C51.153,35.525 51.115,35.352 51.1,35.159 C50.819,35.226 50.496,35.376 50.194,35.548 Z M42.976,46.158 C44.207,46.829 45.765,46.96 47.391,46.802 C49.029,46.643 50.736,46.189 52.25,45.688 L53.2,45.372 L52.362,45.917 L50.813,46.931 L50.798,46.94 L50.783,46.946 C49.443,47.414 47.846,47.648 46.394,47.617 C44.999,47.581 43.733,47.3 42.943,46.743 L42.908,46.717 L42.896,46.673 L42.786,46.307 L42.716,46.014 L42.976,46.158 Z M44.86,48.135 C45.548,48.234 46.253,48.267 46.965,48.24 C47.678,48.214 48.406,48.125 49.145,47.982 L49.508,47.912 L49.269,48.193 C49.156,48.325 49.029,48.445 48.887,48.551 C48.364,48.949 47.658,49.186 46.957,49.218 C46.253,49.254 45.548,49.08 45.037,48.653 C44.927,48.562 44.828,48.457 44.736,48.342 L44.54,48.087 L44.86,48.135 L44.86,48.135 Z" id="Fill-6" fill="#FFFFFE"></path>
            <path d="M53.508,7.209 C66.245,7.209 77.778,12.324 86.122,20.589 C94.471,28.858 99.634,40.279 99.634,52.897 C99.634,65.513 94.471,76.933 86.122,85.202 C77.778,93.468 66.245,98.581 53.508,98.581 C40.77,98.581 29.238,93.468 20.893,85.202 C12.544,76.933 7.381,65.513 7.381,52.897 C7.381,40.279 12.544,28.858 20.893,20.589 C29.238,12.324 40.77,7.209 53.508,7.209 Z M84.682,22.015 C76.704,14.113 65.682,9.227 53.508,9.227 C41.333,9.227 30.311,14.113 22.333,22.015 C14.354,29.918 9.418,40.835 9.418,52.897 C9.418,64.956 14.354,75.873 22.333,83.776 C30.311,91.678 41.333,96.564 53.508,96.564 C65.682,96.564 76.704,91.678 84.682,83.776 C92.661,75.873 97.597,64.956 97.597,52.897 C97.597,40.835 92.661,29.918 84.682,22.015 L84.682,22.015 Z" id="Fill-7" fill="#FFFFFE"></path>
            <path d="M177.614,6.074 L165.256,6.074 L154.873,22.14 L144.49,6.074 L132.132,6.074 L132.132,48.572 L144.49,48.572 L144.49,26.645 L154.102,41.433 L155.645,41.433 L165.256,26.645 L165.256,48.572 L177.614,48.572 L177.614,6.074 Z M202.762,49.761 C205.938,49.75 208.898,49.167 211.643,48.033 C214.376,46.903 216.791,45.329 218.867,43.288 C220.94,41.264 222.555,38.883 223.729,36.176 C224.888,33.458 225.489,30.511 225.504,27.324 C225.489,24.138 224.888,21.188 223.729,18.47 C222.555,15.763 220.94,13.385 218.867,11.358 C216.791,9.319 214.376,7.746 211.643,6.613 C208.898,5.48 205.938,4.899 202.762,4.885 C199.586,4.899 196.626,5.48 193.879,6.613 C191.15,7.746 188.73,9.319 186.657,11.358 C184.584,13.385 182.967,15.763 181.795,18.47 C180.636,21.188 180.036,24.138 180.022,27.324 C180.036,30.511 180.636,33.458 181.795,36.176 C182.967,38.883 184.584,41.264 186.657,43.288 C188.73,45.329 191.15,46.903 193.879,48.033 C196.626,49.167 199.586,49.75 202.762,49.761 Z M202.762,37.353 C200.888,37.339 199.202,36.929 197.726,36.091 C196.239,35.271 195.068,34.108 194.21,32.608 C193.349,31.105 192.906,29.348 192.894,27.324 C192.906,25.297 193.349,23.54 194.21,22.04 C195.068,20.537 196.239,19.378 197.726,18.555 C199.202,17.72 200.888,17.307 202.762,17.295 C204.634,17.307 206.323,17.72 207.795,18.555 C209.283,19.378 210.457,20.537 211.314,22.04 C212.173,23.54 212.616,25.297 212.63,27.324 C212.616,29.348 212.173,31.105 211.314,32.608 C210.457,34.108 209.283,35.271 207.795,36.091 C206.323,36.929 204.634,37.339 202.762,37.353 Z M255.371,6.074 L255.371,21.373 L240.78,21.373 L240.78,6.074 L227.91,6.074 L227.91,48.572 L240.78,48.572 L240.78,33.273 L255.371,33.273 L255.371,48.572 L268.241,48.572 L268.241,6.074 L255.371,6.074 Z M293.389,49.761 C296.565,49.75 299.526,49.167 302.273,48.033 C305.003,46.903 307.422,45.329 309.495,43.288 C311.568,41.264 313.185,38.883 314.356,36.176 C315.515,33.458 316.115,30.511 316.13,27.324 C316.115,24.138 315.515,21.188 314.356,18.47 C313.185,15.763 311.568,13.385 309.495,11.358 C307.422,9.319 305.003,7.746 302.273,6.613 C299.526,5.48 296.565,4.899 293.389,4.885 C290.214,4.899 287.253,5.48 284.509,6.613 C281.777,7.746 279.361,9.319 277.284,11.358 C275.211,13.385 273.597,15.763 272.422,18.47 C271.264,21.188 270.663,24.138 270.649,27.324 C270.663,30.511 271.264,33.458 272.422,36.176 C273.597,38.883 275.211,41.264 277.284,43.288 C279.361,45.329 281.777,46.903 284.509,48.033 C287.253,49.167 290.214,49.75 293.389,49.761 Z M293.389,37.353 C291.517,37.339 289.829,36.929 288.356,36.091 C286.869,35.271 285.695,34.108 284.837,32.608 C283.98,31.105 283.536,29.348 283.521,27.324 C283.536,25.297 283.98,23.54 284.837,22.04 C285.695,20.537 286.869,19.378 288.356,18.555 C289.829,17.72 291.517,17.307 293.389,17.295 C295.264,17.307 296.952,17.72 298.425,18.555 C299.913,19.378 301.084,20.537 301.942,22.04 C302.802,23.54 303.246,25.297 303.258,27.324 C303.246,29.348 302.802,31.105 301.942,32.608 C301.084,34.108 299.913,35.271 298.425,36.091 C296.952,36.929 295.264,37.339 293.389,37.353 Z M172.466,57.374 L132.132,57.374 L132.132,99.872 L145.005,99.872 L145.005,69.275 L159.593,69.275 L159.593,99.872 L172.466,99.872 L172.466,57.374 Z M207.911,57.374 L189.547,78.621 L189.547,57.374 L177.017,57.374 L177.017,99.872 L186.456,99.872 L204.82,78.621 L204.82,99.872 L217.351,99.872 L217.351,57.374 L207.911,57.374 Z M260.52,87.973 L260.52,57.374 L247.647,57.374 L247.647,87.973 L234.774,87.973 L234.774,57.374 L221.902,57.374 L221.902,99.872 L255.286,99.872 L255.286,111.263 L267.813,111.263 L267.813,87.973 L260.52,87.973 Z M307.977,87.973 L307.977,57.374 L295.108,57.374 L295.108,87.973 L282.235,87.973 L282.235,57.374 L269.362,57.374 L269.362,99.872 L302.743,99.872 L302.743,111.263 L315.273,111.263 L315.273,87.973 L307.977,87.973 Z M347.974,57.374 L347.974,61.369 C346.557,59.74 344.798,58.463 342.68,57.558 C340.548,56.65 338.061,56.199 335.187,56.184 C332.353,56.199 329.707,56.779 327.235,57.913 C324.775,59.046 322.601,60.616 320.712,62.658 C318.839,64.685 317.367,67.063 316.308,69.769 C315.234,72.488 314.69,75.434 314.675,78.621 C314.69,81.811 315.234,84.758 316.308,87.476 C317.367,90.182 318.839,92.563 320.712,94.587 C322.601,96.629 324.775,98.199 327.235,99.333 C329.707,100.466 332.353,101.049 335.187,101.06 C338.061,101.049 340.548,100.58 342.68,99.675 C344.798,98.767 346.557,97.508 347.974,95.876 L347.974,99.872 L360.844,99.872 L360.844,57.374 L347.974,57.374 Z M337.759,88.993 C335.773,88.978 334.013,88.554 332.484,87.719 C330.952,86.881 329.751,85.692 328.879,84.148 C328.007,82.605 327.563,80.762 327.548,78.621 C327.563,76.483 328.007,74.643 328.879,73.097 C329.751,71.554 330.952,70.364 332.484,69.53 C334.013,68.692 335.773,68.267 337.759,68.252 C339.749,68.267 341.509,68.692 343.038,69.53 C344.567,70.364 345.771,71.554 346.643,73.097 C347.515,74.643 347.959,76.483 347.974,78.621 C347.959,80.762 347.515,82.605 346.643,84.148 C345.771,85.692 344.567,86.881 343.038,87.719 C341.509,88.554 339.749,88.978 337.759,88.993 L337.759,88.993 Z" id="Fill-8" fill="#3A3A39"></path>
            <path d="M205.586,118.433 C205.818,118.433 206.037,118.445 206.244,118.47 C206.45,118.494 206.669,118.515 206.901,118.531 C207.48,118.449 208.063,118.408 208.65,118.408 C209.237,118.408 209.82,118.429 210.399,118.47 C210.978,118.511 211.56,118.548 212.147,118.58 C212.734,118.613 213.317,118.63 213.896,118.63 C214.392,118.859 214.872,119.145 215.335,119.489 C215.798,119.833 216.137,120.267 216.352,120.792 C216.385,121.021 216.34,121.234 216.215,121.43 C216.092,121.627 215.947,121.799 215.781,121.946 C215.451,121.979 215.124,121.979 214.802,121.946 C214.479,121.913 214.157,121.873 213.834,121.824 C213.512,121.774 213.189,121.729 212.867,121.688 C212.544,121.647 212.218,121.627 211.887,121.627 C211.937,122.053 211.99,122.479 212.048,122.904 C212.106,123.331 212.102,123.756 212.036,124.182 C211.854,125.312 211.734,126.438 211.676,127.56 C211.618,128.682 211.507,129.809 211.341,130.939 C211.192,131.168 211.007,131.303 210.783,131.344 C210.56,131.385 210.337,131.364 210.113,131.283 C209.89,131.201 209.675,131.082 209.468,130.927 C209.262,130.771 209.1,130.611 208.985,130.447 C208.902,129.71 208.894,128.973 208.96,128.236 C209.026,127.499 209.105,126.766 209.195,126.037 C209.286,125.308 209.353,124.579 209.394,123.85 C209.435,123.122 209.406,122.389 209.307,121.652 C208.877,121.635 208.456,121.623 208.042,121.615 C207.629,121.606 207.207,121.643 206.777,121.725 C206.397,121.643 206.037,121.476 205.698,121.222 C205.359,120.968 205.156,120.636 205.09,120.227 C204.991,120.046 204.95,119.878 204.966,119.723 C204.983,119.567 205.028,119.42 205.103,119.281 C205.177,119.141 205.264,119.002 205.363,118.863 C205.462,118.724 205.537,118.58 205.586,118.433 Z M220.842,118.531 C221.156,118.498 221.47,118.461 221.784,118.421 C222.098,118.38 222.413,118.359 222.727,118.359 C222.81,118.343 222.884,118.355 222.95,118.396 C223.016,118.437 223.082,118.482 223.149,118.531 C223.248,118.498 223.347,118.47 223.446,118.445 C223.546,118.421 223.645,118.4 223.744,118.384 C223.711,118.417 223.678,118.445 223.645,118.47 C223.612,118.494 223.612,118.531 223.645,118.58 C223.728,118.646 223.814,118.711 223.905,118.777 C223.996,118.842 224.083,118.9 224.166,118.949 C224.248,118.998 224.29,119.076 224.29,119.182 C224.29,119.289 224.306,119.383 224.339,119.465 C224.438,119.53 224.554,119.551 224.687,119.526 C224.819,119.502 224.926,119.53 225.009,119.612 C225.125,119.645 225.241,119.674 225.356,119.698 C225.472,119.723 225.58,119.76 225.679,119.809 C225.811,119.94 225.956,120.038 226.113,120.104 C226.27,120.169 226.39,120.284 226.473,120.448 C226.588,120.546 226.646,120.677 226.646,120.841 C226.646,121.004 226.712,121.136 226.845,121.234 C226.944,121.463 226.977,121.705 226.944,121.959 C226.911,122.213 226.944,122.454 227.043,122.683 L227.043,123.814 C226.977,123.977 226.964,124.141 227.006,124.305 C227.047,124.469 227.026,124.632 226.944,124.796 C226.894,124.927 226.882,125.059 226.907,125.189 C226.932,125.32 226.911,125.452 226.845,125.583 C226.828,125.959 226.778,126.324 226.696,126.676 C226.613,127.028 226.53,127.384 226.448,127.745 C226.332,127.974 226.237,128.211 226.162,128.457 C226.088,128.703 226.009,128.94 225.927,129.17 C225.811,129.317 225.695,129.465 225.58,129.612 C225.464,129.759 225.389,129.923 225.356,130.103 C225.224,130.169 225.137,130.271 225.096,130.41 C225.054,130.55 224.943,130.619 224.761,130.619 C224.744,130.669 224.711,130.705 224.662,130.73 C224.612,130.754 224.567,130.775 224.525,130.791 C224.484,130.808 224.447,130.832 224.414,130.865 C224.381,130.898 224.372,130.947 224.389,131.012 C224.207,130.996 224.029,131.029 223.856,131.111 C223.682,131.193 223.512,131.275 223.347,131.356 C222.967,131.438 222.595,131.463 222.231,131.43 C221.867,131.397 221.503,131.422 221.139,131.504 C221.172,131.471 221.206,131.434 221.239,131.393 C221.272,131.352 221.255,131.324 221.189,131.307 C220.958,131.291 220.751,131.221 220.569,131.098 C220.387,130.976 220.18,130.914 219.949,130.914 C219.75,130.75 219.548,130.599 219.341,130.46 C219.134,130.32 218.94,130.169 218.758,130.005 C218.675,129.825 218.564,129.682 218.423,129.575 C218.283,129.469 218.163,129.342 218.064,129.194 C217.948,129.063 217.873,128.924 217.84,128.777 C217.807,128.629 217.766,128.482 217.716,128.334 C217.468,127.384 217.357,126.422 217.381,125.447 C217.406,124.473 217.485,123.502 217.617,122.536 C217.683,122.405 217.725,122.274 217.741,122.143 C217.757,122.012 217.807,121.889 217.89,121.774 C217.89,121.709 217.894,121.643 217.902,121.578 C217.911,121.512 217.931,121.455 217.964,121.406 C218.196,121.029 218.403,120.648 218.584,120.263 C218.766,119.878 219.039,119.555 219.403,119.293 C219.469,119.276 219.51,119.24 219.527,119.182 C219.544,119.125 219.56,119.072 219.577,119.023 C219.593,118.973 219.622,118.933 219.663,118.9 C219.705,118.867 219.783,118.867 219.899,118.9 C220.031,118.785 220.188,118.72 220.37,118.703 C220.552,118.687 220.709,118.63 220.842,118.531 Z M222.901,120.153 C222.785,120.218 222.665,120.267 222.541,120.3 C222.417,120.333 222.305,120.398 222.206,120.497 C222.057,120.742 221.888,120.98 221.698,121.209 C221.507,121.439 221.388,121.701 221.338,121.995 C221.272,122.094 221.201,122.184 221.127,122.266 C221.052,122.348 221.007,122.454 220.991,122.585 C220.924,122.765 220.895,122.95 220.904,123.138 C220.912,123.326 220.875,123.502 220.792,123.666 C220.743,123.944 220.73,124.231 220.755,124.526 C220.78,124.821 220.751,125.108 220.668,125.386 C220.668,125.763 220.685,126.144 220.718,126.529 C220.751,126.914 220.784,127.294 220.817,127.671 C220.85,127.9 220.904,128.117 220.978,128.322 C221.052,128.527 221.106,128.744 221.139,128.973 C221.189,129.055 221.263,129.125 221.363,129.182 C221.462,129.239 221.561,129.276 221.66,129.293 C221.776,129.325 221.9,129.346 222.032,129.354 C222.165,129.362 222.272,129.309 222.355,129.194 C222.686,128.883 222.942,128.531 223.124,128.138 C223.306,127.745 223.463,127.351 223.595,126.959 C223.579,126.844 223.595,126.745 223.645,126.664 C223.694,126.582 223.719,126.492 223.719,126.393 C223.736,126.197 223.777,126.008 223.843,125.828 C223.909,125.648 223.942,125.468 223.942,125.288 C223.926,124.993 223.955,124.702 224.029,124.416 C224.104,124.129 224.133,123.838 224.116,123.543 C224.099,123.281 224.108,123.019 224.141,122.757 C224.174,122.495 224.174,122.233 224.141,121.971 C224.141,121.692 224.124,121.418 224.091,121.148 C224.058,120.878 223.959,120.628 223.794,120.398 C223.661,120.316 223.521,120.235 223.372,120.153 C223.223,120.071 223.066,120.071 222.901,120.153 Z M228.854,128.801 C228.97,128.785 229.085,128.777 229.201,128.777 C229.317,128.777 229.433,128.793 229.548,128.826 C229.697,128.793 229.838,128.805 229.97,128.863 C230.102,128.92 230.235,128.981 230.367,129.047 C230.78,129.243 231.095,129.563 231.31,130.005 C231.392,130.103 231.479,130.206 231.57,130.312 C231.661,130.419 231.698,130.546 231.682,130.693 C231.715,130.873 231.752,131.049 231.793,131.221 C231.835,131.393 231.814037,131.569 231.731,131.749 C231.665,131.815 231.64,131.885 231.657,131.958 C231.673,132.032 231.665,132.11 231.632,132.192 C231.516,132.372 231.425,132.568 231.359,132.782 C231.293,132.994 231.169,133.166 230.987,133.297 C230.937,133.396 230.867,133.469 230.776,133.519 C230.685,133.568 230.582,133.576 230.466,133.543 C230.119,133.461 229.825,133.269 229.586,132.966 C229.346,132.663 229.243,132.323 229.276,131.946 C229.309,131.864 229.358,131.782 229.424,131.7 C229.491,131.618 229.515,131.52 229.499,131.406 C229.366,131.34 229.226,131.283 229.077,131.234 C228.995,131.103 228.879,131 228.73,130.927 C228.581,130.853 228.49,130.726 228.457,130.546 C228.341,130.398 228.242,130.234 228.159,130.054 C228.077,129.874 228.035,129.686 228.035,129.489 C228.168,129.08 228.44,128.85 228.854,128.801 Z M240.81,118.457 C241.406,118.343 241.972,118.412 242.509,118.666 C243.047,118.92 243.489,119.285 243.837,119.76 C243.869,120.677 243.832,121.586 243.725,122.487 C243.617,123.388 243.497,124.284 243.365,125.177 C243.233,126.07 243.105,126.971 242.98,127.88 C242.857,128.789 242.794,129.694 242.794,130.595 C242.794,130.808 242.728,130.972 242.596,131.086 C242.464,131.201 242.307,131.279 242.125,131.32 C241.943,131.36 241.753,131.373 241.554,131.356 C241.356,131.34 241.174,131.307 241.009,131.258 C240.595,131.012 240.31,130.697 240.153,130.312 C239.996,129.927 239.901,129.514 239.867,129.072 C239.835,128.629 239.83,128.183 239.855,127.732 C239.88,127.282 239.876,126.86 239.843,126.467 C239.165,126.336 238.503,126.119 237.858,125.816 C237.213,125.513 236.676,125.091 236.246,124.551 C235.882,123.617 235.725,122.651 235.774,121.652 C235.824,120.652 236.006,119.686 236.32,118.752 C236.618,118.588 236.903,118.531 237.176,118.58 C237.449,118.63 237.697,118.736 237.92,118.9 C238.143,119.064 238.342,119.272 238.516,119.526 C238.689,119.78 238.826,120.03 238.925,120.276 C238.892,120.603 238.846,120.927 238.789,121.246 C238.73,121.565 238.677,121.889 238.627,122.216 C238.578,122.544 238.549,122.876 238.541,123.212 C238.532,123.547 238.561,123.879 238.627,124.207 C238.677,124.371 238.768,124.502 238.9,124.6 C239.032,124.698 239.181,124.759 239.347,124.784 C239.512,124.809 239.669,124.788 239.818,124.723 C239.967,124.657 240.083,124.543 240.165,124.379 C240.215,123.904 240.277,123.429 240.351,122.954 C240.426,122.479 240.492,122 240.55,121.516 C240.608,121.033 240.653,120.554 240.686,120.079 C240.719,119.604 240.711,119.129 240.661,118.654 C240.694,118.588 240.744,118.523 240.81,118.457 Z M245.498,118.433 C245.73,118.433 245.949,118.445 246.156,118.47 C246.362,118.494 246.582,118.515 246.813,118.531 C247.392,118.449 247.975,118.408 248.562,118.408 C249.149,118.408 249.732,118.429 250.311,118.47 C250.889,118.511 251.472,118.548 252.059,118.58 C252.647,118.613 253.229,118.63 253.808,118.63 C254.304,118.859 254.784,119.145 255.247,119.489 C255.71,119.833 256.049,120.267 256.264,120.792 C256.297,121.021 256.251,121.234 256.128,121.43 C256.003,121.627 255.859,121.799 255.693,121.946 C255.363,121.979 255.036,121.979 254.714,121.946 C254.391,121.913 254.069,121.873 253.746,121.824 C253.424,121.774 253.101,121.729 252.779,121.688 C252.456,121.647 252.13,121.627 251.799,121.627 C251.849,122.053 251.902,122.479 251.96,122.904 C252.018,123.331 252.014,123.756 251.948,124.182 C251.766,125.312 251.646,126.438 251.588,127.56 C251.53,128.682 251.419,129.809 251.253,130.939 C251.104,131.168 250.918,131.303 250.695,131.344 C250.472,131.385 250.248,131.364 250.025,131.283 C249.802,131.201 249.587,131.082 249.38,130.927 C249.174,130.771 249.013,130.611 248.897,130.447 C248.814,129.71 248.806,128.973 248.872,128.236 C248.938,127.499 249.017,126.766 249.108,126.037 C249.199,125.308 249.265,124.579 249.306,123.85 C249.347,123.122 249.318,122.389 249.219,121.652 C248.789,121.635 248.367,121.623 247.954,121.615 C247.541,121.606 247.119,121.643 246.689,121.725 C246.309,121.643 245.949,121.476 245.61,121.222 C245.271,120.968 245.068,120.636 245.002,120.227 C244.903,120.046 244.862,119.878 244.878,119.723 C244.895,119.567 244.94,119.42 245.015,119.281 C245.089,119.141 245.176,119.002 245.275,118.863 C245.374,118.724 245.449,118.58 245.498,118.433 Z M260.754,118.531 C261.068,118.498 261.382,118.461 261.696,118.421 C262.011,118.38 262.325,118.359 262.639,118.359 C262.721,118.343 262.796,118.355 262.862,118.396 C262.928,118.437 262.994,118.482 263.06,118.531 C263.16,118.498 263.259,118.47 263.358,118.445 C263.457,118.421 263.557,118.4 263.656,118.384 C263.623,118.417 263.59,118.445 263.557,118.47 C263.524,118.494 263.524,118.531 263.557,118.58 C263.639,118.646 263.726,118.711 263.817,118.777 C263.908,118.842 263.995,118.9 264.078,118.949 C264.16,118.998 264.202,119.076 264.202,119.182 C264.202,119.289 264.218,119.383 264.251,119.465 C264.351,119.53 264.466,119.551 264.599,119.526 C264.731,119.502 264.838,119.53 264.921,119.612 C265.037,119.645 265.152,119.674 265.268,119.698 C265.384,119.723 265.491,119.76 265.591,119.809 C265.723,119.94 265.868,120.038 266.025,120.104 C266.182,120.169 266.302,120.284 266.384,120.448 C266.5,120.546 266.558,120.677 266.558,120.841 C266.558,121.004 266.624,121.136 266.757,121.234 C266.856,121.463 266.889,121.705 266.856,121.959 C266.823,122.213 266.856,122.454 266.955,122.683 L266.955,123.814 C266.889,123.977 266.876,124.141 266.918,124.305 C266.959,124.469 266.939,124.632 266.856,124.796 C266.806,124.927 266.794,125.059 266.819,125.189 C266.843,125.32 266.823,125.452 266.757,125.583 C266.74,125.959 266.691,126.324 266.608,126.676 C266.525,127.028 266.442,127.384 266.36,127.745 C266.244,127.974 266.149,128.211 266.074,128.457 C266,128.703 265.922,128.94 265.839,129.17 C265.723,129.317 265.607,129.465 265.491,129.612 C265.376,129.759 265.301,129.923 265.268,130.103 C265.136,130.169 265.049,130.271 265.008,130.41 C264.967,130.55 264.855,130.619 264.673,130.619 C264.656,130.669 264.623,130.705 264.574,130.73 C264.524,130.754 264.479,130.775 264.437,130.791 C264.396,130.808 264.359,130.832 264.326,130.865 C264.292,130.898 264.284,130.947 264.301,131.012 C264.119,130.996 263.941,131.029 263.767,131.111 C263.594,131.193 263.424,131.275 263.259,131.356 C262.879,131.438 262.507,131.463 262.143,131.43 C261.779,131.397 261.415,131.422 261.051,131.504 C261.084,131.471 261.117,131.434 261.151,131.393 C261.184,131.352 261.167,131.324 261.101,131.307 C260.869,131.291 260.663,131.221 260.481,131.098 C260.299,130.976 260.092,130.914 259.861,130.914 C259.662,130.75 259.46,130.599 259.253,130.46 C259.046,130.32 258.852,130.169 258.67,130.005 C258.587,129.825 258.476,129.682 258.335,129.575 C258.195,129.469 258.075,129.342 257.975,129.194 C257.86,129.063 257.785,128.924 257.752,128.777 C257.719,128.629 257.678,128.482 257.628,128.334 C257.38,127.384 257.268,126.422 257.293,125.447 C257.318,124.473 257.397,123.502 257.529,122.536 C257.595,122.405 257.636,122.274 257.653,122.143 C257.67,122.012 257.719,121.889 257.802,121.774 C257.802,121.709 257.806,121.643 257.814,121.578 C257.822,121.512 257.843,121.455 257.876,121.406 C258.108,121.029 258.314,120.648 258.496,120.263 C258.678,119.878 258.951,119.555 259.315,119.293 C259.381,119.276 259.423,119.24 259.439,119.182 C259.455,119.125 259.472,119.072 259.489,119.023 C259.505,118.973 259.534,118.933 259.575,118.9 C259.617,118.867 259.695,118.867 259.811,118.9 C259.943,118.785 260.101,118.72 260.282,118.703 C260.464,118.687 260.621,118.63 260.754,118.531 Z M262.812,120.153 C262.697,120.218 262.577,120.267 262.453,120.3 C262.329,120.333 262.217,120.398 262.118,120.497 C261.969,120.742 261.8,120.98 261.609,121.209 C261.419,121.439 261.299,121.701 261.25,121.995 C261.184,122.094 261.113,122.184 261.039,122.266 C260.965,122.348 260.919,122.454 260.902,122.585 C260.836,122.765 260.808,122.95 260.816,123.138 C260.824,123.326 260.787,123.502 260.704,123.666 C260.654,123.944 260.642,124.231 260.667,124.526 C260.692,124.821 260.663,125.108 260.58,125.386 C260.58,125.763 260.597,126.144 260.63,126.529 C260.663,126.914 260.696,127.294 260.729,127.671 C260.762,127.9 260.816,128.117 260.89,128.322 C260.965,128.527 261.018,128.744 261.051,128.973 C261.101,129.055 261.175,129.125 261.275,129.182 C261.374,129.239 261.473,129.276 261.572,129.293 C261.688,129.325 261.812,129.346 261.944,129.354 C262.077,129.362 262.184,129.309 262.267,129.194 C262.598,128.883 262.854,128.531 263.036,128.138 C263.218,127.745 263.375,127.351 263.507,126.959 C263.491,126.844 263.507,126.745 263.557,126.664 C263.606,126.582 263.631,126.492 263.631,126.393 C263.648,126.197 263.689,126.008 263.755,125.828 C263.821,125.648 263.854,125.468 263.854,125.288 C263.838,124.993 263.867,124.702 263.941,124.416 C264.016,124.129 264.044,123.838 264.028,123.543 C264.012,123.281 264.02,123.019 264.053,122.757 C264.086,122.495 264.086,122.233 264.053,121.971 C264.053,121.692 264.036,121.418 264.003,121.148 C263.97,120.878 263.871,120.628 263.705,120.398 C263.573,120.316 263.433,120.235 263.284,120.153 C263.135,120.071 262.978,120.071 262.812,120.153 Z M271.569,118.433 C271.8,118.433 272.019,118.445 272.226,118.47 C272.433,118.494 272.652,118.515 272.883,118.531 C273.462,118.449 274.045,118.408 274.632,118.408 C275.219,118.408 275.802,118.429 276.381,118.47 C276.96,118.511 277.543,118.548 278.13,118.58 C278.717,118.613 279.3,118.63 279.879,118.63 C280.375,118.859 280.854,119.145 281.317,119.489 C281.78,119.833 282.12,120.267 282.334,120.792 C282.368,121.021 282.322,121.234 282.198,121.43 C282.074,121.627 281.929,121.799 281.764,121.946 C281.433,121.979 281.106,121.979 280.784,121.946 C280.462,121.913 280.139,121.873 279.817,121.824 C279.494,121.774 279.172,121.729 278.849,121.688 C278.527,121.647 278.2,121.627 277.87,121.627 C277.919,122.053 277.973,122.479 278.031,122.904 C278.089,123.331 278.084,123.756 278.018,124.182 C277.836,125.312 277.716,126.438 277.659,127.56 C277.601,128.682 277.489,129.809 277.324,130.939 C277.175,131.168 276.989,131.303 276.765,131.344 C276.542,131.385 276.319,131.364 276.096,131.283 C275.872,131.201 275.658,131.082 275.451,130.927 C275.244,130.771 275.083,130.611 274.967,130.447 C274.884,129.71 274.876,128.973 274.943,128.236 C275.009,127.499 275.087,126.766 275.178,126.037 C275.269,125.308 275.335,124.579 275.376,123.85 C275.418,123.122 275.389,122.389 275.29,121.652 C274.86,121.635 274.438,121.623 274.025,121.615 C273.611,121.606 273.19,121.643 272.76,121.725 C272.379,121.643 272.019,121.476 271.68,121.222 C271.341,120.968 271.139,120.636 271.073,120.227 C270.973,120.046 270.932,119.878 270.949,119.723 C270.965,119.567 271.011,119.42 271.085,119.281 C271.16,119.141 271.246,119.002 271.346,118.863 C271.445,118.724 271.519,118.58 271.569,118.433 Z M284.641,118.531 C285.038,118.384 285.418,118.363 285.782,118.47 C286.146,118.576 286.485,118.744 286.799,118.973 C286.998,119.35 287.072,119.747 287.023,120.165 C286.973,120.583 286.907,120.98 286.824,121.357 C287.138,121.111 287.49,120.935 287.878,120.828 C288.267,120.722 288.664,120.673 289.069,120.681 C289.474,120.689 289.867,120.755 290.247,120.878 C290.628,121 290.983,121.168 291.314,121.381 C291.711,121.856 291.988,122.376 292.145,122.941 C292.302,123.507 292.389,124.088 292.405,124.686 C292.422,125.284 292.389,125.886 292.306,126.492 C292.224,127.098 292.141,127.679 292.058,128.236 C292.008,128.449 291.946,128.666 291.872,128.887 C291.798,129.108 291.703,129.317 291.587,129.514 C291.471,129.71 291.335,129.89 291.178,130.054 C291.02,130.218 290.834,130.333 290.62,130.398 C290.371,130.48 290.123,130.57 289.875,130.669 C289.627,130.767 289.371,130.816 289.106,130.816 C288.776,130.685 288.474,130.505 288.201,130.275 C287.928,130.046 287.659,129.809 287.395,129.563 C287.345,129.399 287.353,129.26 287.419,129.145 C287.486,129.03 287.581,128.936 287.705,128.863 C287.829,128.789 287.969,128.727 288.126,128.678 C288.283,128.629 288.42,128.58 288.536,128.531 C288.685,128.318 288.784,128.093 288.833,127.855 C288.883,127.618 288.92,127.376 288.945,127.13 C288.97,126.885 288.986,126.639 288.995,126.393 C289.003,126.148 289.032,125.902 289.081,125.656 C289.081,125.05 289.094,124.44 289.119,123.826 C289.143,123.212 289.007,122.626 288.71,122.069 L288.263,122.069 C288.031,122.495 287.783,122.9 287.519,123.285 C287.254,123.67 286.985,124.068 286.709,124.477 C286.618,125.525 286.564,126.574 286.547,127.622 C286.531,128.67 286.506,129.718 286.477,130.767 C286.295,131.061 286.047,131.242 285.741,131.307 C285.431,131.373 285.121,131.364 284.815,131.283 C284.505,131.201 284.224,131.049 283.963,130.828 C283.707,130.607 283.525,130.357 283.426,130.079 C283.327,128.195 283.323,126.316 283.414,124.44 C283.504,122.565 283.616,120.685 283.748,118.801 C283.864,118.67 284.005,118.601 284.17,118.593 C284.335,118.584 284.492,118.564 284.641,118.531 Z M294.712,118.507 C294.977,118.441 295.258,118.457 295.556,118.556 C295.853,118.654 296.114,118.801 296.337,118.998 C296.56,119.194 296.722,119.424 296.821,119.686 C296.92,119.948 296.903,120.227 296.771,120.521 C296.457,122.192 296.255,123.867 296.164,125.546 C296.073,127.225 296.019,128.916 296.002,130.619 C295.754,130.93 295.415,131.119 294.985,131.184 C294.555,131.25 294.175,131.168 293.844,130.939 C293.646,130.775 293.472,130.595 293.323,130.398 C293.174,130.202 292.992,130.038 292.777,129.907 C292.744,128.105 292.79,126.311 292.914,124.526 C293.038,122.741 293.166,120.955 293.299,119.17 C293.48,118.941 293.699,118.793 293.956,118.728 C294.212,118.662 294.464,118.588 294.712,118.507 Z M304.039,118.433 C304.436,118.4 304.841,118.412 305.255,118.47 C305.668,118.527 306.069,118.634 306.458,118.789 C306.846,118.945 307.202,119.149 307.524,119.403 C307.847,119.657 308.116,119.964 308.33,120.325 C308.579,120.652 308.781,121.009 308.938,121.394 C309.095,121.779 309.195,122.176 309.236,122.585 C309.277,122.995 309.244,123.4 309.137,123.801 C309.029,124.203 308.843,124.567 308.579,124.895 C308.496,125.091 308.488,125.275 308.554,125.447 C308.62,125.619 308.703,125.796 308.802,125.976 C308.901,126.156 308.992,126.336 309.075,126.516 C309.157,126.696 309.174,126.893 309.124,127.106 C309.306,127.696 309.298,128.31 309.099,128.948 C308.901,129.587 308.537,130.087 308.008,130.447 C307.594,130.775 307.136,131.012 306.631,131.16 C306.127,131.307 305.614,131.373 305.093,131.356 C304.572,131.34 304.06,131.25 303.555,131.086 C303.051,130.922 302.6,130.676 302.204,130.349 C301.922,130.234 301.695,130.075 301.521,129.87 C301.348,129.665 301.211,129.436 301.112,129.182 C301.013,128.928 300.947,128.662 300.914,128.384 C300.881,128.105 300.881,127.827 300.914,127.548 C301.079,127.335 301.24,127.237 301.397,127.253 C301.554,127.27 301.711,127.327 301.869,127.425 C302.026,127.524 302.187,127.63 302.352,127.745 C302.518,127.859 302.691,127.917 302.873,127.917 C303.005,127.95 303.117,128.015 303.208,128.113 C303.299,128.211 303.394,128.306 303.493,128.396 C303.593,128.486 303.708,128.543 303.841,128.568 C303.973,128.592 304.138,128.539 304.337,128.408 C304.767,128.474 305.164,128.408 305.527,128.211 C305.891,128.015 306.206,127.769 306.47,127.474 C306.536,127.262 306.532,127.048 306.458,126.836 C306.383,126.623 306.263,126.451 306.098,126.32 C305.767,126.254 305.445,126.176 305.131,126.086 C304.816,125.996 304.568,125.796 304.386,125.484 C304.337,125.124 304.299,124.743 304.275,124.342 C304.25,123.941 304.345,123.584 304.56,123.273 C304.891,123.175 305.222,123.064 305.552,122.941 C305.883,122.819 306.206,122.667 306.52,122.487 C306.586,122.208 306.536,121.959 306.371,121.737 C306.206,121.516 306.057,121.291 305.924,121.062 C305.345,120.996 304.779,121.111 304.225,121.406 C303.671,121.701 303.287,122.118 303.072,122.659 C302.939,122.872 302.778,123.056 302.588,123.212 C302.398,123.367 302.146,123.355 301.831,123.175 C301.451,122.913 301.195,122.581 301.063,122.18 C300.93,121.779 300.901,121.373 300.976,120.964 C301.05,120.554 301.22,120.169 301.484,119.809 C301.749,119.448 302.079,119.186 302.477,119.023 C302.741,118.924 302.993,118.81 303.233,118.679 C303.473,118.548 303.741,118.466 304.039,118.433 L304.039,118.433 Z" id="Fill-9" fill="#DE4C2B"></path>
            <path d="M311.208,118.605 C311.456,118.605 311.708,118.638 311.964,118.703 C312.221,118.769 312.465,118.859 312.696,118.973 C312.928,119.088 313.143,119.231 313.341,119.403 C313.54,119.575 313.688,119.784 313.788,120.03 C313.821,120.325 313.829,120.624 313.813,120.927 C313.796,121.23 313.771,121.533 313.738,121.836 C313.705,122.139 313.676,122.442 313.651,122.745 C313.626,123.048 313.631,123.355 313.664,123.666 C313.928,123.617 314.205,123.609 314.495,123.642 C314.784,123.674 315.078,123.703 315.375,123.728 C315.673,123.752 315.962,123.752 316.244,123.728 C316.524,123.703 316.781,123.617 317.012,123.47 C317.029,122.733 317.041,122.004 317.05,121.283 C317.058,120.562 317.112,119.833 317.211,119.096 C317.194,118.982 317.219,118.867 317.285,118.752 C317.351,118.638 317.438,118.552 317.546,118.494 C317.653,118.437 317.769,118.408 317.893,118.408 C318.017,118.408 318.145,118.457 318.277,118.556 C318.658,118.556 318.997,118.675 319.294,118.912 C319.592,119.149 319.832,119.407 320.014,119.686 C320.096,120.554 320.126,121.426 320.101,122.303 C320.076,123.179 320.039,124.055 319.989,124.932 C319.939,125.808 319.91,126.684 319.902,127.56 C319.894,128.437 319.939,129.309 320.039,130.177 C319.939,130.521 319.815,130.865 319.667,131.209 C319.468,131.34 319.253,131.41 319.022,131.418 C318.79,131.426 318.567,131.389 318.352,131.307 C318.137,131.225 317.943,131.107 317.769,130.951 C317.595,130.795 317.459,130.619 317.36,130.423 C317.227,130.112 317.14,129.796 317.099,129.477 C317.058,129.157 317.037,128.83 317.037,128.494 C317.037,128.158 317.041,127.827 317.05,127.499 C317.058,127.171 317.054,126.844 317.037,126.516 C316.74,126.483 316.438,126.447 316.132,126.406 C315.826,126.365 315.524,126.344 315.227,126.344 C314.929,126.344 314.631,126.369 314.333,126.418 C314.036,126.467 313.755,126.565 313.49,126.713 C313.44,127.057 313.428,127.413 313.453,127.781 C313.478,128.15 313.502,128.518 313.527,128.887 C313.552,129.256 313.552,129.62 313.527,129.981 C313.502,130.341 313.416,130.693 313.267,131.037 C312.887,131.168 312.469,131.213 312.014,131.172 C311.559,131.131 311.2,130.939 310.935,130.595 C310.67,130.349 310.497,130.042 310.414,129.673 C310.331,129.305 310.29,128.948 310.29,128.605 C310.257,126.983 310.29,125.374 310.389,123.777 C310.489,122.18 310.58,120.57 310.662,118.949 C310.745,118.867 310.836,118.801 310.935,118.752 C311.034,118.703 311.125,118.654 311.208,118.605 Z M329.49,121.995 C329.672,122.552 329.762,123.113 329.762,123.678 C329.762,124.244 329.721,124.813 329.638,125.386 C329.589,125.599 329.568,125.812 329.576,126.025 C329.585,126.238 329.539,126.442 329.44,126.639 C329.407,126.819 329.39,126.999 329.39,127.18 C329.39,127.36 329.333,127.532 329.217,127.696 C329.151,127.859 329.134,128.027 329.167,128.199 C329.2,128.371 329.175,128.547 329.093,128.727 C329.01,128.858 328.985,129.002 329.018,129.157 C329.051,129.313 329.018,129.456 328.919,129.587 C328.836,129.653 328.824,129.747 328.882,129.87 C328.94,129.993 328.911,130.071 328.795,130.103 C328.712,130.136 328.667,130.206 328.658,130.312 C328.65,130.419 328.696,130.488 328.795,130.521 C328.762,130.537 328.733,130.546 328.708,130.546 C328.683,130.546 328.654,130.554 328.621,130.57 C328.506,130.75 328.348,130.865 328.15,130.914 C327.968,130.947 327.782,130.967 327.592,130.976 C327.402,130.984 327.216,130.972 327.034,130.939 C326.934,131.021 326.831,131.094 326.724,131.16 C326.616,131.225 326.505,131.283 326.389,131.332 C325.909,131.364 325.438,131.36 324.975,131.32 C324.512,131.279 324.065,131.168 323.635,130.988 C323.52,130.89 323.396,130.816 323.263,130.767 C323.131,130.718 323.007,130.652 322.891,130.57 C322.875,130.554 322.862,130.546 322.854,130.546 C322.846,130.546 322.834,130.537 322.817,130.521 L322.792,130.496 C322.726,130.464 322.684,130.439 322.668,130.423 C322.684,130.341 322.647,130.284 322.556,130.251 C322.465,130.218 322.404,130.169 322.37,130.103 C322.056,129.825 321.82,129.497 321.663,129.121 C321.506,128.744 321.37,128.359 321.254,127.966 C321.188,127.786 321.167,127.609 321.192,127.438 C321.217,127.266 321.188,127.09 321.105,126.909 C321.155,126.68 321.209,126.463 321.267,126.258 C321.324,126.053 321.378,125.836 321.428,125.607 C321.543,125.509 321.622,125.39 321.663,125.251 C321.705,125.112 321.783,124.985 321.899,124.87 C321.916,124.805 321.932,124.739 321.949,124.674 C321.965,124.608 321.998,124.551 322.048,124.502 C322.18,124.42 322.292,124.305 322.383,124.158 C322.474,124.01 322.585,123.887 322.718,123.789 C322.834,123.707 322.949,123.638 323.065,123.58 C323.181,123.523 323.272,123.429 323.338,123.298 C323.503,123.101 323.714,122.974 323.97,122.917 C324.227,122.859 324.471,122.814 324.702,122.782 C325.033,122.782 325.363,122.777 325.694,122.77 C326.025,122.761 326.339,122.839 326.637,123.003 C326.769,122.97 326.819,122.876 326.786,122.72 C326.753,122.565 326.761,122.446 326.811,122.364 C326.794,122.167 326.773,121.975 326.748,121.787 C326.724,121.598 326.703,121.406 326.686,121.209 C326.637,121.078 326.563,120.955 326.463,120.841 C326.364,120.726 326.224,120.693 326.042,120.742 C325.909,120.742 325.806,120.796 325.731,120.902 C325.657,121.009 325.554,121.046 325.421,121.013 C325.272,121.029 325.132,121.119 325,121.283 C324.884,121.398 324.752,121.467 324.603,121.492 C324.454,121.516 324.297,121.545 324.132,121.578 C323.9,121.594 323.685,121.549 323.487,121.443 C323.288,121.336 323.098,121.218 322.916,121.086 C322.8,120.955 322.684,120.828 322.569,120.706 C322.453,120.583 322.337,120.456 322.222,120.325 C322.172,120.194 322.197,120.083 322.296,119.993 C322.395,119.903 322.478,119.809 322.544,119.71 C322.627,119.498 322.751,119.334 322.916,119.219 C322.999,119.186 323.082,119.158 323.164,119.133 C323.247,119.109 323.33,119.072 323.412,119.023 C323.627,118.908 323.846,118.834 324.069,118.801 C324.293,118.769 324.52,118.72 324.752,118.654 C324.768,118.605 324.834,118.564 324.95,118.531 C325.016,118.548 325.078,118.556 325.136,118.556 C325.194,118.556 325.231,118.597 325.248,118.679 C325.297,118.695 325.331,118.683 325.347,118.642 C325.363,118.601 325.376,118.56 325.384,118.519 C325.392,118.478 325.413,118.454 325.446,118.445 C325.479,118.437 325.545,118.474 325.645,118.556 C325.777,118.588 325.922,118.584 326.079,118.543 C326.236,118.503 326.347,118.564 326.414,118.728 C326.579,118.744 326.732,118.793 326.873,118.875 C327.013,118.957 327.15,119.039 327.282,119.121 C327.381,119.154 327.476,119.182 327.567,119.207 C327.658,119.231 327.737,119.285 327.803,119.367 C327.902,119.481 328.026,119.567 328.175,119.624 C328.324,119.682 328.423,119.792 328.473,119.956 C328.754,120.235 328.985,120.55 329.167,120.902 C329.349,121.254 329.456,121.619 329.49,121.995 Z M326.513,125.484 C326.48,125.353 326.5,125.235 326.575,125.128 C326.649,125.022 326.654,124.903 326.587,124.772 C326.604,124.69 326.579,124.649 326.513,124.649 C326.447,124.649 326.397,124.665 326.364,124.698 C326.182,124.731 326.009,124.796 325.843,124.895 C325.678,124.993 325.521,125.099 325.372,125.214 C325.339,125.362 325.252,125.464 325.111,125.521 C324.971,125.578 324.851,125.656 324.752,125.755 C324.57,125.984 324.396,126.217 324.231,126.455 C324.065,126.692 323.925,126.95 323.809,127.229 C323.677,127.425 323.631,127.634 323.673,127.855 C323.714,128.076 323.743,128.293 323.759,128.506 C323.759,128.637 323.793,128.752 323.859,128.85 C323.925,128.948 324.012,129.035 324.119,129.108 C324.227,129.182 324.342,129.243 324.466,129.293 C324.59,129.342 324.71,129.375 324.826,129.391 C324.942,129.342 325.053,129.293 325.161,129.243 C325.268,129.194 325.38,129.162 325.496,129.145 C325.579,129.112 325.657,129.104 325.731,129.121 C325.806,129.137 325.868,129.104 325.918,129.022 C325.951,128.826 325.988,128.629 326.029,128.433 C326.07,128.236 326.099,128.039 326.116,127.843 C326.232,127.45 326.306,127.053 326.339,126.651 C326.372,126.25 326.43,125.861 326.513,125.484 Z M332.491,130.496 C332.441,130.333 332.326,130.218 332.144,130.152 C332.111,130.087 332.065,130.034 332.007,129.993 C331.949,129.952 331.887,129.915 331.821,129.882 C331.689,129.653 331.565,129.415 331.449,129.17 C331.333,128.924 331.226,128.678 331.127,128.433 C331.061,128.285 331.027,128.13 331.027,127.966 C331.027,127.802 330.986,127.647 330.904,127.499 C330.87,127.008 330.829,126.512 330.779,126.013 C330.73,125.513 330.755,125.017 330.854,124.526 C330.936,124.346 330.982,124.162 330.99,123.973 C330.998,123.785 331.011,123.601 331.027,123.42 C331.143,123.371 331.189,123.277 331.164,123.138 C331.139,122.999 331.16,122.888 331.226,122.806 C331.275,122.724 331.321,122.647 331.362,122.573 C331.404,122.499 331.416,122.413 331.4,122.315 C331.433,122.233 331.462,122.151 331.486,122.069 C331.511,121.987 331.54,121.905 331.573,121.824 C331.623,121.692 331.689,121.561 331.772,121.43 C331.854,121.299 331.896,121.152 331.896,120.988 C332.111,120.693 332.297,120.386 332.454,120.067 C332.611,119.747 332.822,119.457 333.086,119.194 C333.153,119.096 333.243,119.018 333.359,118.961 C333.475,118.904 333.533,118.81 333.533,118.679 C333.748,118.597 333.963,118.548 334.178,118.531 C334.393,118.515 334.608,118.49 334.823,118.457 C334.889,118.425 334.968,118.408 335.058,118.408 C335.149,118.408 335.228,118.433 335.294,118.482 C335.426,118.548 335.559,118.593 335.691,118.617 C335.823,118.642 335.955,118.662 336.088,118.679 C336.071,118.777 336.1,118.846 336.175,118.887 C336.249,118.928 336.328,118.973 336.41,119.023 C336.51,119.055 336.592,119.104 336.658,119.17 C336.724,119.236 336.799,119.309 336.881,119.391 C336.898,119.539 336.944,119.674 337.018,119.797 C337.055,119.858 337.419,120.068 337.586,120.353 C337.756,120.644 337.728,121.01 337.761,121.072 C337.827,121.195 337.885,121.322 337.935,121.453 C337.984,121.584 338.001,121.724 337.984,121.871 C338.018,121.985 337.984,122.08 337.885,122.154 C337.786,122.227 337.774,122.31 337.836,122.412 C337.874,122.474 337.86,122.53 337.811,122.571 C337.761,122.612 337.72,122.649 337.687,122.682 C337.72,122.862 337.683,123.013 337.575,123.136 C337.468,123.259 337.356,123.378 337.24,123.492 C336.876,123.689 336.517,123.882 336.161,124.07 C335.806,124.258 334.88,123.445 334.451,123.445 C334.335,123.445 334.261,123.494 334.227,123.592 C334.194,123.691 334.153,123.781 334.103,123.863 C333.954,124.01 333.872,124.19 333.855,124.403 C333.839,124.616 333.797,124.813 333.731,124.993 C333.649,125.222 333.595,125.452 333.57,125.681 C333.545,125.91 333.492,126.139 333.409,126.369 C333.425,126.647 333.425,126.917 333.409,127.18 C333.392,127.442 333.417,127.704 333.483,127.966 C333.483,128.392 333.599,128.785 333.831,129.145 C333.93,129.276 334.054,129.37 334.202,129.428 C334.351,129.485 334.475,129.571 334.575,129.686 C334.69,129.718 334.81,129.763 334.934,129.821 C335.058,129.878 335.162,129.841 335.244,129.71 C335.41,129.579 335.592,129.473 335.79,129.391 C335.989,129.309 336.187,129.301 336.385,129.366 C336.518,129.514 336.629,129.682 336.72,129.87 C336.811,130.058 336.84,130.251 336.807,130.447 C336.642,130.611 336.46,130.767 336.262,130.914 L336.212,130.963 C336.195,130.98 336.171,130.996 336.137,131.012 C336.071,131.045 336.022,131.078 335.989,131.111 C335.873,131.127 335.765,131.135 335.666,131.135 C335.567,131.135 335.468,131.111 335.368,131.061 C335.319,131.127 335.29,131.205 335.282,131.295 C335.273,131.385 335.178,131.389 334.996,131.307 C334.93,131.307 334.877,131.328 334.835,131.369 C334.794,131.41 334.748,131.438 334.699,131.455 C334.5,131.422 334.306,131.385 334.116,131.344 C333.926,131.303 333.74,131.275 333.558,131.258 C333.492,131.16 333.409,131.082 333.31,131.025 C333.21,130.967 333.111,130.914 333.012,130.865 C332.913,130.816 332.817,130.763 332.727,130.705 C332.636,130.648 332.557,130.578 332.491,130.496 Z M335.344,121.307 C335.129,121.521 334.988,121.75 334.922,121.995 C335.008,122.004 335.041,122.373 335.247,122.581 C335.438,122.775 335.803,122.811 335.851,122.755 C335.95,122.641 336.058,122.542 336.174,122.461 C336.256,122.33 336.335,122.194 336.409,122.055 C336.484,121.916 336.524,121.764 336.546,121.601 C336.557,121.518 336.575,121.433 336.583,121.343 C336.587,121.296 336.547,120.951 336.389,120.685 C336.243,120.438 335.979,120.267 335.939,120.251 C335.856,120.448 335.757,120.628 335.641,120.792 C335.526,120.955 335.426,121.127 335.344,121.307 Z M339.039,118.531 C339.354,118.498 339.668,118.498 339.982,118.531 C340.296,118.564 340.619,118.58 340.95,118.58 C341.131,118.76 341.334,118.916 341.557,119.047 C341.781,119.178 341.934,119.375 342.016,119.637 C342.066,120.358 342.091,121.07 342.091,121.774 C342.091,122.479 342.025,123.183 341.892,123.887 C341.76,124.625 341.698,125.366 341.706,126.111 C341.715,126.856 341.661,127.597 341.545,128.334 C341.71,128.302 341.905,128.285 342.128,128.285 C342.351,128.285 342.55,128.265 342.723,128.224 C342.897,128.183 343.021,128.093 343.095,127.954 C343.17,127.814 343.141,127.589 343.009,127.278 C343.058,125.853 343.157,124.448 343.306,123.064 C343.455,121.68 343.596,120.284 343.728,118.875 C344.108,118.891 344.489,118.896 344.869,118.887 C345.249,118.879 345.613,118.957 345.96,119.121 C346.06,119.268 346.171,119.412 346.295,119.551 C346.419,119.69 346.527,119.833 346.618,119.981 C346.709,120.128 346.771,120.288 346.804,120.46 C346.837,120.632 346.82,120.824 346.754,121.037 C346.655,122.249 346.506,123.461 346.308,124.674 C346.109,125.886 346.026,127.106 346.06,128.334 C346.175,128.334 346.308,128.338 346.456,128.347 C346.605,128.355 346.729,128.338 346.829,128.297 C346.928,128.257 346.982,128.175 346.99,128.052 C346.998,127.929 346.928,127.728 346.779,127.45 C346.895,126.107 346.977,124.768 347.027,123.433 C347.077,122.098 347.242,120.767 347.523,119.44 C347.705,119.489 347.895,119.489 348.094,119.44 C348.292,119.391 348.495,119.342 348.701,119.293 C348.908,119.244 349.106,119.219 349.297,119.219 C349.487,119.219 349.656,119.293 349.805,119.44 C349.904,119.571 350.016,119.686 350.14,119.784 C350.264,119.882 350.372,119.993 350.463,120.116 C350.554,120.239 350.611,120.37 350.636,120.509 C350.661,120.648 350.624,120.816 350.525,121.013 C350.392,122.372 350.243,123.719 350.078,125.054 C349.913,126.389 349.797,127.745 349.731,129.121 C349.731,129.301 349.714,129.501 349.681,129.723 C349.648,129.944 349.582,130.144 349.483,130.324 C349.383,130.505 349.247,130.64 349.073,130.73 C348.9,130.82 348.681,130.816 348.416,130.718 C348.284,130.8 348.098,130.902 347.858,131.025 C347.618,131.148 347.432,131.25 347.3,131.332 C346.787,131.152 346.27,131.045 345.749,131.012 C345.229,130.98 344.703,130.98 344.174,131.012 C343.645,131.045 343.112,131.103 342.574,131.184 C342.037,131.266 341.512,131.332 340.999,131.381 C340.768,131.463 340.557,131.479 340.367,131.43 C340.177,131.381 339.999,131.303 339.833,131.197 C339.668,131.09 339.507,130.963 339.35,130.816 C339.193,130.669 339.031,130.546 338.866,130.447 C338.634,129.809 338.511,129.166 338.494,128.518 C338.477,127.872 338.506,127.22 338.581,126.565 C338.655,125.91 338.73,125.255 338.804,124.6 C338.878,123.944 338.891,123.289 338.841,122.634 C338.924,121.946 338.978,121.262 339.002,120.583 C339.027,119.903 339.039,119.219 339.039,118.531 Z M352.038,118.556 C352.451,118.588 352.86,118.634 353.265,118.691 C353.671,118.748 354.047,118.9 354.394,119.145 C354.626,119.424 354.746,119.739 354.754,120.091 C354.762,120.443 354.783,120.792 354.816,121.136 C355.014,120.972 355.229,120.841 355.461,120.742 C355.692,120.644 355.936,120.57 356.193,120.521 C356.449,120.472 356.705,120.431 356.962,120.398 C357.218,120.366 357.47,120.333 357.718,120.3 C358.099,120.415 358.458,120.558 358.797,120.73 C359.136,120.902 359.463,121.103 359.777,121.332 C360.058,121.643 360.273,121.983 360.422,122.352 C360.571,122.72 360.678,123.105 360.744,123.507 C360.81,123.908 360.844,124.313 360.844,124.723 C360.844,125.132 360.844,125.533 360.844,125.926 C360.794,126.254 360.753,126.59 360.719,126.934 C360.687,127.278 360.645,127.618 360.596,127.954 C360.546,128.289 360.471,128.617 360.372,128.936 C360.273,129.256 360.141,129.563 359.975,129.858 C359.827,130.071 359.653,130.275 359.455,130.472 C359.256,130.669 359.037,130.832 358.797,130.963 C358.557,131.094 358.305,131.188 358.041,131.246 C357.776,131.303 357.503,131.291 357.222,131.209 C356.776,131.078 356.329,130.881 355.882,130.619 C355.436,130.357 355.13,129.989 354.965,129.514 C355.014,129.317 355.105,129.19 355.238,129.133 C355.37,129.075 355.514,129.047 355.672,129.047 C355.829,129.047 355.994,129.063 356.168,129.096 C356.341,129.129 356.503,129.145 356.651,129.145 C356.883,128.948 357.048,128.719 357.147,128.457 C357.247,128.195 357.317,127.921 357.358,127.634 C357.4,127.347 357.429,127.061 357.445,126.774 C357.462,126.487 357.495,126.205 357.544,125.926 C357.544,125.615 357.553,125.3 357.569,124.981 C357.586,124.661 357.594,124.346 357.594,124.035 C357.594,123.723 357.565,123.412 357.507,123.101 C357.449,122.79 357.338,122.495 357.172,122.216 C356.99,122.184 356.805,122.139 356.614,122.082 C356.424,122.024 356.23,122.004 356.031,122.02 C355.932,122.102 355.853,122.196 355.796,122.303 C355.738,122.409 355.684,122.52 355.634,122.634 C355.585,122.749 355.527,122.859 355.461,122.966 C355.395,123.072 355.295,123.158 355.163,123.224 C355.031,123.289 354.927,123.38 354.853,123.494 C354.779,123.609 354.729,123.736 354.704,123.875 C354.679,124.014 354.663,124.162 354.655,124.317 C354.646,124.473 354.642,124.608 354.642,124.723 C354.659,125.705 354.618,126.68 354.518,127.647 C354.419,128.613 354.394,129.579 354.444,130.546 C354.394,130.791 354.279,130.972 354.097,131.086 C353.915,131.201 353.704,131.262 353.464,131.27 C353.224,131.279 352.98,131.258 352.732,131.209 C352.484,131.16 352.269,131.094 352.087,131.012 C352.005,130.881 351.939,130.742 351.889,130.595 C351.839,130.447 351.798,130.3 351.765,130.152 C351.682,129.186 351.649,128.22 351.666,127.253 C351.682,126.287 351.715,125.32 351.765,124.354 C351.814,123.388 351.868,122.421 351.926,121.455 C351.984,120.488 352.021,119.522 352.038,118.556 L352.038,118.556 Z" id="Fill-10" fill="#DE4C2B"></path>
        </g>
    </g>
</svg>