<svg xmlns="http://www.w3.org/2000/svg" width="12" height="12" viewBox="0 0 12 12">
    <path fill="#000" fill-rule="nonzero" d="M6 .75A5.256 5.256 0 0 1 11.25 6 5.256 5.256 0 0 1 6 11.25 5.256 5.256 0 0 1 .75 6 5.256 5.256 0 0 1 6 .75zM6 0a6 6 0 1 0 0 12A6 6 0 0 0 6 0zm3.345 8.006l-.034-.102a.95.95 0 0 0-.58-.548l-.887-.243a.869.869 0 0 0-.76.2l-.32.32a3.407 3.407 0 0 1-2.396-2.396l.321-.321a.87.87 0 0 0 .198-.76l-.241-.886a.95.95 0 0 0-.549-.58l-.1-.034a.803.803 0 0 0-.75.177l-.481.48c-.086.085-.141.33-.141.33a5.67 5.67 0 0 0 5.718 5.731c.008 0 .26-.053.345-.139l.48-.48a.803.803 0 0 0 .177-.749z"/>
</svg>
