<svg xmlns="http://www.w3.org/2000/svg" width="32" height="32" viewBox="0 0 32 32">
    <g fill="none" fill-rule="evenodd">
        <path d="M0 0h32v32H0z"/>
        <path class="star-border" fill="#1D1D1D" fill-opacity=".38" fill-rule="nonzero" d="M26.2 12.053l-6.453-.56-2.52-5.933c-.454-1.08-2-1.08-2.454 0l-2.52 5.947-6.44.546c-1.173.094-1.653 1.56-.76 2.334l4.894 4.24L8.48 24.92c-.267 1.147.973 2.053 1.987 1.44L16 23.027l5.533 3.346c1.014.614 2.254-.293 1.987-1.44l-1.467-6.306 4.894-4.24c.893-.774.426-2.24-.747-2.334zM16 20.533l-5.013 3.027 1.333-5.707-4.427-3.84 5.84-.506L16 8.133l2.28 5.387 5.84.507-4.427 3.84 1.334 5.706L16 20.533z"/>
    </g>
</svg>
