<svg xmlns="http://www.w3.org/2000/svg" width="56" height="56" viewBox="0 0 56 56">
    <g fill="none" fill-rule="evenodd">
        <circle cx="28" cy="28" r="28" fill="#E30613"/>
        <g fill="#FAFAF9">
            <path d="M30.078 12.807a4.2 4.2 0 0 1 0 2.28.662.662 0 0 1-.456.457c-.736.21-1.543.21-2.279 0a.662.662 0 0 1-.456-.456 4.2 4.2 0 0 1 0-2.281c.07-.21.21-.386.456-.456a4.192 4.192 0 0 1 2.28 0c.245.07.385.245.455.456zm-13.746 6a3.775 3.775 0 0 1 1.928 1.158c.14.175.21.386.14.596a3.778 3.778 0 0 1-1.157 1.93c-.175.14-.385.21-.596.14a3.775 3.775 0 0 1-1.929-1.157c-.14-.176-.21-.386-.14-.597a3.778 3.778 0 0 1 1.157-1.93c.14-.14.386-.175.597-.14zM22.398 14a3.967 3.967 0 0 1 1.123 1.965c.035.21 0 .456-.176.596a3.964 3.964 0 0 1-1.964 1.123c-.21.035-.456 0-.596-.175a3.967 3.967 0 0 1-1.122-1.965c-.035-.21 0-.456.175-.597a3.964 3.964 0 0 1 1.964-1.122c.246-.036.456.035.596.175zm19.884 7.509c-.526.561-1.192.982-1.929 1.158-.21.07-.455 0-.596-.14-.56-.527-.982-1.194-1.157-1.93-.07-.211 0-.457.14-.597.526-.561 1.193-.982 1.929-1.158.21-.07.456 0 .596.14.561.527.982 1.193 1.157 1.93.07.21.036.421-.14.597zm-4.944-5.965a3.967 3.967 0 0 1-1.123 1.965.756.756 0 0 1-.596.175 3.964 3.964 0 0 1-1.964-1.123.757.757 0 0 1-.175-.596A3.967 3.967 0 0 1 34.602 14a.756.756 0 0 1 .596-.175 3.964 3.964 0 0 1 1.964 1.122c.14.176.21.386.176.597zM29.342 31.79c1.297-1.965 2.21-4.211 2.525-6.667 0-.105.07-.176.14-.21a.216.216 0 0 1 .246.034 9.71 9.71 0 0 0 3.05 1.58c.14.034.246.175.211.35a19.293 19.293 0 0 1-3.367 7.65c-.035.07-.14.105-.21.14-.105 0-.175 0-.245-.07-.877-.667-1.649-1.474-2.35-2.316-.07-.14-.105-.316 0-.492zM28.255 38.21a19.779 19.779 0 0 1-6.803-11.333c-.036-.14.07-.28.21-.35a9.71 9.71 0 0 0 3.05-1.58c.071-.07.176-.07.246-.035s.14.106.14.21a15.767 15.767 0 0 0 5.927 10.317c.07.07.105.14.105.21 0 .105 0 .176-.07.246a20.904 20.904 0 0 1-2.35 2.316c-.105.14-.315.14-.455 0zM42.633 28.35a2.719 2.719 0 0 0 1.332-2.771c0-.07-.07-.14-.14-.175a.216.216 0 0 0-.245.035 9.804 9.804 0 0 1-6.628 1.473c-.14-.035-.28.07-.316.246a21.308 21.308 0 0 1-1.648 4.912.3.3 0 0 0 0 .246c.035.07.105.14.175.175 1.859.807 3.893 1.298 5.997 1.334.14 0 .28-.07.35-.211.667-1.65 1.088-3.403 1.123-5.263z"/>
            <path d="M31.446 24.21c.736-.105 7.435-1.298 5.05-3.192a19.493 19.493 0 0 0-6.874-3.58 4.192 4.192 0 0 0-2.279 0 19.797 19.797 0 0 0-6.873 3.58c-2.385 1.93 4.313 3.087 5.05 3.193.525 1.438 1.613 3.403 2.945 3.403 1.368 0 2.49-1.965 2.981-3.403zM15.525 33.579a13.89 13.89 0 0 1-1.157-5.263c-.982-.562-1.473-1.684-1.298-2.772 0-.07.07-.14.14-.176a.216.216 0 0 1 .246.036c1.964 1.298 4.313 1.789 6.628 1.473.14-.035.28.07.315.246.351 1.72.912 3.368 1.649 4.912a.3.3 0 0 1 0 .246.423.423 0 0 1-.176.175c-1.858.807-3.892 1.298-5.996 1.333-.14.036-.28-.07-.351-.21zM35.233 42.07a15.366 15.366 0 0 1-6.698 1.509c-.385 0-.771 0-1.157-.035-.07 0-.14-.035-.21-.105-.035-.07-.07-.14-.035-.21a9.114 9.114 0 0 1 8.837-6.808c1.788 0 2.665.842 2.665 1.965 0 1.403-1.122 2.596-3.402 3.684zM21.802 42.07c1.193.562 2.49 1.018 3.858 1.263.175.035.315-.07.35-.245a10.659 10.659 0 0 1 1.614-3.51c.105-.14.105-.35-.036-.455a9.106 9.106 0 0 0-6.522-2.737c-1.789 0-2.665.842-2.665 1.965-.036 1.438 1.087 2.631 3.401 3.72z"/>
        </g>
    </g>
</svg>
