<svg xmlns="http://www.w3.org/2000/svg" xmlns:xlink="http://www.w3.org/1999/xlink" width="42" height="51" viewBox="0 0 42 51">
    <defs>
        <path id="a" d="M10.698 16.025l1.057-.364a95.112 95.112 0 0 1 13.436-3.548l1.15-.215c1.373-.363 3.8.92 4.182 2.325.367 1.351-.441 3.343-1.868 3.72l-2.283.256a45.167 45.167 0 0 0-12.462 3.245l-2.942 1.237c-1.372.362-2.487-1.173-2.869-2.578-.368-1.351 1.227-3.716 2.6-4.078z"/>
        <filter id="b" width="117.7%" height="136.7%" x="-8.9%" y="-18.4%" filterUnits="objectBoundingBox">
            <feGaussianBlur in="SourceAlpha" result="shadowBlurInner1" stdDeviation="2"/>
            <feOffset in="shadowBlurInner1" result="shadowOffsetInner1"/>
            <feComposite in="shadowOffsetInner1" in2="SourceAlpha" k2="-1" k3="1" operator="arithmetic" result="shadowInnerInner1"/>
            <feColorMatrix in="shadowInnerInner1" values="0 0 0 0 0 0 0 0 0 0 0 0 0 0 0 0 0 0 0.198344624 0"/>
        </filter>
        <path id="c" d="M3.874 11.917c-1.576.416-3.197-.505-3.62-2.057-.422-1.552.514-3.148 2.09-3.564 1.577-.416 3.197.506 3.62 2.058.422 1.552-.514 3.147-2.09 3.563z"/>
        <filter id="d" width="167.7%" height="168.7%" x="-33.8%" y="-34.4%" filterUnits="objectBoundingBox">
            <feGaussianBlur in="SourceAlpha" result="shadowBlurInner1" stdDeviation="2"/>
            <feOffset in="shadowBlurInner1" result="shadowOffsetInner1"/>
            <feComposite in="shadowOffsetInner1" in2="SourceAlpha" k2="-1" k3="1" operator="arithmetic" result="shadowInnerInner1"/>
            <feColorMatrix in="shadowInnerInner1" values="0 0 0 0 0 0 0 0 0 0 0 0 0 0 0 0 0 0 0.206430288 0"/>
        </filter>
    </defs>
    <g fill="none" fill-rule="evenodd">
        <g transform="translate(7 17)">
            <ellipse cx="17.14" cy="17" fill="#EC1C24" rx="17.14" ry="17"/>
            <g fill="#FAFAF9">
                <path d="M18.864 4.228c.18.626.18 1.312 0 1.938a.564.564 0 0 1-.39.388 3.594 3.594 0 0 1-1.945 0 .564.564 0 0 1-.39-.388 3.555 3.555 0 0 1 0-1.938.564.564 0 0 1 .39-.388 3.594 3.594 0 0 1 1.946 0c.21.06.33.209.39.388zM7.13 9.328c.629.149 1.227.507 1.647.984.12.149.18.328.12.507a3.209 3.209 0 0 1-.989 1.64c-.15.12-.329.18-.509.12a3.225 3.225 0 0 1-1.646-.985c-.12-.149-.18-.328-.12-.507.15-.626.51-1.223.988-1.64.12-.12.33-.15.509-.12zm5.179-4.086c.479.447.808 1.044.958 1.67.03.179 0 .388-.15.507a3.387 3.387 0 0 1-1.676.954c-.18.03-.39 0-.51-.149a3.368 3.368 0 0 1-.957-1.67c-.03-.179 0-.388.15-.507a3.387 3.387 0 0 1 1.676-.954c.21-.03.39.03.509.149zm16.974 6.382c-.449.477-1.018.835-1.646.984a.52.52 0 0 1-.51-.119c-.478-.447-.838-1.014-.987-1.64a.515.515 0 0 1 .12-.507c.448-.478 1.017-.835 1.646-.985.18-.06.39 0 .509.12.479.447.838 1.014.988 1.64.06.18.03.358-.12.507zm-4.221-5.07a3.368 3.368 0 0 1-.958 1.67.647.647 0 0 1-.509.15 3.387 3.387 0 0 1-1.676-.955.641.641 0 0 1-.15-.507c.15-.626.479-1.223.958-1.67.15-.12.33-.18.509-.15.629.15 1.227.478 1.676.955.12.15.18.328.15.507zM18.235 20.363c1.108-1.67 1.886-3.58 2.156-5.667 0-.09.06-.15.12-.179.06-.03.15-.03.21.03a8.302 8.302 0 0 0 2.604 1.342c.12.03.21.15.18.298a16.364 16.364 0 0 1-2.875 6.502c-.03.06-.12.09-.18.12-.09 0-.149 0-.209-.06-.748-.567-1.407-1.253-2.006-1.969-.06-.119-.09-.268 0-.417zM17.307 25.82a16.8 16.8 0 0 1-5.807-9.633c-.03-.119.06-.238.18-.298a8.302 8.302 0 0 0 2.604-1.342c.06-.06.15-.06.21-.03s.12.09.12.18a13.39 13.39 0 0 0 5.058 8.767c.06.06.09.12.09.18 0 .089 0 .149-.06.208a17.809 17.809 0 0 1-2.005 1.969c-.09.119-.27.119-.39 0zM29.581 17.44a2.308 2.308 0 0 0 1.138-2.356c0-.06-.06-.12-.12-.15a.185.185 0 0 0-.21.03 8.398 8.398 0 0 1-5.657 1.253c-.12-.03-.24.06-.27.209a18.059 18.059 0 0 1-1.407 4.175c-.03.06-.03.15 0 .21.03.059.09.118.15.148 1.587.686 3.323 1.104 5.12 1.134.119 0 .239-.06.298-.18.57-1.401.928-2.892.958-4.473z"/>
                <path d="M20.032 13.92c.628-.089 6.346-1.103 4.31-2.713a16.665 16.665 0 0 0-5.867-3.043 3.594 3.594 0 0 0-1.946 0 16.925 16.925 0 0 0-5.867 3.043c-2.036 1.64 3.682 2.624 4.31 2.714.45 1.222 1.377 2.893 2.515 2.893 1.168 0 2.126-1.67 2.545-2.893zM6.44 21.884a11.763 11.763 0 0 1-.987-4.474c-.839-.477-1.258-1.431-1.108-2.356 0-.06.06-.12.12-.15.06-.029.15-.029.21.03 1.676 1.104 3.681 1.522 5.657 1.253.12-.03.24.06.27.21.299 1.46.778 2.862 1.407 4.174.03.06.03.15 0 .21a.36.36 0 0 1-.15.148c-1.587.686-3.323 1.104-5.12 1.134-.119.03-.239-.06-.299-.18zM23.265 29.101a13.164 13.164 0 0 1-5.718 1.283c-.33 0-.659 0-.988-.03-.06 0-.12-.03-.18-.09-.03-.06-.06-.119-.03-.178.869-3.34 3.922-5.786 7.544-5.786 1.527 0 2.276.715 2.276 1.67 0 1.193-.958 2.207-2.904 3.131zM11.8 29.101c1.017.478 2.125.865 3.292 1.074.15.03.27-.06.3-.209a9.042 9.042 0 0 1 1.377-2.982c.09-.12.09-.298-.03-.388a7.79 7.79 0 0 0-5.569-2.326c-1.526 0-2.275.716-2.275 1.67-.03 1.223.928 2.237 2.904 3.161z"/>
            </g>
        </g>
        <g fill-rule="nonzero">
            <path fill="#EC1C24" d="M3.88 8.266C5.714 5.06 7.94 3.082 9.41 1.999c1.171-.888 2.54-1.48 3.985-1.572 8.217-.72 13.782 11.945 13.782 11.945l-16.906 4.46s-1.14-.51-.134-4.598c0 0 2.077-5.124-.62-4.876 0 0-2.903.36-5.558 2.277l-.079-1.37z"/>
            <path fill="#231F20" d="M26.121 11.087l.384-.101c.4.821.657 1.333.657 1.333l-16.906 4.46s-.403-.183-.532-1.308c.205-.112.464-.238.739-.31l7.753-2.359 7.89-1.769.015.054z" opacity=".1"/>
            <g>
                <use fill="#FFF" xlink:href="#a"/>
                <use fill="#000" filter="url(#b)" xlink:href="#a"/>
            </g>
            <path fill="#231F20" d="M3.889 8.298c.424-.82.933-1.545 1.402-2.2.658.476 1.212 1.215 1.437 2.04-.848.342-1.831.838-2.754 1.553l-.085-1.393z" opacity=".1"/>
            <g>
                <use fill="#FFF" xlink:href="#c"/>
                <use fill="#000" filter="url(#d)" xlink:href="#c"/>
            </g>
            <path fill="#FFF" d="M1.868 9.086a.854.854 0 0 1-1.044-.593.838.838 0 0 1 .603-1.028.854.854 0 0 1 1.044.593.838.838 0 0 1-.603 1.028z"/>
        </g>
    </g>
</svg>
