<svg xmlns="http://www.w3.org/2000/svg" width="32" height="32" viewBox="0 0 32 32">
    <g fill="none" fill-rule="nonzero">
        <path fill="none" d="M0 0h32v32H0z"/>
        <path fill="#1D1D1D" d="M16 14a3 3 0 1 0 0-6 3 3 0 0 0 0 6zm0 2a5 5 0 1 1 0-10 5 5 0 0 1 0 10zM8.028 22.026A2 2 0 0 0 7 23.774V25h18v-1.226a2 2 0 0 0-1.028-1.748C21.542 20.674 18.895 20 16 20c-2.895 0-5.541.674-7.972 2.026zm-.972-1.747C9.786 18.759 12.768 18 16 18c3.232 0 6.214.76 8.944 2.279A4 4 0 0 1 27 23.774V25a2 2 0 0 1-2 2H7a2 2 0 0 1-2-2v-1.226a4 4 0 0 1 2.056-3.495z"/>
    </g>
</svg>
