<svg xmlns="http://www.w3.org/2000/svg" width="32" height="32" viewBox="0 0 32 32">
    <g fill="none" fill-rule="nonzero">
        <path d="M0 0h32v32H0z"/>
        <path d="M4 4h24v24H4z"/>
        <path fill="#1D1D1D" d="M8.691 12.89l-1.333 12A1 1 0 0 0 8.352 26h15.296a1 1 0 0 0 .994-1.11l-1.333-12a1 1 0 0 0-.994-.89H9.685a1 1 0 0 0-.994.89zm.1-2.89H23.21a2 2 0 0 1 1.988 1.78l1.555 14A2 2 0 0 1 24.765 28H7.235a2 2 0 0 1-1.988-2.22l1.555-14A2 2 0 0 1 8.79 10z"/>
        <path fill="#1D1D1D" d="M11 11h2v4a1 1 0 0 1-2 0v-4zM19 11h2v4a1 1 0 0 1-2 0v-4zM13 10h-2a5 5 0 0 1 10 0h-2a3 3 0 0 0-6 0z"/>
    </g>
</svg>
