<svg xmlns="http://www.w3.org/2000/svg" width="40" height="40" viewBox="0 0 40 40">
    <g fill="none" fill-rule="nonzero">
        <path fill="#F0ECEC" d="M20 0C8.954 0 0 8.954 0 20s8.954 20 20 20 20-8.954 20-20A20 20 0 0 0 20 0z"/>
        <g fill="#000">
            <path d="M23.47 29.954h-9.3A2.173 2.173 0 0 1 12 27.785V15.541a2.173 2.173 0 0 1 2.172-2.17h6.1c.197 0 .386.079.526.218l4.623 4.621c.14.14.219.33.219.527v9.048a2.173 2.173 0 0 1-2.17 2.17zm-9.3-15.093a.681.681 0 0 0-.679.68v12.244c0 .375.304.678.679.68h9.3c.375 0 .68-.304.68-.68v-8.74l-4.19-4.184h-5.79z"/>
            <path d="M26.8 26.629h-1.904a.745.745 0 1 1 0-1.49H26.8c.376 0 .68-.304.68-.68V12.215a.682.682 0 0 0-.68-.68h-9.3a.682.682 0 0 0-.678.68v1.901a.745.745 0 0 1-1.492 0v-1.901a2.173 2.173 0 0 1 2.173-2.17H26.8c1.2.002 2.171.972 2.172 2.17v12.244a2.173 2.173 0 0 1-2.172 2.17z"/>
            <path d="M24.896 19.48h-3.2a2.173 2.173 0 0 1-2.173-2.168v-3.196a.745.745 0 0 1 1.491 0v3.196c0 .376.305.68.681.68h3.201a.745.745 0 1 1 0 1.49v-.001z"/>
        </g>
    </g>
</svg>
