<svg xmlns="http://www.w3.org/2000/svg" width="32" height="32" viewBox="0 0 32 32">
    <g fill="#1D1D1D" fill-rule="nonzero">
        <path d="M22.933 29.867H8a.534.534 0 0 0-.533.533v1.067a.534.534 0 0 0 1.066 0v-.534h14.4a.534.534 0 0 0 0-1.066zM11.733 13.333c0 .295.24.534.534.534H14.4a.534.534 0 0 0 .533-.534v-3.2A.534.534 0 0 0 14.4 9.6h-2.133a.534.534 0 0 0-.534.533v3.2zm1.067-2.666h1.067V12.8H12.8v-2.133zM6.933 6.4h-6.4A.534.534 0 0 0 0 6.933V17.6a.534.534 0 0 0 1.067 0V7.467h5.866a.534.534 0 0 0 0-1.067zM25.6 26.133c0 .295.239.534.533.534h2.134a.534.534 0 0 0 .533-.534v-3.2a.534.534 0 0 0-.533-.533h-2.134a.534.534 0 0 0-.533.533v3.2zm1.067-2.666h1.066V25.6h-1.066v-2.133zM2.667 19.2C.03 19.2 0 26.064 0 26.133c0 1.288.918 2.365 2.133 2.613v2.72a.534.534 0 0 0 1.067 0v-2.72a2.671 2.671 0 0 0 2.133-2.613c0-.069-.03-6.933-2.666-6.933zm0 8.533c-.882 0-1.6-.718-1.6-1.6 0-2.657.713-5.866 1.6-5.866.886 0 1.6 3.21 1.6 5.866 0 .882-.718 1.6-1.6 1.6zM5.867 16H3.733a.534.534 0 0 0-.533.533V17.6a.534.534 0 0 0 1.067 0v-.533h1.066v2.666a.534.534 0 0 0 1.067 0v-3.2A.533.533 0 0 0 5.867 16zM26.133 13.867h2.134a.534.534 0 0 0 .533-.534v-3.2a.534.534 0 0 0-.533-.533h-2.134a.534.534 0 0 0-.533.533v3.2c0 .295.239.534.533.534zm.534-3.2h1.066V12.8h-1.066v-2.133z"/>
        <path d="M5.867 9.6H3.733a.534.534 0 0 0-.533.533v3.2c0 .295.239.534.533.534h2.134a.534.534 0 0 0 .533-.534v-3.2a.533.533 0 0 0-.533-.533zm-.534 3.2H4.267v-2.133h1.066V12.8zM17.067 13.333c0 .295.239.534.533.534h2.133a.534.534 0 0 0 .534-.534v-3.2a.534.534 0 0 0-.534-.533H17.6a.534.534 0 0 0-.533.533v3.2zm1.066-2.666H19.2V12.8h-1.067v-2.133zM31.467 6.4h-6.4a.534.534 0 0 0 0 1.067h5.866v21.431a1.579 1.579 0 0 0-.533-.098c-.092 0-.184.008-.274.024a2.118 2.118 0 0 0-1.86-1.09c-.79 0-1.49.427-1.858 1.09a1.602 1.602 0 0 0-1.874 1.576c0 .882.717 1.6 1.6 1.6H30.4c.882 0 1.6-.718 1.6-1.6V6.933a.534.534 0 0 0-.533-.533zM30.4 30.933h-4.267a.534.534 0 0 1 0-1.066c.103 0 .2.029.29.087a.535.535 0 0 0 .808-.328 1.06 1.06 0 0 1 1.036-.826c.497 0 .923.34 1.035.826a.532.532 0 0 0 .809.328c.347-.224.822.05.822.446 0 .294-.24.533-.533.533zM17.6 7.467h2.133a.534.534 0 0 0 .534-.534v-3.2a.534.534 0 0 0-.534-.533H17.6a.534.534 0 0 0-.533.533v3.2c0 .295.239.534.533.534zm.533-3.2H19.2V6.4h-1.067V4.267zM17.067 19.733c0 .295.239.534.533.534h2.133a.534.534 0 0 0 .534-.534v-3.2a.534.534 0 0 0-.534-.533H17.6a.534.534 0 0 0-.533.533v3.2zm1.066-2.666H19.2V19.2h-1.067v-2.133zM12.267 7.467H14.4a.534.534 0 0 0 .533-.534v-3.2A.534.534 0 0 0 14.4 3.2h-2.133a.534.534 0 0 0-.534.533v3.2c0 .295.24.534.534.534zm.533-3.2h1.067V6.4H12.8V4.267zM15.621 25.755a.56.56 0 0 0-.154.378.56.56 0 0 0 .154.38.56.56 0 0 0 .379.154.56.56 0 0 0 .379-.155.56.56 0 0 0 .154-.379.56.56 0 0 0-.154-.378.558.558 0 0 0-.758 0zM11.733 19.733c0 .295.24.534.534.534H14.4a.534.534 0 0 0 .533-.534v-3.2A.534.534 0 0 0 14.4 16h-2.133a.534.534 0 0 0-.534.533v3.2zm1.067-2.666h1.067V19.2H12.8v-2.133z"/>
        <path d="M10.667 22.933c0 .295.239.534.533.534h1.6v4.8a.534.534 0 0 0 1.067 0v-4.8h4.266v4.8a.534.534 0 0 0 1.067 0v-4.8h1.6a.534.534 0 0 0 0-1.067h-9.6a.534.534 0 0 0-.533.533zM25.6 19.733c0 .295.239.534.533.534h2.134a.534.534 0 0 0 .533-.534v-3.2a.534.534 0 0 0-.533-.533h-2.134a.534.534 0 0 0-.533.533v3.2zm1.067-2.666h1.066V19.2h-1.066v-2.133z"/>
        <path d="M22.933 0H9.067a.534.534 0 0 0-.534.533v27.734a.534.534 0 0 0 1.067 0v-27.2h12.8v27.2a.534.534 0 0 0 1.067 0V.533A.533.533 0 0 0 22.933 0z"/>
    </g>
</svg>
