<svg xmlns="http://www.w3.org/2000/svg" width="40" height="40" viewBox="0 0 40 40">
    <g fill="none" fill-rule="evenodd">
        <path fill="#80089D" d="M19.865 0C8.894 0 0 8.903 0 19.886 0 30.868 8.894 39.77 19.865 39.77c10.972 0 19.866-8.903 19.866-19.885a19.896 19.896 0 0 0-5.819-14.062A19.855 19.855 0 0 0 19.865 0z"/>
        <path fill="#FFF" d="M30.15 24.156a7.61 7.61 0 0 1-.481 2.514 5.292 5.292 0 0 1-3.026 3.029 7.588 7.588 0 0 1-2.512.481c-1.103.05-1.456.063-4.266.063s-3.162-.012-4.266-.063a7.588 7.588 0 0 1-2.511-.481 5.292 5.292 0 0 1-3.026-3.029 7.61 7.61 0 0 1-.48-2.514c-.051-1.105-.063-1.458-.063-4.27 0-2.813.012-3.166.062-4.27.017-.86.18-1.71.481-2.515a5.292 5.292 0 0 1 3.026-3.029 7.588 7.588 0 0 1 2.511-.481c1.104-.05 1.456-.062 4.266-.062s3.163.011 4.266.062c.859.017 1.708.18 2.512.481a5.292 5.292 0 0 1 3.026 3.03 7.61 7.61 0 0 1 .48 2.513c.051 1.105.063 1.458.063 4.27 0 2.813-.012 3.166-.062 4.271z"/>
        <path fill="#80089D" d="M27.931 13.777a3.428 3.428 0 0 0-1.964-1.965 5.718 5.718 0 0 0-1.92-.357c-1.092-.05-1.419-.06-4.182-.06-2.762 0-3.09.01-4.18.06a5.718 5.718 0 0 0-1.922.357 3.428 3.428 0 0 0-1.963 1.965 5.735 5.735 0 0 0-.357 1.923c-.05 1.093-.06 1.42-.06 4.186 0 2.765.01 3.093.06 4.185.008.657.129 1.307.357 1.923a3.428 3.428 0 0 0 1.963 1.966 5.718 5.718 0 0 0 1.921.356c1.091.05 1.418.06 4.181.06s3.09-.01 4.181-.06a5.718 5.718 0 0 0 1.921-.356 3.428 3.428 0 0 0 1.964-1.966 5.734 5.734 0 0 0 .356-1.923c.05-1.092.06-1.42.06-4.185 0-2.766-.01-3.093-.06-4.186a5.735 5.735 0 0 0-.356-1.923z"/>
        <path fill="#FFF" d="M19.865 25.204a5.316 5.316 0 0 1-5.313-5.318 5.316 5.316 0 0 1 5.313-5.319 5.321 5.321 0 1 1 3.757 9.08 5.31 5.31 0 0 1-3.757 1.557zm0-1.866a3.45 3.45 0 0 0 3.45-3.452 3.45 3.45 0 0 0-3.45-3.453 3.45 3.45 0 0 0-3.449 3.453 3.45 3.45 0 0 0 3.45 3.452z"/>
        <path fill="#FFF" d="M25.388 15.6a1.242 1.242 0 1 1 .002-2.485 1.242 1.242 0 0 1-.002 2.485z"/>
    </g>
</svg>
