<svg xmlns="http://www.w3.org/2000/svg" width="30" height="30" viewBox="0 0 30 30">
    <g fill="none" fill-rule="evenodd">
        <path fill="#1D1D1D" fill-opacity=".3" fill-rule="nonzero" d="M15 0C6.716 0 0 6.716 0 15c0 8.284 6.716 15 15 15 8.284 0 15-6.716 15-15 0-8.284-6.716-15-15-15z"/>
        <path d="M21.25 6.875h-10v15h10z"/>
        <path fill="#FFF" fill-rule="nonzero" d="M12.786 10.06a.957.957 0 0 1-.031-1.33.903.903 0 0 1 1.298-.033c3.78 3.744 5.674 5.621 5.684 5.632a.989.989 0 0 1-.03 1.375l-5.654 5.598a.903.903 0 0 1-1.298-.03.957.957 0 0 1 .029-1.33l4.686-4.721a.312.312 0 0 0 0-.44l-4.684-4.722z"/>
    </g>
</svg>
