<svg xmlns="http://www.w3.org/2000/svg" width="40" height="40" viewBox="0 0 40 40">
    <g fill="none" fill-rule="evenodd">
        <path fill="#2698D2" d="M20 0C8.954 0 0 8.954 0 20s8.954 20 20 20 20-8.954 20-20S31.046 0 20 0z"/>
        <path fill="#FFF" fill-rule="nonzero" d="M26.48 13.266C24.826 11.756 22.771 11 20.317 11c-2.58 0-4.78.858-6.594 2.577C11.909 15.297 11 17.434 11 19.993c0 2.452.865 4.56 2.591 6.327 1.733 1.767 4.062 2.65 6.993 2.65 1.767 0 3.5-.359 5.2-1.08.555-.235.825-.866.6-1.42a1.108 1.108 0 0 0-1.464-.593c-1.479.63-2.928.945-4.34.945-2.247 0-3.988-.678-5.222-2.038-1.231-1.356-1.848-2.951-1.848-4.78 0-1.987.661-3.644 1.98-4.975 1.317-1.327 2.94-1.994 4.861-1.994 1.77 0 3.267.546 4.487 1.638 1.22 1.093 1.83 2.468 1.83 4.125 0 1.132-.281 2.078-.84 2.83-.557.755-1.138 1.129-1.74 1.129-.325 0-.488-.172-.488-.52 0-.283.022-.613.063-.994l.687-5.576h-2.365l-.152.546c-.602-.488-1.264-.733-1.98-.733-1.14 0-2.115.45-2.924 1.349-.814.898-1.216 2.057-1.216 3.472 0 1.382.358 2.5 1.079 3.347.72.85 1.585 1.272 2.598 1.272.906 0 1.678-.378 2.321-1.13.484.723 1.198 1.082 2.14 1.082 1.386 0 2.584-.597 3.593-1.796 1.009-1.195 1.515-2.64 1.515-4.33 0-2.14-.824-3.97-2.48-5.48zM21.03 21.7c-.417.557-.916.84-1.497.84-.395 0-.713-.206-.953-.616-.244-.41-.366-.92-.366-1.533 0-.755.17-1.363.51-1.825.34-.462.761-.697 1.264-.697.436 0 .824.172 1.164.52.34.349.51.81.51 1.39a3.156 3.156 0 0 1-.632 1.921z"/>
    </g>
</svg>
