<svg width="24" height="24" viewBox="0 0 24 24" fill="none" xmlns="http://www.w3.org/2000/svg">
<rect width="24" height="24" fill="#D8D8D8" fill-opacity="0.01"/>
<path d="M12 20.8L9.41181 21.6593L7.6 19.621L4.92893 19.0711L4.37898 16.4L2.34074 14.5882L3.2 12L2.34074 9.41181L4.37898 7.6L4.92893 4.92893L7.6 4.37898L9.41181 2.34074L12 3.2L14.5882 2.34074L16.4 4.37898L19.0711 4.92893L19.621 7.6L21.6593 9.41181L20.8 12L21.6593 14.5882L19.621 16.4L19.0711 19.0711L16.4 19.621L14.5882 21.6593L12 20.8Z" stroke="#E30613" stroke-width="1.5"/>
<rect x="15.4624" y="7.22705" width="1.5" height="12" rx="0.75" transform="rotate(45 15.4624 7.22705)" fill="#E30613"/>
<path d="M10 10C10.5523 10 11 9.55228 11 9C11 8.44772 10.5523 8 10 8C9.44772 8 9 8.44772 9 9C9 9.55228 9.44772 10 10 10Z" fill="#E30613"/>
<path d="M14 16C14.5523 16 15 15.5523 15 15C15 14.4477 14.5523 14 14 14C13.4477 14 13 14.4477 13 15C13 15.5523 13.4477 16 14 16Z" fill="#E30613"/>
</svg>
