<svg xmlns="http://www.w3.org/2000/svg" width="24" height="24" viewBox="0 0 24 24">
    <g fill="none" fill-rule="nonzero">
        <path d="M0 0h24v24H0z"/>
        <path fill="#1D1D1D" fill-opacity=".24" d="M12 18.65c5.4-3.427 7.979-6.678 8-9.615C20 6.79 18.21 5 16 5c-1 0-1.937.365-2.666 1.018L12 7.212l-1.334-1.194A4 4 0 0 0 4 9c.021 2.972 2.6 6.223 8 9.65zM8 3c1.537 0 2.938.578 4 1.528A6 6 0 0 1 22 9c-.029 4.034-3.362 8.017-10 12-6.638-3.983-9.971-7.966-10-11.949C2 5.686 4.686 3 8 3z"/>
    </g>
</svg>
