<?xml version="1.0" encoding="UTF-8"?>
<svg width="24px" height="24px" viewBox="0 0 24 24" version="1.1" xmlns="http://www.w3.org/2000/svg" xmlns:xlink="http://www.w3.org/1999/xlink">
    <!-- Generator: sketchtool 54.1 (76490) - https://sketchapp.com -->
    <title>FF47917F-3C61-4AAE-96E3-15C51307B860</title>
    <desc>Created with sketchtool.</desc>
    <g id="Symbols" stroke="none" stroke-width="1" fill="none" fill-rule="evenodd">
        <g id="icons/ic_heart_outlined_24-black" fill-rule="nonzero">
            <g id="icons/ic_heart_outlined_24">
                <rect id="Rectangle-9" x="0" y="0" width="24" height="24"></rect>
                <path d="M11.9999996,18.6502664 C17.3999016,15.2226995 19.9789328,11.9721933 19.9998552,9.03457392 C20,6.790861 18.209139,5 16,5 C15.0004624,5 14.0630545,5.36538095 13.3338276,6.01805676 L12,7.21186477 L10.6661724,6.01805676 C9.93694545,5.36538095 8.99953756,5 8,5 C5.790861,5 4,6.790861 4,9 C4.02105986,11.972336 6.60010054,15.2227091 11.9999996,18.6502664 Z M8,3 C9.53670887,3 10.938487,3.57770714 12,4.52778699 C13.061513,3.57770714 14.4632911,3 16,3 C19.3137085,3 22,5.6862915 22,9 C21.97142,13.0342228 18.6381476,17.0171114 12,21 C5.36185236,17.0171114 2.02858003,13.0342228 2.000183,9.05133425 C2,5.6862915 4.6862915,3 8,3 Z" id="Combined-Shape" fill="#1D1D1D"></path>
            </g>
        </g>
    </g>
</svg>