<svg xmlns="http://www.w3.org/2000/svg" width="32" height="32" viewBox="0 0 32 32">
    <g fill="none" fill-rule="nonzero">
        <path d="M0 0h32v32H0z"/>
        <path fill="#1D1D1D" fill-opacity=".2" d="M21 8h4a1 1 0 0 1 0 2h-1v16a2 2 0 0 1-2 2H10a2 2 0 0 1-2-2V10H7a1 1 0 1 1 0-2h5V6a2 2 0 0 1 2-2h5a2 2 0 0 1 2 2v2zm1 2H10v15a1 1 0 0 0 1 1h10a1 1 0 0 0 1-1V10zm-8-4v2h5V6h-5z"/>
        <rect width="2" height="12" x="15" y="12" fill="#1D1D1D" fill-opacity=".2" rx="1"/>
        <rect width="2" height="12" x="18" y="12" fill="#1D1D1D" fill-opacity=".2" rx="1"/>
        <rect width="2" height="12" x="12" y="12" fill="#1D1D1D" fill-opacity=".2" rx="1"/>
    </g>
</svg>
