<svg xmlns="http://www.w3.org/2000/svg" width="24" height="24" viewBox="0 0 24 24">
    <g fill="#1D1D1D" fill-opacity=".3" fill-rule="nonzero">
        <path d="M12.111 4.135c-.859 0-1.555.666-1.555 1.488s.696 1.489 1.555 1.489c.86 0 1.556-.667 1.556-1.489 0-.822-.697-1.488-1.556-1.488zM10.434 7.856c-.417.02-.79.252-.98.608-.19.356-.167.782.06 1.117.228.335.625.528 1.042.507h.777v7.442h-.777a1.172 1.172 0 0 0-1.102.608c-.19.356-.167.782.06 1.117.228.335.625.529 1.042.508h3.888c.421.005.813-.206 1.025-.554a1.075 1.075 0 0 0 0-1.125 1.178 1.178 0 0 0-1.025-.554h-.777V8.972c0-.617-.523-1.116-1.167-1.116h-1.944a1.22 1.22 0 0 0-.122 0z"/>
    </g>
</svg>
