<svg xmlns="http://www.w3.org/2000/svg" width="41" height="41" viewBox="0 0 41 41">
    <g fill="none" fill-rule="evenodd">
        <path fill="#597DA3" d="M20.8.8C9.752.8.8 9.754.8 20.8s8.953 20 20 20c11.045 0 20-8.954 20-20s-8.955-20-20-20z"/>
        <path fill="#FFF" d="M29.263 23.56s1.768 1.746 2.204 2.557c.012.016.018.033.023.041.177.298.218.53.13.702-.145.288-.645.43-.816.442H27.68c-.216 0-.67-.056-1.22-.435-.424-.296-.84-.782-1.246-1.255-.607-.704-1.132-1.312-1.66-1.312a.634.634 0 0 0-.199.031c-.4.13-.912.7-.912 2.221 0 .475-.375.748-.64.748h-1.431c-.488 0-3.027-.17-5.277-2.544-2.754-2.906-5.234-8.735-5.254-8.79-.157-.376.166-.579.518-.579h3.157c.42 0 .558.257.654.484.112.264.525 1.316 1.202 2.5 1.098 1.929 1.77 2.712 2.31 2.712a.624.624 0 0 0 .29-.075c.704-.391.573-2.902.542-3.423 0-.098-.003-1.123-.363-1.614-.258-.356-.698-.492-.965-.542.07-.102.223-.258.415-.352.483-.242 1.354-.277 2.219-.277h.481c.938.012 1.18.073 1.519.158.687.165.702.609.641 2.127-.018.432-.037.92-.037 1.494 0 .125-.006.258-.006.4-.021.773-.046 1.65.5 2.01a.45.45 0 0 0 .237.07c.19 0 .76 0 2.306-2.653.678-1.17 1.203-2.552 1.24-2.654.031-.054.123-.22.231-.285.086-.05.2-.06.259-.06h3.71c.404 0 .681.06.733.216.092.248-.016 1.004-1.71 3.298-.285.379-.538.71-.756.998-1.536 2.012-1.536 2.114.096 3.641z"/>
    </g>
</svg>
