<svg width="26" height="24" viewBox="0 0 26 24" fill="none" xmlns="http://www.w3.org/2000/svg">
<path fill-rule="evenodd" clip-rule="evenodd" d="M23.0557 10.0392L24.7261 11.1738C24.8972 11.2904 24.9996 11.4826 24.9999 11.6887V15.6894C24.9999 16.033 24.7184 16.3124 24.3714 16.3124H23.1677C22.9127 17.5621 21.7984 18.506 20.4657 18.506C19.1322 18.506 18.0167 17.5621 17.7625 16.3124H13.0805C12.8263 17.5621 11.7112 18.506 10.3785 18.506C9.045 18.506 7.92991 17.5621 7.67533 16.3124H6.14244C5.79815 16.3124 5.51904 16.0333 5.51904 15.689C5.51904 15.3447 5.79815 15.0656 6.14244 15.0656H7.71635C8.03077 13.8973 9.10338 13.0337 10.3785 13.0337C11.6528 13.0337 12.725 13.8973 13.0391 15.0656H17.8035C18.1176 13.8973 19.1906 13.0337 20.4657 13.0337C21.74 13.0337 22.8115 13.8973 23.1263 15.0656H23.7433V12.0176L22.3995 11.1049H15.7252C15.3783 11.1049 15.0967 10.8254 15.0967 10.4811V6.24679H6.14244C5.79815 6.24679 5.51904 5.96769 5.51904 5.62339C5.51904 5.2791 5.79815 5 6.14244 5H15.7248H19.3007H19.4913C19.7064 5 19.9063 5.10964 20.0219 5.29006L23.0557 10.0392ZM18.9666 6.24679H16.3529V9.85808H21.4144L18.9666 6.24679ZM10.3783 17.2592C9.55066 17.2592 8.87673 16.5911 8.87673 15.7701C8.87673 14.9486 9.55066 14.2801 10.3783 14.2801C11.2059 14.2801 11.8788 14.9483 11.8788 15.7701C11.8788 16.5911 11.2059 17.2592 10.3783 17.2592ZM18.964 15.7701C18.964 16.5911 19.6371 17.2592 20.4655 17.2592C21.2924 17.2592 21.9656 16.5911 21.966 15.7701C21.966 14.9483 21.2924 14.2801 20.4655 14.2801C19.6371 14.2801 18.964 14.9486 18.964 15.7701Z" fill="#E30613"/>
<path d="M24.7261 11.1738L24.7825 11.0912L24.7823 11.0911L24.7261 11.1738ZM23.0557 10.0392L22.9714 10.0931L22.9825 10.1104L22.9995 10.122L23.0557 10.0392ZM24.9999 11.6887H25.0999V11.6885L24.9999 11.6887ZM23.1677 16.3124V16.2124H23.086L23.0697 16.2924L23.1677 16.3124ZM17.7625 16.3124L17.8605 16.2925L17.8442 16.2124H17.7625V16.3124ZM13.0805 16.3124V16.2124H12.9988L12.9825 16.2925L13.0805 16.3124ZM7.67533 16.3124L7.77332 16.2925L7.75702 16.2124H7.67533V16.3124ZM7.71635 15.0656V15.1656H7.79299L7.81291 15.0916L7.71635 15.0656ZM13.0391 15.0656L12.9425 15.0916L12.9624 15.1656H13.0391V15.0656ZM17.8035 15.0656V15.1656H17.8802L17.9001 15.0916L17.8035 15.0656ZM23.1263 15.0656L23.0297 15.0916L23.0497 15.1656H23.1263V15.0656ZM23.7433 15.0656V15.1656H23.8433V15.0656H23.7433ZM23.7433 12.0176H23.8433V11.9646L23.7995 11.9349L23.7433 12.0176ZM22.3995 11.1049L22.4557 11.0221L22.4303 11.0049H22.3995V11.1049ZM15.0967 6.24679H15.1967V6.14679H15.0967V6.24679ZM20.0219 5.29006L20.1062 5.23623L20.1061 5.2361L20.0219 5.29006ZM16.3529 6.24679V6.14679H16.2529V6.24679H16.3529ZM18.9666 6.24679L19.0494 6.19068L19.0196 6.14679H18.9666V6.24679ZM16.3529 9.85808H16.2529V9.95808H16.3529V9.85808ZM21.4144 9.85808V9.95808H21.603L21.4972 9.80197L21.4144 9.85808ZM21.966 15.7701L22.066 15.7701V15.7701H21.966ZM24.7823 11.0911L23.1119 9.95651L22.9995 10.122L24.67 11.2565L24.7823 11.0911ZM25.0999 11.6885C25.0995 11.4491 24.9806 11.2262 24.7825 11.0912L24.6698 11.2564C24.8138 11.3546 24.8996 11.516 24.8999 11.6888L25.0999 11.6885ZM25.0999 15.6894V11.6887H24.8999V15.6894H25.0999ZM24.3714 16.4124C24.7728 16.4124 25.0999 16.089 25.0999 15.6894H24.8999C24.8999 15.977 24.6639 16.2124 24.3714 16.2124V16.4124ZM23.1677 16.4124H24.3714V16.2124H23.1677V16.4124ZM20.4657 18.606C21.8465 18.606 23.0013 17.6281 23.2656 16.3324L23.0697 16.2924C22.8241 17.4961 21.7503 18.406 20.4657 18.406V18.606ZM17.6645 16.3323C17.9281 17.6282 19.0842 18.606 20.4657 18.606V18.406C19.1802 18.406 18.1053 17.4961 17.8605 16.2925L17.6645 16.3323ZM13.0805 16.4124H17.7625V16.2124H13.0805V16.4124ZM10.3785 18.606C11.7592 18.606 12.9149 17.6282 13.1785 16.3323L12.9825 16.2925C12.7376 17.4961 11.6631 18.406 10.3785 18.406V18.606ZM7.57735 16.3324C7.84131 17.6282 8.99696 18.606 10.3785 18.606V18.406C9.09304 18.406 8.01851 17.4961 7.77332 16.2925L7.57735 16.3324ZM6.14244 16.4124H7.67533V16.2124H6.14244V16.4124ZM5.41904 15.689C5.41904 16.0885 5.74292 16.4124 6.14244 16.4124V16.2124C5.85337 16.2124 5.61904 15.9781 5.61904 15.689H5.41904ZM6.14244 14.9656C5.74292 14.9656 5.41904 15.2895 5.41904 15.689H5.61904C5.61904 15.4 5.85337 15.1656 6.14244 15.1656V14.9656ZM7.71635 14.9656H6.14244V15.1656H7.71635V14.9656ZM10.3785 12.9337C9.05723 12.9337 7.94572 13.8286 7.61978 15.0396L7.81291 15.0916C8.11583 13.9661 9.14952 13.1337 10.3785 13.1337V12.9337ZM13.1357 15.0397C12.8101 13.8286 11.699 12.9337 10.3785 12.9337V13.1337C11.6066 13.1337 12.64 13.966 12.9425 15.0916L13.1357 15.0397ZM17.8035 14.9656H13.0391V15.1656H17.8035V14.9656ZM20.4657 12.9337C19.1444 12.9337 18.0325 13.8285 17.707 15.0397L17.9001 15.0916C18.2027 13.9661 19.2367 13.1337 20.4657 13.1337V12.9337ZM23.2228 15.0396C22.8965 13.8286 21.7862 12.9337 20.4657 12.9337V13.1337C21.6938 13.1337 22.7264 13.966 23.0297 15.0916L23.2228 15.0396ZM23.7433 14.9656H23.1263V15.1656H23.7433V14.9656ZM23.6433 12.0176V15.0656H23.8433V12.0176H23.6433ZM22.3433 11.1876L23.6871 12.1003L23.7995 11.9349L22.4557 11.0221L22.3433 11.1876ZM15.7252 11.2049H22.3995V11.0049H15.7252V11.2049ZM14.9967 10.4811C14.9967 10.8814 15.3238 11.2049 15.7252 11.2049V11.0049C15.4328 11.0049 15.1967 10.7695 15.1967 10.4811H14.9967ZM14.9967 6.24679V10.4811H15.1967V6.24679H14.9967ZM6.14244 6.34679H15.0967V6.14679H6.14244V6.34679ZM5.41904 5.62339C5.41904 6.02291 5.74292 6.34679 6.14244 6.34679V6.14679C5.85337 6.14679 5.61904 5.91246 5.61904 5.62339H5.41904ZM6.14244 4.9C5.74292 4.9 5.41904 5.22388 5.41904 5.62339H5.61904C5.61904 5.33433 5.85337 5.1 6.14244 5.1V4.9ZM15.7248 4.9H6.14244V5.1H15.7248V4.9ZM19.3007 4.9H15.7248V5.1H19.3007V4.9ZM19.4913 4.9H19.3007V5.1H19.4913V4.9ZM20.1061 5.2361C19.9721 5.02703 19.7405 4.9 19.4913 4.9V5.1C19.6723 5.1 19.8404 5.19226 19.9377 5.34403L20.1061 5.2361ZM23.14 9.9854L20.1062 5.23623L19.9376 5.3439L22.9714 10.0931L23.14 9.9854ZM16.3529 6.34679H18.9666V6.14679H16.3529V6.34679ZM16.4529 9.85808V6.24679H16.2529V9.85808H16.4529ZM21.4144 9.75808H16.3529V9.95808H21.4144V9.75808ZM18.8838 6.3029L21.3316 9.91419L21.4972 9.80197L19.0494 6.19068L18.8838 6.3029ZM8.77673 15.7701C8.77673 16.6471 9.49623 17.3592 10.3783 17.3592V17.1592C9.6051 17.1592 8.97673 16.5351 8.97673 15.7701H8.77673ZM10.3783 14.1801C9.49618 14.1801 8.77673 14.8927 8.77673 15.7701H8.97673C8.97673 15.0046 9.60514 14.3801 10.3783 14.3801V14.1801ZM11.9788 15.7701C11.9788 14.8924 11.2605 14.1801 10.3783 14.1801V14.3801C11.1514 14.3801 11.7788 15.0042 11.7788 15.7701H11.9788ZM10.3783 17.3592C11.2605 17.3592 11.9788 16.647 11.9788 15.7701H11.7788C11.7788 16.5352 11.1514 17.1592 10.3783 17.1592V17.3592ZM20.4655 17.1592C19.6916 17.1592 19.064 16.5351 19.064 15.7701H18.864C18.864 16.6471 19.5827 17.3592 20.4655 17.3592V17.1592ZM21.866 15.77C21.8656 16.5352 21.2379 17.1592 20.4655 17.1592V17.3592C21.347 17.3592 22.0656 16.647 22.066 15.7701L21.866 15.77ZM20.4655 14.3801C21.2379 14.3801 21.866 15.0042 21.866 15.7701H22.066C22.066 14.8924 21.347 14.1801 20.4655 14.1801V14.3801ZM19.064 15.7701C19.064 15.0046 19.6917 14.3801 20.4655 14.3801V14.1801C19.5826 14.1801 18.864 14.8927 18.864 15.7701H19.064Z" fill="#E30613"/>
<path d="M3.92529 8.30143C3.92529 7.95714 4.2044 7.67804 4.54869 7.67804H7.62519C7.96949 7.67804 8.24859 7.95714 8.24859 8.30143C8.24859 8.64573 7.96949 8.92483 7.62519 8.92483H4.54869C4.2044 8.92483 3.92529 8.64573 3.92529 8.30143Z" fill="#E30613" stroke="#E30613" stroke-width="0.2"/>
<path d="M1 10.6991C1 10.3548 1.2791 10.0757 1.62339 10.0757H5.88704C6.23133 10.0757 6.51044 10.3548 6.51044 10.6991C6.51044 11.0434 6.23133 11.3225 5.88704 11.3225H1.62339C1.2791 11.3225 1 11.0434 1 10.6991Z" fill="#E30613" stroke="#E30613" stroke-width="0.2"/>
<rect x="2.4082" y="12.5654" width="3.21781" height="1.24679" rx="0.623395" fill="#E30613" stroke="#E30613" stroke-width="0.2"/>
</svg>
