<svg xmlns="http://www.w3.org/2000/svg" width="32" height="32" viewBox="0 0 32 32">
    <g fill="#1D1D1D" fill-rule="nonzero">
        <path d="M30.292 12.641a1.505 1.505 0 0 1-.238-.872l.115-2.14a2.877 2.877 0 0 0-1.578-2.732l-1.896-.958a1.421 1.421 0 0 1-.634-.634l-.958-1.896a2.877 2.877 0 0 0-2.732-1.578l-2.14.115a1.44 1.44 0 0 1-.872-.238L17.586.541a2.88 2.88 0 0 0-3.172 0l-1.773 1.167c-.259.166-.569.252-.872.238L9.63 1.83a2.877 2.877 0 0 0-2.732 1.578L5.94 5.305c-.137.273-.36.497-.634.634l-1.896.958A2.877 2.877 0 0 0 1.831 9.63l.115 2.14c.014.31-.065.62-.238.872L.541 14.414a2.88 2.88 0 0 0 0 3.172l1.167 1.773c.166.259.252.569.238.872l-.115 2.14a2.877 2.877 0 0 0 1.578 2.732l1.896.958c.273.137.497.36.634.634l.958 1.896a2.877 2.877 0 0 0 2.732 1.578l2.14-.115c.303-.014.62.065.872.238l1.773 1.167a2.893 2.893 0 0 0 1.586.476c.548 0 1.103-.158 1.586-.476l1.773-1.167c.259-.166.569-.252.872-.238l2.14.115a2.877 2.877 0 0 0 2.732-1.578l.958-1.896c.137-.273.36-.497.634-.634l1.896-.958a2.877 2.877 0 0 0 1.578-2.732l-.115-2.14c-.014-.31.065-.62.238-.872l1.167-1.773a2.88 2.88 0 0 0 0-3.172l-1.167-1.773zm-.036 4.152l-1.168 1.773a2.874 2.874 0 0 0-.468 1.744l.115 2.14c.029.57-.28 1.11-.793 1.37l-1.895.958c-.555.281-.995.721-1.276 1.276l-.958 1.896a1.45 1.45 0 0 1-1.37.792l-2.14-.115a2.924 2.924 0 0 0-1.744.468l-1.766 1.16a1.44 1.44 0 0 1-1.586 0l-1.773-1.167a2.906 2.906 0 0 0-1.593-.475c-.05 0-.1 0-.158.007l-2.14.115a1.456 1.456 0 0 1-1.37-.793l-.959-1.895A2.874 2.874 0 0 0 5.94 24.77l-1.896-.958a1.45 1.45 0 0 1-.793-1.37l.116-2.14a2.924 2.924 0 0 0-.469-1.744l-1.153-1.766a1.44 1.44 0 0 1 0-1.586l1.168-1.773a2.874 2.874 0 0 0 .468-1.744l-.115-2.14c-.029-.57.28-1.11.793-1.37l1.895-.958c.555-.281.995-.721 1.276-1.276l.958-1.896a1.45 1.45 0 0 1 1.37-.792l2.14.115a2.924 2.924 0 0 0 1.744-.468l1.766-1.16a1.44 1.44 0 0 1 1.586 0l1.773 1.167a2.874 2.874 0 0 0 1.744.468l2.14-.115c.57-.029 1.11.28 1.37.793l.958 1.895c.281.555.721.995 1.276 1.276l1.896.958c.511.26.821.793.792 1.37l-.115 2.14a2.924 2.924 0 0 0 .468 1.744l1.168 1.773c.31.476.31 1.096-.007 1.579z"/>
        <path d="M13.196 15.668a2.476 2.476 0 0 0 2.472-2.472 2.476 2.476 0 0 0-2.472-2.472 2.471 2.471 0 1 0 0 4.944zm0-3.51a1.03 1.03 0 1 1 0 2.061 1.03 1.03 0 0 1 0-2.06zM18.804 16.332a2.476 2.476 0 0 0-2.472 2.472 2.476 2.476 0 0 0 2.472 2.472 2.471 2.471 0 1 0 0-4.944zm0 3.51a1.03 1.03 0 1 1 0-2.061 1.03 1.03 0 0 1 0 2.06zM20.627 11.373a.718.718 0 0 0-1.016 0l-8 8a.718.718 0 0 0 .512 1.225.738.738 0 0 0 .511-.209l8-8a.724.724 0 0 0-.007-1.016z"/>
    </g>
</svg>
