<svg xmlns="http://www.w3.org/2000/svg" width="32" height="32" viewBox="0 0 32 32">
    <g fill="none" fill-rule="nonzero">
        <path d="M0 0h32v32H0z"/>
        <g fill="#1D1D1D" stroke="#1D1D1D" stroke-width=".2" transform="translate(2 8)">
            <path d="M27.432 7.32l-1.918-1.302L22.03.565a.724.724 0 0 0-.61-.333H6.094a.716.716 0 0 0 0 1.432h10.282v4.861a.72.72 0 0 0 .722.717h7.663l1.543 1.048v3.5h-.708a3.164 3.164 0 0 0-3.055-2.334 3.165 3.165 0 0 0-3.057 2.333h-5.47a3.163 3.163 0 0 0-3.056-2.333 3.165 3.165 0 0 0-3.056 2.333H6.093a.716.716 0 1 0 0 1.432h1.76a3.166 3.166 0 0 0 3.104 2.519c1.53 0 2.81-1.084 3.103-2.519h5.376a3.165 3.165 0 0 0 3.104 2.519c1.53 0 2.81-1.084 3.102-2.519h1.382c.399 0 .722-.32.722-.715V7.912a.717.717 0 0 0-.314-.591zm-9.615-5.656h3.001L23.63 5.81h-5.812V1.664zm-6.86 12.644a1.72 1.72 0 0 1-1.724-1.71c0-.943.774-1.71 1.724-1.71s1.723.767 1.723 1.71-.772 1.71-1.723 1.71zm11.583 0a1.719 1.719 0 0 1-1.725-1.71c0-.943.773-1.71 1.725-1.71.949 0 1.722.767 1.722 1.71s-.773 1.71-1.722 1.71z"/>
            <path d="M4.264 3.307h3.532a.716.716 0 1 1 0 1.432H4.264a.716.716 0 0 1 0-1.432zM.905 6.06H5.8a.716.716 0 1 1 0 1.432H.905a.716.716 0 1 1 0-1.432z"/>
            <rect width="3.695" height="1.432" x="1.806" y="8.919" rx=".716"/>
        </g>
    </g>
</svg>
