<svg width="22" height="19" viewBox="0 0 22 19" fill="none" xmlns="http://www.w3.org/2000/svg">
<path fill-rule="evenodd" clip-rule="evenodd" d="M13.8038 8.69326C14.1514 7.4185 15.31 6.55591 16.6319 6.55591C17.9538 6.55591 19.1124 7.4185 19.4601 8.69326H21.2109C21.6467 8.69326 22 9.04657 22 9.48239C22 9.91822 21.6467 10.2715 21.2109 10.2715H19.46C19.1124 11.4856 17.9538 12.4086 16.6319 12.4086C15.31 12.4086 14.1514 11.4856 13.8038 10.2715H0.789137C0.353309 10.2715 0 9.91822 0 9.48239C0 9.04657 0.353309 8.69326 0.789137 8.69326H13.8038ZM15.2625 9.4739C15.2625 10.2238 15.8769 10.834 16.6319 10.834C17.3869 10.834 18.0011 10.2238 18.0011 9.4739C18.0011 8.72391 17.3868 8.11367 16.6319 8.11367C15.8769 8.11367 15.2625 8.72391 15.2625 9.4739Z" fill="white"/>
<path fill-rule="evenodd" clip-rule="evenodd" d="M5.79657 0C7.11847 0 8.27719 0.862588 8.62479 2.13735H21.2412C21.6603 2.13735 22 2.47707 22 2.89613C22 3.3152 21.6603 3.65492 21.2412 3.65492H8.62467C8.27707 4.92968 7.11841 5.79209 5.79651 5.79209C4.47474 5.79209 3.31613 4.92968 2.96853 3.65492H0.758786C0.33972 3.65492 0 3.3152 0 2.89613C0 2.47707 0.339719 2.13735 0.758785 2.13735H2.96859C3.31613 0.862588 4.47474 0 5.79657 0ZM4.42726 2.89613C4.42726 3.64612 5.04154 4.2563 5.79657 4.2563C6.55154 4.2563 7.16583 3.64612 7.16583 2.89613C7.16583 2.14621 6.55154 1.53603 5.79657 1.53603C5.04154 1.53603 4.42726 2.14621 4.42726 2.89613Z" fill="white"/>
<path fill-rule="evenodd" clip-rule="evenodd" d="M5.53202 15.1884C5.87968 13.9744 7.03829 13.0511 8.36006 13.0511C9.68196 13.0511 10.8406 13.9744 11.1882 15.1884H21.2109C21.6467 15.1884 22 15.5417 22 15.9776C22 16.4134 21.6467 16.7667 21.2109 16.7667H11.1881C10.8405 18.0415 9.68183 18.9039 8.36 18.9039C7.03823 18.9039 5.87962 18.0415 5.53202 16.7667H0.789137C0.353309 16.7667 0 16.4134 0 15.9776C0 15.5417 0.353308 15.1884 0.789136 15.1884H5.53202ZM6.99068 15.9938C6.99068 16.7437 7.60503 17.3539 8.36006 17.3539C9.11503 17.3539 9.72926 16.7437 9.72926 15.9938C9.72926 15.2438 9.11503 14.6336 8.36006 14.6336C7.60503 14.6336 6.99068 15.2438 6.99068 15.9938Z" fill="white"/>
</svg>
