<?xml version="1.0" encoding="UTF-8"?>
<svg width="24px" height="24px" viewBox="0 0 24 24" version="1.1" xmlns="http://www.w3.org/2000/svg" xmlns:xlink="http://www.w3.org/1999/xlink">
    <!-- Generator: sketchtool 54.1 (76490) - https://sketchapp.com -->
    <title>3918FC0D-F64B-46DF-BA99-6E070F9B0F08</title>
    <desc>Created with sketchtool.</desc>
    <g id="Symbols" stroke="none" stroke-width="1" fill="none" fill-rule="evenodd">
        <g id="icons/outline-message-24px">
            <g id="Shape">
                <polygon points="0 0 24 0 24 24 0 24"></polygon>
                <path d="M4,4 L20,4 L20,16 L5.17,16 L4,17.17 L4,4 L4,4 Z M4,2 C2.9,2 2.01,2.9 2.01,4 L2,22 L6,18 L20,18 C21.1,18 22,17.1 22,16 L22,4 C22,2.9 21.1,2 20,2 L4,2 Z M6,12 L18,12 L18,14 L6,14 L6,12 Z M6,9 L18,9 L18,11 L6,11 L6,9 Z M6,6 L18,6 L18,8 L6,8 L6,6 Z" fill="#1D1D1D" fill-rule="nonzero"></path>
            </g>
        </g>
    </g>
</svg>