<svg xmlns="http://www.w3.org/2000/svg" width="32" height="32" viewBox="0 0 32 32">
    <g fill="#1D1D1D" fill-rule="nonzero">
        <path d="M16 32C7.178 32 0 24.822 0 16a1 1 0 0 1 2 0c0 7.72 6.28 14 14 14s14-6.28 14-14S23.72 2 16 2a1 1 0 0 1 0-2c8.822 0 16 7.178 16 16s-7.178 16-16 16z"/>
        <path d="M16 2c-.26 0-.52-.11-.71-.29-.18-.19-.29-.45-.29-.71 0-.26.11-.52.29-.71.38-.37 1.04-.37 1.42 0 .18.19.29.45.29.71 0 .26-.11.52-.29.71-.19.18-.45.29-.71.29zM1.25 13.08c-.53-.15-.85-.7-.71-1.23.15-.53.69-.85 1.23-.7.53.14.85.69.71 1.22-.13.45-.53.74-.97.74-.09 0-.17-.01-.26-.03zm1.26-3.72c-.48-.28-.64-.89-.37-1.36.28-.48.89-.65 1.37-.37.48.28.64.89.37 1.37h-.01a.99.99 0 0 1-.86.5c-.17 0-.34-.05-.5-.14zM4.69 6.1a.996.996 0 0 1 0-1.41h-.01c.4-.4 1.03-.4 1.42-.01.39.4.39 1.03 0 1.42-.19.2-.45.29-.71.29a.96.96 0 0 1-.7-.29zm2.94-2.59a.999.999 0 1 1 1.73-1c.28.48.12 1.09-.36 1.36-.16.09-.33.14-.5.14-.35 0-.68-.18-.87-.5zm3.52-1.74a.999.999 0 0 1 .7-1.23c.54-.14 1.09.18 1.23.71.14.53-.18 1.08-.71 1.22v.01a1.002 1.002 0 0 1-1.22-.71zM1 17c-.26 0-.52-.11-.71-.29C.11 16.52 0 16.26 0 16c0-.26.11-.52.29-.71.38-.37 1.04-.37 1.42 0 .18.19.29.45.29.71 0 .26-.11.52-.29.71-.19.18-.45.29-.71.29zM10.001 21a1 1 0 0 1-.556-1.832L15 15.465V6a1 1 0 0 1 2 0v10c0 .334-.167.646-.445.832l-6 4a1.004 1.004 0 0 1-.554.168z"/>
    </g>
</svg>
