<svg xmlns="http://www.w3.org/2000/svg" width="22" height="19" viewBox="0 0 22 19">
    <g fill="#1D1D1D" fill-rule="nonzero">
        <path d="M16.632 6.604c-1.322 0-2.48.862-2.828 2.137H.789a.79.79 0 1 0 0 1.578h13.015c.347 1.215 1.506 2.138 2.828 2.138 1.322 0 2.48-.923 2.828-2.138h1.75a.79.79 0 1 0 0-1.578h-1.75a2.912 2.912 0 0 0-2.828-2.137zm0 4.278c-.755 0-1.37-.61-1.37-1.36 0-.75.615-1.36 1.37-1.36.755 0 1.37.61 1.37 1.36 0 .75-.615 1.36-1.37 1.36zM8.625 2.185A2.912 2.912 0 0 0 5.797.048c-1.322 0-2.48.863-2.828 2.137H.759a.759.759 0 1 0 0 1.518h2.21A2.911 2.911 0 0 0 5.797 5.84c1.321 0 2.48-.862 2.828-2.137H21.24a.759.759 0 1 0 0-1.518H8.625zm-2.828 2.12c-.755 0-1.37-.61-1.37-1.36 0-.75.615-1.361 1.37-1.361.755 0 1.369.61 1.369 1.36 0 .75-.614 1.36-1.37 1.36zM8.36 13.1c-1.322 0-2.48.922-2.828 2.136H.789a.79.79 0 0 0 0 1.578h4.743a2.911 2.911 0 0 0 2.828 2.138c1.322 0 2.48-.863 2.828-2.137h10.023a.79.79 0 0 0 0-1.578H11.188c-.347-1.215-1.506-2.138-2.828-2.138zm0 4.302c-.755 0-1.37-.61-1.37-1.36 0-.75.615-1.36 1.37-1.36.755 0 1.37.61 1.37 1.36 0 .75-.615 1.36-1.37 1.36z"/>
    </g>
</svg>
