<?xml version="1.0" encoding="UTF-8"?>
<svg width="24px" height="24px" viewBox="0 0 24 24" version="1.1" xmlns="http://www.w3.org/2000/svg" xmlns:xlink="http://www.w3.org/1999/xlink">
    <!-- Generator: sketchtool 54.1 (76490) - https://sketchapp.com -->
    <title>16620874-8D9A-471B-95B9-028358789BEB</title>
    <desc>Created with sketchtool.</desc>
    <g id="Symbols" stroke="none" stroke-width="1" fill="none" fill-rule="evenodd">
        <g id="icons/ic_gift" fill="#1D1D1D" fill-rule="nonzero">
            <g id="Group" transform="translate(3.000000, 3.000000)">
                <path d="M1,5 L17,5 C17.5522847,5 18,5.44771525 18,6 L18,10 C18,10.5522847 17.5522847,11 17,11 L1,11 C0.44771525,11 0,10.5522847 0,10 L0,6 C0,5.44771525 0.44771525,5 1,5 Z M2,7 L2,9 L16,9 L16,7 L2,7 Z" id="Rectangle"></path>
                <path d="M3,9 L15,9 C15.5522847,9 16,9.44771525 16,10 L16,18 C16,18.5522847 15.5522847,19 15,19 L3,19 C2.44771525,19 2,18.5522847 2,18 L2,10 C2,9.44771525 2.44771525,9 3,9 Z M4,11 L4,17 L14,17 L14,11 L4,11 Z" id="Rectangle"></path>
                <polygon id="Rectangle" points="8 7 10 7 10 17 8 17"></polygon>
                <path d="M9.89442719,5.5527864 C7.62160914,1.0071503 5.37551303,-0.78972659 3.29289322,1.29289322 C1.45673483,3.1290516 1.96992145,5.18179806 4.4452998,6.83205029 L5.5547002,5.16794971 C4.03007855,4.15153528 3.8765985,3.53761506 4.70710678,2.70710678 C5.29115364,2.12305992 6.37839086,2.9928497 8.10557281,6.4472136 L9.89442719,5.5527864 Z" id="Path-7"></path>
                <path d="M9.89442719,6.4472136 C11.6216091,2.9928497 12.7088464,2.12305992 13.2928932,2.70710678 C14.2357023,3.64991582 14.2357023,4.35008418 13.2928932,5.29289322 L14.7071068,6.70710678 C16.4309644,4.98324916 16.4309644,3.01675084 14.7071068,1.29289322 C12.624487,-0.78972659 10.3783909,1.0071503 8.10557281,5.5527864 L9.89442719,6.4472136 Z" id="Path-8"></path>
            </g>
        </g>
    </g>
</svg>