<svg xmlns="http://www.w3.org/2000/svg" width="32" height="32" viewBox="0 0 32 32">
    <g fill="none" fill-rule="evenodd">
        <rect width="32" height="32" fill="#E30613" fill-rule="nonzero" rx="16"/>
        <path d="M4 4h24v24H4z"/>
        <path fill="#FFF" fill-rule="nonzero" d="M18 5h-4c-.55 0-1 .45-1 1s.45 1 1 1h4c.55 0 1-.45 1-1s-.45-1-1-1zm-2 13c.55 0 1-.45 1-1v-4c0-.55-.45-1-1-1s-1 .45-1 1v4c0 .55.45 1 1 1zm7.03-6.61l.75-.75a.993.993 0 0 0 0-1.4l-.01-.01a.993.993 0 0 0-1.4 0l-.75.75A8.962 8.962 0 0 0 16 8c-4.8 0-8.88 3.96-9 8.76A8.998 8.998 0 0 0 16 26a8.994 8.994 0 0 0 7.03-14.61zM16 24c-3.87 0-7-3.13-7-7s3.13-7 7-7 7 3.13 7 7-3.13 7-7 7z"/>
    </g>
</svg>
