<svg xmlns="http://www.w3.org/2000/svg" width="28" height="28" viewBox="0 0 28 28">
    <g fill="none" fill-rule="evenodd">
        <ellipse cx="14.008" cy="14" fill="#EC1C24" rx="14.008" ry="14"/>
        <g fill="#FAFAF9">
            <path d="M15.417 3.482c.147.515.147 1.08 0 1.596a.463.463 0 0 1-.318.32 2.916 2.916 0 0 1-1.59 0 .463.463 0 0 1-.318-.32 2.949 2.949 0 0 1 0-1.596.463.463 0 0 1 .318-.32 2.916 2.916 0 0 1 1.59 0c.171.05.27.172.318.32zm-9.59 4.2a2.632 2.632 0 0 1 1.345.81c.098.123.147.27.098.418a2.646 2.646 0 0 1-.808 1.35c-.122.099-.269.148-.415.099a2.632 2.632 0 0 1-1.346-.81c-.098-.124-.147-.27-.098-.418A2.646 2.646 0 0 1 5.41 7.78c.098-.098.27-.123.416-.098zm4.232-3.365c.392.368.66.86.783 1.375.024.147 0 .32-.122.418a2.763 2.763 0 0 1-1.37.786c-.147.024-.319 0-.416-.123a2.779 2.779 0 0 1-.783-1.376c-.025-.147 0-.319.122-.417a2.763 2.763 0 0 1 1.37-.786.477.477 0 0 1 .416.123zm13.872 5.256a2.735 2.735 0 0 1-1.345.81.422.422 0 0 1-.416-.098 2.75 2.75 0 0 1-.807-1.35.426.426 0 0 1 .097-.418 2.735 2.735 0 0 1 1.346-.81c.147-.05.318 0 .416.097.391.369.685.835.807 1.351a.388.388 0 0 1-.098.418zm-3.45-4.176a2.779 2.779 0 0 1-.782 1.376.526.526 0 0 1-.416.123 2.763 2.763 0 0 1-1.37-.786.53.53 0 0 1-.123-.418 2.779 2.779 0 0 1 .783-1.375.526.526 0 0 1 .416-.123 2.763 2.763 0 0 1 1.37.786.53.53 0 0 1 .123.417zM14.903 16.77c.906-1.376 1.542-2.948 1.762-4.667 0-.074.049-.123.098-.148a.15.15 0 0 1 .171.025c.636.491 1.346.86 2.129 1.105a.204.204 0 0 1 .146.246 13.527 13.527 0 0 1-2.348 5.354c-.025.05-.098.074-.147.098-.073 0-.122 0-.171-.049-.612-.466-1.15-1.031-1.64-1.62-.049-.1-.073-.222 0-.345zM14.145 21.264a13.853 13.853 0 0 1-4.747-7.933c-.024-.099.05-.197.147-.246a6.767 6.767 0 0 0 2.129-1.105.15.15 0 0 1 .171-.025.166.166 0 0 1 .098.148 11.045 11.045 0 0 0 4.135 7.22c.049.05.073.099.073.148 0 .074 0 .123-.049.172-.514.59-1.052 1.13-1.639 1.621-.073.098-.22.098-.318 0zM24.176 14.362a1.905 1.905 0 0 0 .93-1.94c0-.05-.05-.098-.098-.123a.15.15 0 0 0-.171.025 6.822 6.822 0 0 1-4.624 1.031c-.098-.024-.196.05-.22.172a14.95 14.95 0 0 1-1.15 3.439.21.21 0 0 0 0 .172c.024.049.073.098.122.123 1.297.564 2.716.908 4.184.933.097 0 .195-.05.244-.148.465-1.154.759-2.382.783-3.684z"/>
            <path d="M16.371 11.464c.514-.074 5.187-.909 3.524-2.235a13.584 13.584 0 0 0-4.796-2.505 2.916 2.916 0 0 0-1.59 0 13.796 13.796 0 0 0-4.796 2.505c-1.663 1.35 3.01 2.161 3.524 2.235.367 1.007 1.125 2.382 2.055 2.382.954 0 1.737-1.375 2.08-2.382zM5.264 18.022a9.75 9.75 0 0 1-.808-3.684c-.685-.393-1.027-1.18-.905-1.94 0-.05.049-.099.098-.123a.15.15 0 0 1 .171.024c1.37.909 3.01 1.253 4.624 1.032.098-.025.196.049.22.172a14.95 14.95 0 0 0 1.15 3.438.21.21 0 0 1 0 .172.295.295 0 0 1-.122.123 10.952 10.952 0 0 1-4.184.933c-.098.025-.195-.049-.244-.147zM19.014 23.966a10.691 10.691 0 0 1-4.673 1.056c-.27 0-.539 0-.808-.025-.049 0-.098-.024-.147-.073-.024-.05-.048-.099-.024-.148a6.362 6.362 0 0 1 6.166-4.765c1.247 0 1.859.59 1.859 1.376 0 .982-.783 1.817-2.373 2.579zM9.643 23.966c.832.393 1.737.712 2.691.884.123.025.22-.05.245-.172.22-.884.612-1.72 1.126-2.456.073-.098.073-.246-.025-.32a6.342 6.342 0 0 0-4.55-1.915c-1.248 0-1.86.59-1.86 1.375-.025 1.007.758 1.842 2.373 2.604z"/>
        </g>
    </g>
</svg>
