<svg xmlns="http://www.w3.org/2000/svg" width="11" height="22" viewBox="0 0 11 22">
    <g fill="none" fill-rule="evenodd">
        <path d="M-7-1h24v24H-7z"/>
        <path fill="#1D1D1D" fill-rule="nonzero" d="M9.5 5.75v10.58c0 2.09-1.53 3.95-3.61 4.15A3.993 3.993 0 0 1 1.5 16.5V4.14c0-1.31.94-2.5 2.24-2.63A2.5 2.5 0 0 1 6.5 4v10.5c0 .55-.45 1-1 1s-1-.45-1-1V5.75c0-.41-.34-.75-.75-.75S3 5.34 3 5.75v8.61c0 1.31.94 2.5 2.24 2.63A2.5 2.5 0 0 0 8 14.5V4.17C8 2.08 6.47.22 4.39.02A3.998 3.998 0 0 0 0 4v12.27c0 2.87 2.1 5.44 4.96 5.71 3.29.3 6.04-2.26 6.04-5.48V5.75c0-.41-.34-.75-.75-.75s-.75.34-.75.75z"/>
    </g>
</svg>
