<svg xmlns="http://www.w3.org/2000/svg" width="92" height="40" fill="none" viewBox="0 0 92 40">
    <path fill="#EC1C24" fill-rule="evenodd" d="M16.058 39.427c7.823 0 14.165-6.317 14.165-14.11 0-7.793-6.342-14.11-14.165-14.11-7.824 0-14.166 6.317-14.166 14.11 0 7.793 6.342 14.11 14.166 14.11z" clip-rule="evenodd"/>
    <mask id="a" width="30" height="29" x="1" y="11" maskUnits="userSpaceOnUse">
        <path fill="#fff" fill-rule="evenodd" d="M16.058 39.427c7.823 0 14.165-6.317 14.165-14.11 0-7.793-6.342-14.11-14.165-14.11-7.824 0-14.166 6.317-14.166 14.11 0 7.793 6.342 14.11 14.166 14.11z" clip-rule="evenodd"/>
    </mask>
    <g fill="#FAFAF9" fill-rule="evenodd" clip-rule="evenodd" mask="url(#a)">
        <path d="M17.482 14.716c.149.52.149 1.089 0 1.609a.467.467 0 0 1-.321.322 2.956 2.956 0 0 1-1.608 0 .467.467 0 0 1-.322-.322 2.961 2.961 0 0 1 0-1.61.467.467 0 0 1 .322-.321 2.958 2.958 0 0 1 1.608 0c.173.05.272.173.321.322zm-9.698 4.233c.52.124 1.014.42 1.36.817.1.124.149.272.1.42a2.665 2.665 0 0 1-.817 1.362c-.124.1-.272.149-.42.1a2.663 2.663 0 0 1-1.361-.818c-.1-.123-.149-.272-.1-.42.124-.52.421-1.015.817-1.362.1-.1.272-.124.42-.1zm4.28-3.391c.396.371.668.866.792 1.386.025.148 0 .322-.124.42a2.796 2.796 0 0 1-1.385.793c-.149.025-.322 0-.42-.124a2.798 2.798 0 0 1-.793-1.386c-.024-.149 0-.322.124-.421a2.797 2.797 0 0 1 1.386-.792.483.483 0 0 1 .42.124zm14.028 5.297a2.768 2.768 0 0 1-1.36.817.428.428 0 0 1-.421-.099 2.77 2.77 0 0 1-.817-1.361.429.429 0 0 1 .1-.421 2.769 2.769 0 0 1 1.36-.817c.148-.05.322 0 .42.099.396.371.693.841.817 1.361a.39.39 0 0 1-.099.421zm-3.488-4.208a2.799 2.799 0 0 1-.792 1.386.533.533 0 0 1-.42.124 2.796 2.796 0 0 1-1.386-.792.534.534 0 0 1-.124-.421c.124-.52.396-1.015.792-1.386a.533.533 0 0 1 .42-.124c.52.124 1.015.396 1.386.792a.534.534 0 0 1 .124.42zM16.963 28.108c.915-1.386 1.558-2.97 1.781-4.703 0-.075.05-.124.099-.149a.152.152 0 0 1 .173.025c.644.495 1.361.866 2.153 1.114a.206.206 0 0 1 .148.247 13.61 13.61 0 0 1-2.375 5.397c-.025.05-.099.074-.148.099-.075 0-.124 0-.174-.05-.618-.47-1.163-1.04-1.657-1.633-.05-.1-.075-.223 0-.347zM16.196 32.638a13.954 13.954 0 0 1-4.8-7.996c-.025-.099.05-.198.148-.247a6.85 6.85 0 0 0 2.153-1.114c.05-.05.124-.05.173-.025.05.025.1.074.1.149a11.123 11.123 0 0 0 4.18 7.277c.05.05.075.1.075.149 0 .074 0 .124-.05.173a14.743 14.743 0 0 1-1.658 1.634c-.074.1-.222.1-.321 0zM26.34 25.682a1.918 1.918 0 0 0 .94-1.955c0-.05-.05-.1-.1-.124a.152.152 0 0 0-.172.024 6.917 6.917 0 0 1-4.676 1.04c-.1-.025-.198.05-.223.173a15.035 15.035 0 0 1-1.163 3.466.212.212 0 0 0 0 .173.3.3 0 0 0 .124.124c1.311.57 2.746.916 4.23.94.1 0 .198-.049.248-.148.47-1.163.767-2.4.792-3.713z"/>
        <path d="M18.447 22.761c.52-.074 5.245-.916 3.563-2.252a13.753 13.753 0 0 0-4.85-2.525 2.958 2.958 0 0 0-1.607 0 13.968 13.968 0 0 0-4.85 2.525c-1.682 1.361 3.044 2.178 3.563 2.252.371 1.015 1.138 2.401 2.078 2.401.965 0 1.757-1.386 2.103-2.4zM7.215 29.37a9.798 9.798 0 0 1-.817-3.713 1.901 1.901 0 0 1-.915-1.955c0-.05.05-.1.099-.124a.152.152 0 0 1 .173.025c1.386.916 3.043 1.262 4.676 1.04.1-.025.198.049.223.173a15.03 15.03 0 0 0 1.163 3.465.212.212 0 0 1 0 .174.298.298 0 0 1-.124.123c-1.311.57-2.746.916-4.23.941-.1.025-.199-.05-.248-.148zM21.12 35.361a10.84 10.84 0 0 1-4.726 1.065c-.272 0-.544 0-.817-.025-.05 0-.099-.025-.148-.075-.025-.049-.05-.099-.025-.148a6.43 6.43 0 0 1 6.235-4.802c1.262 0 1.88.594 1.88 1.386 0 .99-.791 1.832-2.4 2.6zM11.643 35.361c.842.396 1.757.718 2.722.891.124.025.223-.05.247-.173a7.52 7.52 0 0 1 1.138-2.476c.075-.099.075-.247-.024-.321a6.424 6.424 0 0 0-4.602-1.931c-1.262 0-1.88.594-1.88 1.386-.025 1.015.767 1.857 2.4 2.624z"/>
    </g>
    <path fill="#231F20" fill-rule="evenodd" d="M67.055 23.405h2.251a.645.645 0 0 0 .52-.272l2.969-4.58v4.505c0 .198.148.372.346.372h2.029c.198 0 .346-.174.346-.372V14.79c0-.198-.148-.37-.346-.37h-2.252a.645.645 0 0 0-.52.271l-2.968 4.58v-4.505c0-.198-.148-.372-.346-.372h-2.03c-.197 0-.346.174-.346.372v8.268c-.024.198.149.37.347.37zM54.635 23.405h9.748c.495 0 .89-.396.89-.891V14.79c0-.198-.148-.371-.346-.371H62.9c-.198 0-.347.173-.347.371v6.387H60.92V14.79c0-.198-.148-.371-.346-.371h-2.029c-.198 0-.346.173-.346.371v6.387h-1.682V14.79c0-.198-.149-.371-.347-.371H54.14c-.198 0-.346.173-.346.371v7.724c-.05.47.346.89.841.89zM40.508 14.22c.866 0 1.583.124 2.227.347.222.075.346.272.346.52v1.485c0 .124-.05.223-.173.297a.348.348 0 0 1-.346.025 4.382 4.382 0 0 0-1.708-.346c-1.657 0-2.424.965-2.424 2.351 0 1.386.791 2.352 2.424 2.352.594 0 1.188-.124 1.708-.347a.348.348 0 0 1 .346.025.323.323 0 0 1 .173.297v1.486c0 .222-.148.42-.346.52-.619.222-1.361.346-2.227.346-3.637 0-4.924-2.277-4.924-4.679 0-2.4 1.287-4.678 4.924-4.678zM50.503 14.394h2.03c.123 0 .222.05.296.149.074.099.074.223.025.346l-3.29 8.17a.538.538 0 0 1-.496.346H47.04a.353.353 0 0 1-.297-.149c-.074-.099-.074-.222-.025-.346l.767-1.906h-.371c-.668 0-.965-.396-1.138-.842l-2.128-5.248c-.05-.124-.025-.223.025-.346a.353.353 0 0 1 .297-.149h2.029c.222 0 .42.124.494.347l1.658 4.084 1.658-4.084a.498.498 0 0 1 .494-.372zM67.377 29.073h2.226v6.387c0 .198.149.371.347.371h2.029c.198 0 .346-.173.346-.37v-6.387h2.227c.198 0 .346-.174.346-.372v-1.535c0-.198-.148-.37-.346-.37h-7.2c-.198 0-.346.172-.346.37v1.535a.38.38 0 0 0 .37.371zm17.615-2.252h3.983c4.033 0 4.033 6.758 0 6.758h-2.127v1.881c0 .198-.149.372-.347.372h-2.028c-.198 0-.347-.174-.347-.372v-7.748a.852.852 0 0 1 .866-.891zm1.856 2.253v2.252h1.509c1.212 0 1.212-2.252 0-2.252h-1.51zm-8.14 0h3.835c.198 0 .346-.174.346-.372v-1.535c0-.198-.148-.37-.346-.37h-5.715a.887.887 0 0 0-.89.89v7.204c0 .495.395.891.89.891h5.715c.198 0 .346-.173.346-.371v-1.535c0-.198-.148-.371-.346-.371h-3.86V32.39h3.365c.198 0 .346-.174.346-.372v-1.534c0-.198-.148-.372-.346-.372h-3.34v-1.04zm-15.24-2.427c.865 0 1.583.124 2.226.347.223.074.347.272.347.52v1.485c0 .124-.05.223-.173.297-.1.075-.223.075-.347.025a4.382 4.382 0 0 0-1.707-.347c-1.658 0-2.425.966-2.425 2.352s.792 2.352 2.425 2.352c.594 0 1.187-.124 1.707-.347a.348.348 0 0 1 .347.025c.098.074.173.173.173.297v1.485c0 .223-.149.421-.347.52-.618.223-1.36.347-2.226.347-3.637 0-4.924-2.278-4.924-4.679 0-2.401 1.287-4.678 4.924-4.678zm-11.505.174h3.513c.223 0 .42.148.47.346l2.5 8.17c.024.123.024.222-.05.321a.353.353 0 0 1-.297.149h-1.905a.483.483 0 0 1-.47-.347l-.347-1.114h-3.315l-.346 1.114a.475.475 0 0 1-.47.347H49.34a.353.353 0 0 1-.297-.149c-.075-.099-.1-.198-.05-.322l2.499-8.168a.506.506 0 0 1 .47-.347zm2.721 5.272l-.964-3.07-.965 3.07h1.93zM44.17 27.068l-1.732 3.689-1.757-3.689a.44.44 0 0 0-.396-.247H37.96a.453.453 0 0 0-.446.396l-.816 8.194c0 .099.025.198.099.272.074.074.148.124.272.124h2.029c.222 0 .42-.174.445-.396l.42-4.258 1.485 3.169c.074.148.223.222.396.222h1.212c.173 0 .322-.074.396-.222l1.46-3.17.42 4.234a.453.453 0 0 0 .446.396h2.029c.099 0 .197-.05.272-.124a.372.372 0 0 0 .099-.272l-.817-8.194a.453.453 0 0 0-.445-.396h-2.301c-.223.025-.371.124-.445.272z" clip-rule="evenodd"/>
    <path fill="#EC1C24" d="M2.399 5.119c1.18-2.086 2.613-3.372 3.559-4.077C6.71.464 7.59.08 8.522.02 13.809-.449 17.39 7.79 17.39 7.79L6.511 10.691s-.733-.332-.086-2.991c0 0 1.336-3.333-.4-3.172 0 0-1.867.235-3.576 1.482l-.05-.891z"/>
    <path fill="#231F20" d="M16.71 6.954l.248-.066c.257.534.423.867.423.867L6.5 10.656s-.259-.119-.342-.85c.132-.073.299-.155.475-.202l4.99-1.534L16.7 6.919l.01.035z" opacity=".1"/>
    <path fill="#fff" d="M6.786 10.166A70.87 70.87 0 0 1 16.853 7.48c.883-.236 2.444.599 2.69 1.513.237.879-.284 2.175-1.202 2.42a38.977 38.977 0 0 0-10.848 2.855l-.534.227c-.883.235-1.6-.763-1.846-1.677-.236-.88.79-2.418 1.673-2.653z" filter="url(#b)"/>
    <path fill="#231F20" d="M2.404 5.14c.273-.534.6-1.005.902-1.431.424.31.78.79.925 1.327a7.412 7.412 0 0 0-1.772 1.01l-.055-.907z" opacity=".1"/>
    <path fill="#fff" d="M2.394 7.494A1.903 1.903 0 0 1 .065 6.156 1.892 1.892 0 0 1 1.41 3.838a1.902 1.902 0 0 1 2.329 1.338 1.892 1.892 0 0 1-1.345 2.318z" filter="url(#c)"/>
    <path fill="#fff" d="M1.104 5.653A.546.546 0 1 1 .82 4.598a.546.546 0 1 1 .284 1.055z"/>
    <defs>
        <filter id="b" width="14.521" height="7.09" x="5.079" y="7.441" color-interpolation-filters="sRGB" filterUnits="userSpaceOnUse">
            <feFlood flood-opacity="0" result="BackgroundImageFix"/>
            <feBlend in="SourceGraphic" in2="BackgroundImageFix" result="shape"/>
            <feColorMatrix in="SourceAlpha" result="hardAlpha" values="0 0 0 0 0 0 0 0 0 0 0 0 0 0 0 0 0 0 127 0"/>
            <feOffset/>
            <feGaussianBlur stdDeviation="2"/>
            <feComposite in2="hardAlpha" k2="-1" k3="1" operator="arithmetic"/>
            <feColorMatrix values="0 0 0 0 0 0 0 0 0 0 0 0 0 0 0 0 0 0 0.2 0"/>
            <feBlend in2="shape" result="effect1_innerShadow"/>
        </filter>
        <filter id="c" width="3.804" height="3.786" x="0" y="3.773" color-interpolation-filters="sRGB" filterUnits="userSpaceOnUse">
            <feFlood flood-opacity="0" result="BackgroundImageFix"/>
            <feBlend in="SourceGraphic" in2="BackgroundImageFix" result="shape"/>
            <feColorMatrix in="SourceAlpha" result="hardAlpha" values="0 0 0 0 0 0 0 0 0 0 0 0 0 0 0 0 0 0 127 0"/>
            <feOffset/>
            <feGaussianBlur stdDeviation="2"/>
            <feComposite in2="hardAlpha" k2="-1" k3="1" operator="arithmetic"/>
            <feColorMatrix values="0 0 0 0 0 0 0 0 0 0 0 0 0 0 0 0 0 0 0.2 0"/>
            <feBlend in2="shape" result="effect1_innerShadow"/>
        </filter>
    </defs>
</svg>
