<svg xmlns="http://www.w3.org/2000/svg" width="108" height="108" viewBox="0 0 108 108">
    <g fill="none" fill-rule="nonzero">
        <circle cx="53.895" cy="53.895" r="53.895" fill="#E24C4B"/>
        <path fill="#FFF" d="M78.484 78.484c-2.02 2.021-5.39 2.021-7.41 0l-17.18-17.179-17.178 17.18c-2.021 2.02-5.39 2.02-7.41 0-2.022-2.022-2.022-5.39 0-7.411l17.178-17.18-17.179-17.178c-2.02-2.021-2.02-5.39 0-7.41 2.021-2.022 5.39-2.022 7.411 0l17.179 17.178 17.179-17.179c2.02-2.02 5.39-2.02 7.41 0 2.021 2.021 2.021 5.39 0 7.411L61.305 53.895l17.18 17.179c2.02 2.02 2.02 5.39 0 7.41z"/>
    </g>
</svg>
