<svg xmlns="http://www.w3.org/2000/svg" width="64" height="64" viewBox="0 0 64 64">
    <g fill="none" fill-rule="evenodd">
        <circle cx="32" cy="32" r="32" fill="#E9724C" fill-rule="nonzero"/>
        <path fill="#FFF" d="M15.93 20h32.253c1.022 0 1.817.897 1.817 1.906v21.3c0 1.01-.795 1.794-1.817 1.794H15.931C14.909 45 14 44.215 14 43.206v-21.3c0-1.01.909-1.906 1.93-1.906zm-1.113 4.372h34.252v5.157H14.817v-5.157zM41.142 37.49c1.476 0 2.726 1.233 2.726 2.69 0 1.458-1.25 2.691-2.726 2.691s-2.726-1.233-2.726-2.69c0-1.458 1.25-2.691 2.726-2.691zm3.748 0c1.476 0 2.725 1.233 2.725 2.69 0 1.458-1.25 2.691-2.725 2.691-.455 0-.909-.112-1.363-.336.681-.673 1.022-1.458 1.022-2.355 0-.896-.34-1.793-1.022-2.354a3.055 3.055 0 0 1 1.363-.336z"/>
    </g>
</svg>
