<svg xmlns="http://www.w3.org/2000/svg" width="64" height="64" viewBox="0 0 64 64">
    <g fill="none" fill-rule="evenodd">
        <g fill-rule="nonzero">
            <circle cx="32" cy="32" r="32" fill="#E9724C"/>
            <path fill="#FFF" d="M48.078 35.851l-.03-.102c-.624-1.981-2.37-2.733-3.664-3.019l-.012-.04-3.782-6.89a1.518 1.518 0 0 0-1.365-.956l-.608-1.29c0-1.736-1.147-2.636-2.698-2.997a1.26 1.26 0 0 0-1-.493h-.92c-.695 0-1.258.56-1.258 1.25 0 .692.563 1.252 1.259 1.252h.918c.147 0 .286-.026.416-.071.467.17.794.488.794 1.06 0 0 3.94 9.945 3.11 11.842-.83 1.897-8.43.265-8.43.265a14.2 14.2 0 0 1-.485-2.608 7.776 7.776 0 0 1 .293-3.042 2.063 2.063 0 0 0 1.73-2.03c0-1.136-.927-2.059-2.072-2.059H18.768a2.067 2.067 0 0 0-2.073 2.06c0 .1.01.197.023.293a3.11 3.11 0 0 0-1.32 1.377A1.65 1.65 0 0 0 14 31.278v.824c0 .617.342 1.153.846 1.436-.159 1.723-.338 3.756-.338 4.15 0 .995.722 1.82 1.673 1.991-.002.05-.004.097-.004.146 0 2.84 2.325 5.149 5.183 5.149 2.858 0 5.182-2.31 5.182-5.149 0-.038-.002-.074-.003-.11h10.832v.008c.84 0 1.624-.24 2.288-.652a5.126 5.126 0 0 0-.056.754c0 2.84 2.325 5.149 5.183 5.149 2.857 0 5.182-2.31 5.182-5.149a5.126 5.126 0 0 0-1.89-3.974zm-26.719 7.063c-1.715 0-3.11-1.385-3.11-3.089 0-.037.006-.073.006-.11h6.208c.002.037.006.073.006.11 0 1.704-1.395 3.09-3.11 3.09zm23.427 0c-1.715 0-3.11-1.385-3.11-3.089 0-1.072.554-2.018 1.391-2.572 1.329-.188 2.44-.133 3.285-.092a3.084 3.084 0 0 1 1.544 2.665c0 1.703-1.395 3.088-3.11 3.088z"/>
        </g>
    </g>
</svg>
