<svg xmlns="http://www.w3.org/2000/svg" width="62" height="64" viewBox="0 0 62 64">
    <g fill="#DBD7D7" fill-rule="evenodd">
        <path d="M34.157 1.614a8.398 8.398 0 0 1 0 4.561c-.14.421-.421.772-.912.913a8.385 8.385 0 0 1-4.559 0c-.42-.14-.771-.421-.912-.913a8.398 8.398 0 0 1 0-4.561c.14-.421.421-.772.912-.912a8.385 8.385 0 0 1 4.559 0c.49.14.771.491.912.912zm-27.494 12a7.55 7.55 0 0 1 3.858 2.316c.28.35.42.772.28 1.193a7.556 7.556 0 0 1-2.314 3.86c-.351.28-.772.42-1.193.28a7.55 7.55 0 0 1-3.857-2.316c-.28-.35-.421-.772-.28-1.193a7.556 7.556 0 0 1 2.314-3.86c.28-.28.771-.35 1.192-.28zM18.797 4c1.122 1.053 1.893 2.456 2.244 3.93.07.42 0 .912-.35 1.193-1.053 1.123-2.455 1.895-3.928 2.245-.421.07-.912 0-1.193-.35-1.122-1.053-1.893-2.457-2.244-3.93-.07-.421 0-.913.35-1.193C14.73 4.772 16.133 4 17.605 3.649c.491-.07.912.07 1.193.351zm39.767 15.018c-1.052 1.122-2.384 1.964-3.857 2.315-.421.14-.912 0-1.192-.28-1.123-1.053-1.964-2.386-2.315-3.86-.14-.421 0-.912.28-1.193 1.053-1.123 2.385-1.965 3.858-2.316.42-.14.912 0 1.192.28 1.123 1.054 1.964 2.387 2.315 3.86.14.422.07.843-.28 1.194zm-9.889-11.93c-.35 1.473-1.122 2.877-2.244 3.93-.351.28-.772.42-1.193.35-1.473-.35-2.875-1.122-3.927-2.245-.28-.351-.421-.772-.351-1.193.35-1.474 1.122-2.877 2.244-3.93.351-.28.772-.421 1.193-.35 1.473.35 2.875 1.122 3.927 2.245.28.35.421.772.351 1.193zM32.684 39.579c2.595-3.93 4.418-8.421 5.05-13.333 0-.21.14-.351.28-.421s.35-.07.491.07a19.42 19.42 0 0 0 6.102 3.158c.28.07.491.35.42.701a38.585 38.585 0 0 1-6.732 15.299c-.07.14-.28.21-.421.28-.21 0-.35 0-.491-.14-1.753-1.333-3.296-2.947-4.7-4.632-.14-.28-.21-.631 0-.982zM30.51 52.421c-6.874-5.684-11.783-13.614-13.607-22.667-.07-.28.14-.561.42-.701a19.42 19.42 0 0 0 6.103-3.158c.14-.14.35-.14.49-.07.141.07.281.21.281.42A31.534 31.534 0 0 0 36.05 46.878c.14.14.21.28.21.421 0 .21 0 .351-.14.491-1.472 1.685-3.015 3.229-4.699 4.632-.21.28-.63.28-.911 0zM59.266 32.702c1.964-1.123 3.016-3.369 2.665-5.544 0-.14-.14-.28-.28-.351a.432.432 0 0 0-.492.07 19.609 19.609 0 0 1-13.255 2.948c-.281-.07-.562.14-.632.49a42.617 42.617 0 0 1-3.296 9.825.6.6 0 0 0 0 .492c.07.14.21.28.35.35 3.718 1.614 7.786 2.597 11.994 2.667.28 0 .561-.14.701-.42 1.333-3.3 2.175-6.808 2.245-10.527z"/>
        <path d="M36.892 24.421c1.473-.21 14.87-2.596 10.1-6.386a38.986 38.986 0 0 0-13.747-7.158 8.385 8.385 0 0 0-4.559 0c-5.05 1.474-9.749 3.93-13.747 7.158-4.77 3.86 8.627 6.176 10.1 6.386 1.052 2.877 3.226 6.807 5.891 6.807 2.736 0 4.98-3.93 5.962-6.807zM5.05 43.158a27.778 27.778 0 0 1-2.315-10.526C.772 31.509-.21 29.263.14 27.088c0-.14.14-.281.28-.351.141-.07.352-.07.492.07 3.927 2.597 8.627 3.579 13.256 2.947.28-.07.56.14.63.492a42.617 42.617 0 0 0 3.297 9.824.6.6 0 0 1 0 .491c-.07.14-.21.281-.35.351-3.718 1.614-7.786 2.597-11.994 2.667-.28.07-.56-.14-.701-.421zM44.467 60.14c-4.068 1.965-8.627 3.018-13.396 3.018-.772 0-1.543 0-2.315-.07-.14 0-.28-.07-.42-.21-.07-.141-.14-.282-.07-.422 2.033-7.86 9.187-13.614 17.674-13.614 3.577 0 5.33 1.684 5.33 3.93 0 2.807-2.244 5.193-6.803 7.368zM17.604 60.14c2.385 1.123 4.98 2.035 7.715 2.527.351.07.632-.14.702-.492.631-2.526 1.753-4.912 3.226-7.017.21-.28.21-.702-.07-.912a18.211 18.211 0 0 0-13.045-5.474c-3.577 0-5.33 1.684-5.33 3.93-.071 2.877 2.173 5.263 6.802 7.438z"/>
    </g>
</svg>
