<svg xmlns="http://www.w3.org/2000/svg" xmlns:xlink="http://www.w3.org/1999/xlink" width="21" height="23" viewBox="0 0 21 23">
    <defs>
        <path id="a" d="M0 0h24v24H0z"/>
    </defs>
    <g fill="none" fill-rule="evenodd" transform="translate(-1 -1)">
        <mask id="b" fill="#fff">
            <use xlink:href="#a"/>
        </mask>
        <path fill="#FFF" d="M9.28 25.172l1.232-5.162c3.33-.048 5.834-3.497 6.843-8.07.33-1.497 1.095-5.541.544-8.078a.447.447 0 0 0-.442-.346.45.45 0 0 0-.442.345l-2.063 9.346a.782.782 0 0 1-.353.493.839.839 0 0 1-.612.11l-.047-.01a.785.785 0 0 1-.627-.929l2.053-9.3c.102-.46-.202-.911-.68-1.009a.924.924 0 0 0-.682.116.852.852 0 0 0-.383.536l-2.053 9.3a.785.785 0 0 1-.353.494.837.837 0 0 1-.612.11l-.046-.01a.784.784 0 0 1-.627-.93l2.053-9.299a.826.826 0 0 0-.124-.64.889.889 0 0 0-.557-.37c-.487-.1-.965.2-1.068.668L8.185 11.82a.783.783 0 0 1-.353.495.842.842 0 0 1-.612.109l-.047-.01a.785.785 0 0 1-.627-.93l2.072-9.384a.43.43 0 0 0-.242-.481.465.465 0 0 0-.545.109c-1.726 1.963-2.81 5.926-3.183 7.61-1.009 4.573-.18 8.705 3.183 10.122l-1.899 7.132" mask="url(#b)" transform="rotate(23 11.17 14.084)"/>
    </g>
</svg>
