<svg xmlns="http://www.w3.org/2000/svg" width="72" height="72" viewBox="0 0 72 72">
    <path fill="#1D1D1D" fill-opacity=".2" fill-rule="nonzero" d="M14.4 0h43.2C65.553 0 72 6.447 72 14.4v43.2C72 65.553 65.553 72 57.6 72H14.4C6.447 72 0 65.553 0 57.6V14.4C0 6.447 6.447 0 14.4 0zm13.355 21.601a.786.786 0 0 0-.215.09l-7.282 3.644a.712.712 0 0 0-.457.608.698.698 0 0 0 .376.654.805.805 0 0 0 .795-.018l7.282-3.644a.692.692 0 0 0 .38-.797c-.085-.315-.389-.537-.737-.537a.812.812 0 0 0-.095 0h-.047zm17.825.178a.734.734 0 0 0-.627.594.698.698 0 0 0 .413.74l7.21 3.8c.369.19.832.065 1.036-.279.204-.343.07-.776-.297-.966l-7.211-3.8a.8.8 0 0 0-.357-.089.812.812 0 0 0-.096 0 .813.813 0 0 0-.071 0zm-19.896 6.222c-1.664-.019-3.026 1.247-3.046 2.8-.01 1.554 1.333 2.848 2.998 2.867 1.663.018 3.034-1.242 3.047-2.8.017-1.552-1.34-2.848-2.999-2.867zm22.133.222c-1.662-.016-3.05 1.251-3.07 2.8-.02 1.554 1.335 2.848 2.999 2.867 1.664.01 3.05-1.245 3.07-2.8.02-1.553-1.33-2.855-2.999-2.867zM36.322 41.001c-6.182.025-11.754 2.912-15.588 7.444a.68.68 0 0 0 .119 1 .8.8 0 0 0 1.07-.112c3.646-4.307 8.87-6.971 14.661-6.91 5.791.054 10.976 2.818 14.517 7.2a.79.79 0 0 0 .706.274.759.759 0 0 0 .607-.434.675.675 0 0 0-.099-.707C48.53 44.072 42.908 41.06 36.608 41h-.286z"/>
</svg>
