<svg xmlns="http://www.w3.org/2000/svg" xmlns:xlink="http://www.w3.org/1999/xlink" width="128" height="40" viewBox="0 0 128 40">
    <defs>
        <ellipse id="a" cx="20.078" cy="20" rx="20.078" ry="20"/>
    </defs>
    <g fill="none" fill-rule="evenodd">
        <g>
            <mask id="b" fill="#fff">
                <use xlink:href="#a"/>
            </mask>
            <use fill="#EC1C24" xlink:href="#a"/>
            <g fill="#FAFAF9" mask="url(#b)">
                <path d="M22.098 4.974a4.2 4.2 0 0 1 0 2.28.662.662 0 0 1-.456.457c-.736.21-1.543.21-2.28 0a.662.662 0 0 1-.455-.457 4.2 4.2 0 0 1 0-2.28c.07-.21.21-.386.456-.456a4.192 4.192 0 0 1 2.28 0c.245.07.385.245.455.456zm-13.747 6a3.775 3.775 0 0 1 1.929 1.158c.14.175.21.386.14.596a3.778 3.778 0 0 1-1.157 1.93c-.175.14-.386.21-.596.14a3.775 3.775 0 0 1-1.929-1.158c-.14-.175-.21-.386-.14-.596a3.778 3.778 0 0 1 1.157-1.93c.14-.14.386-.175.596-.14zm6.067-4.807a3.967 3.967 0 0 1 1.122 1.965c.035.21 0 .456-.175.596A3.964 3.964 0 0 1 13.4 9.851c-.21.035-.456 0-.596-.176a3.967 3.967 0 0 1-1.122-1.964c-.035-.211 0-.457.175-.597a3.964 3.964 0 0 1 1.964-1.123c.245-.035.456.035.596.176zm19.884 7.508c-.526.562-1.193.983-1.929 1.158-.21.07-.456 0-.596-.14-.561-.526-.982-1.193-1.157-1.93-.07-.21 0-.456.14-.596.526-.562 1.192-.983 1.929-1.158.21-.07.456 0 .596.14.56.526.982 1.193 1.157 1.93.07.21.035.421-.14.596zm-4.945-5.964a3.967 3.967 0 0 1-1.122 1.964.756.756 0 0 1-.596.176 3.964 3.964 0 0 1-1.964-1.123.757.757 0 0 1-.175-.596 3.967 3.967 0 0 1 1.122-1.965.756.756 0 0 1 .596-.176 3.964 3.964 0 0 1 1.964 1.123c.14.175.21.386.175.597zM21.362 23.956c1.297-1.965 2.209-4.21 2.524-6.667 0-.105.07-.175.14-.21a.216.216 0 0 1 .246.035 9.71 9.71 0 0 0 3.051 1.579c.14.035.246.175.21.35a19.293 19.293 0 0 1-3.366 7.65c-.035.07-.14.105-.21.14-.106 0-.176 0-.246-.07-.877-.667-1.648-1.474-2.35-2.316-.07-.14-.105-.315 0-.49zM20.274 30.377a19.779 19.779 0 0 1-6.803-11.333c-.035-.14.07-.28.21-.351a9.71 9.71 0 0 0 3.051-1.579c.07-.07.176-.07.246-.035s.14.105.14.21a15.767 15.767 0 0 0 5.927 10.316c.07.07.105.14.105.21 0 .106 0 .176-.07.246a20.904 20.904 0 0 1-2.35 2.316c-.105.14-.315.14-.456 0zM34.652 20.518a2.719 2.719 0 0 0 1.333-2.772c0-.07-.07-.14-.14-.176a.216.216 0 0 0-.246.035 9.804 9.804 0 0 1-6.628 1.474c-.14-.035-.28.07-.315.246a21.308 21.308 0 0 1-1.648 4.912.3.3 0 0 0 0 .245c.035.07.105.14.175.176 1.859.807 3.892 1.298 5.997 1.333.14 0 .28-.07.35-.21.667-1.65 1.087-3.404 1.122-5.263z"/>
                <path d="M23.466 16.377c.736-.105 7.434-1.298 5.05-3.193a19.493 19.493 0 0 0-6.874-3.579 4.192 4.192 0 0 0-2.28 0 19.797 19.797 0 0 0-6.873 3.58c-2.384 1.929 4.314 3.087 5.05 3.192.526 1.439 1.613 3.404 2.946 3.404 1.367 0 2.49-1.965 2.98-3.404zM7.545 25.746a13.89 13.89 0 0 1-1.158-5.264c-.982-.56-1.473-1.684-1.297-2.771 0-.07.07-.14.14-.176a.216.216 0 0 1 .245.035c1.964 1.298 4.314 1.79 6.628 1.474.14-.035.281.07.316.245.35 1.72.912 3.369 1.648 4.913a.3.3 0 0 1 0 .245.423.423 0 0 1-.175.176c-1.859.807-3.893 1.298-5.997 1.333-.14.035-.28-.07-.35-.21zM27.253 34.237a15.366 15.366 0 0 1-6.698 1.509c-.386 0-.772 0-1.157-.035-.07 0-.14-.036-.21-.106-.036-.07-.07-.14-.036-.21a9.114 9.114 0 0 1 8.837-6.807c1.789 0 2.666.842 2.666 1.965 0 1.403-1.123 2.596-3.402 3.684zM13.822 34.237c1.192.561 2.49 1.017 3.857 1.263.176.035.316-.07.351-.246a10.659 10.659 0 0 1 1.613-3.508c.105-.14.105-.351-.035-.457a9.106 9.106 0 0 0-6.523-2.736c-1.788 0-2.665.842-2.665 1.965-.035 1.438 1.087 2.631 3.402 3.719z"/>
            </g>
            <path fill="#44AF69" d="M0 31h40v9H0z" mask="url(#b)"/>
            <path fill="#FFF" fill-rule="nonzero" d="M15 36.82v-2.8h1.3c.323 0 .567.083.732.248.128.128.192.29.192.484 0 .264-.123.465-.368.604a.916.916 0 0 1 .392.262.666.666 0 0 1 .132.434c0 .25-.093.441-.28.572-.187.13-.443.196-.768.196H15zm.6-1.668h.568c.296 0 .444-.101.444-.304a.246.246 0 0 0-.104-.214.514.514 0 0 0-.3-.074H15.6v.592zm0 1.128h.732c.29 0 .436-.104.436-.312 0-.203-.152-.304-.456-.304H15.6v.616zm2.288.54v-2.8H20v.548h-1.5v.568h1.32v.548H18.5v.588h1.52v.548h-2.132zm3.332 0v-2.232h-.852v-.568h2.32v.568h-.852v2.232h-.616zm1.7 0l1.2-2.82h.568l1.2 2.82h-.644l-.256-.628h-1.184l-.256.628h-.628zm1.104-1.172h.744l-.372-.908-.372.908z" mask="url(#b)"/>
        </g>
        <g fill="#231F20">
            <path d="M92.364 17.29h3.19c.281 0 .562-.14.737-.386l4.208-6.492v6.386c0 .28.21.527.491.527h2.876c.28 0 .491-.246.491-.527V5.078c0-.28-.21-.525-.491-.525h-3.191c-.28 0-.561.14-.737.386l-4.208 6.49V5.045c0-.28-.21-.526-.49-.526h-2.876c-.281 0-.491.245-.491.526v11.72c-.035.28.21.525.49.525zM74.76 17.29h13.816c.702 0 1.263-.562 1.263-1.264V5.08c0-.28-.21-.526-.491-.526h-2.876c-.28 0-.49.245-.49.526v9.053h-2.315V5.079c0-.28-.21-.526-.491-.526H80.3c-.28 0-.491.245-.491.526v9.053h-2.385V5.079c0-.28-.21-.526-.49-.526h-2.876c-.28 0-.491.245-.491.526v10.947c-.07.667.49 1.263 1.192 1.263zM54.735 4.272c1.227 0 2.244.175 3.156.491.316.105.491.386.491.737v2.105c0 .176-.07.316-.245.421a.494.494 0 0 1-.491.035 6.211 6.211 0 0 0-2.42-.49c-2.35 0-3.437 1.368-3.437 3.333 0 1.964 1.122 3.333 3.437 3.333.842 0 1.683-.176 2.42-.491a.494.494 0 0 1 .49.035.458.458 0 0 1 .246.42v2.106c0 .316-.21.597-.49.737-.878.316-1.93.491-3.157.491-5.155 0-6.979-3.228-6.979-6.631 0-3.404 1.824-6.632 6.979-6.632zM68.903 4.518h2.875a.5.5 0 0 1 .421.21c.105.14.105.316.035.491L67.57 16.8a.763.763 0 0 1-.701.49h-2.876a.5.5 0 0 1-.42-.21c-.106-.14-.106-.316-.036-.491l1.087-2.702h-.526c-.947 0-1.367-.561-1.613-1.193L59.47 5.254c-.07-.175-.035-.315.035-.49a.5.5 0 0 1 .421-.211h2.876c.315 0 .596.175.701.49l2.35 5.79 2.35-5.79a.706.706 0 0 1 .7-.525z"/>
            <g>
                <path d="M92.82 25.325h3.156v9.052c0 .28.21.527.49.527h2.876c.28 0 .491-.246.491-.527v-9.052h3.156c.28 0 .491-.246.491-.527v-2.175c0-.28-.21-.527-.49-.527H92.783c-.28 0-.49.246-.49.527v2.175c0 .28.245.527.525.527zm24.968-3.193h5.646c5.716 0 5.716 9.579 0 9.579h-3.016v2.666c0 .28-.21.527-.49.527h-2.876c-.28 0-.491-.246-.491-.527V23.395c-.035-.702.526-1.263 1.227-1.263zm2.63 3.193v3.193h2.14c1.718 0 1.718-3.193 0-3.193h-2.14zm-11.537 0h5.435c.281 0 .491-.246.491-.527v-2.175c0-.28-.21-.527-.49-.527h-8.101c-.702 0-1.263.562-1.263 1.264v10.21c0 .702.561 1.263 1.263 1.263h8.1c.281 0 .491-.245.491-.526v-2.175c0-.281-.21-.527-.49-.527h-5.471v-1.579h4.769c.28 0 .491-.245.491-.526v-2.175c0-.281-.21-.527-.491-.527h-4.734v-1.473zm-21.602-3.439c1.227 0 2.244.175 3.156.491.315.105.49.386.49.737v2.105c0 .176-.07.316-.245.421-.14.106-.315.106-.49.035a6.211 6.211 0 0 0-2.42-.49c-2.35 0-3.437 1.368-3.437 3.333 0 1.964 1.122 3.333 3.437 3.333.841 0 1.683-.176 2.42-.491a.494.494 0 0 1 .49.035c.14.105.246.245.246.42v2.106c0 .316-.21.597-.491.737-.877.316-1.929.491-3.156.491-5.155 0-6.979-3.228-6.979-6.631 0-3.404 1.824-6.632 6.979-6.632zm-16.307.246h4.98c.315 0 .596.21.666.49l3.542 11.58c.035.175.035.316-.07.456a.5.5 0 0 1-.421.21h-2.7c-.316 0-.597-.21-.667-.49l-.49-1.58h-4.7l-.49 1.58c-.106.315-.352.49-.667.49h-2.7a.5.5 0 0 1-.421-.21c-.106-.14-.14-.28-.07-.456l3.541-11.58c.106-.28.351-.49.667-.49zm3.857 7.473l-1.367-4.35-1.368 4.35h2.735zM59.925 22.482l-2.455 5.229-2.49-5.229a.625.625 0 0 0-.56-.35h-3.297a.642.642 0 0 0-.631.561l-1.158 11.614c0 .14.036.28.14.386.106.105.211.175.387.175h2.875a.642.642 0 0 0 .631-.561l.597-6.035 2.104 4.491c.105.21.315.316.56.316h1.72c.245 0 .455-.105.56-.316l2.07-4.491.595 6a.642.642 0 0 0 .632.561h2.875c.14 0 .28-.07.386-.175a.528.528 0 0 0 .14-.386L64.45 22.658a.642.642 0 0 0-.631-.562h-3.262c-.315.036-.526.176-.63.386z"/>
            </g>
        </g>
    </g>
</svg>
