<svg xmlns="http://www.w3.org/2000/svg" width="64" height="64" viewBox="0 0 64 64">
    <g fill="none" fill-rule="nonzero">
        <circle cx="32" cy="32" r="32" fill="#E9724C"/>
        <path fill="#FFF" d="M42.837 29.5c0-2.4-1.91-4.35-4.261-4.35-2.352 0-4.298 1.95-4.298 4.35 0 2.4 1.91 4.35 4.26 4.35 2.352 0 4.299-1.912 4.299-4.35zM32.33 30.925c-.662 0-1.176-.525-1.176-1.2 0-.675.514-1.2 1.176-1.2.66 0 1.175.525 1.175 1.2 0 .675-.514 1.2-1.175 1.2zm12.416 0c-.661 0-1.176-.525-1.176-1.2 0-.675.515-1.2 1.176-1.2.661 0 1.175.525 1.175 1.2.037.675-.514 1.2-1.175 1.2zm5.18-6.525v10.237c0 1.088-.882 1.988-1.947 1.988H35.6v-1.5-.075-.15h10.36c-.038-.113-.038-.263-.038-.375 0-1.125.882-2.025 1.984-2.025.11 0 .22 0 .33.037v-6.074c-.073 0-.183.037-.33.037-1.102 0-1.984-.9-1.984-2.025 0-.113 0-.263.037-.375H31.486c.036.15.073.337.073.487 0 1.126-.881 2.026-1.983 2.026-.184 0-.331-.038-.478-.075V31c-.257 0-.514-.037-.808-.037-.294 0-.588 0-.882.037v-6.6c0-1.088.882-1.988 1.947-1.988h18.588c1.102 0 1.984.9 1.984 1.988zM14.073 37.937c0 .6.331 1.426 1.984 2.063 1.065.413 2.498.637 4.004.637.33 0 .625 0 .955-.037v-1.35c-.294.038-.624.038-.955.038-1.359 0-2.608-.188-3.526-.563-.919-.337-1.14-.712-1.14-.787v-.825c.185.112.405.187.662.3 1.065.412 2.498.637 4.004.637.33 0 .625 0 .955-.037V36.625c-.294.038-.624.038-.955.038-1.359 0-2.608-.188-3.526-.563-.919-.337-1.14-.712-1.14-.787v-.825c.185.112.405.187.662.3 1.065.412 2.498.637 4.004.637.33 0 .625 0 .955-.037v-.338c0-.3.037-.675.22-1.125-.367.038-.77.038-1.175.038-1.359 0-2.608-.188-3.526-.563-.919-.337-1.14-.712-1.14-.787v-.825c.185.112.405.187.662.3 1.065.412 2.498.637 4.004.637.808 0 1.58-.075 2.278-.187.404-.3.881-.6 1.543-.825.624-.225 1.396-.413 2.167-.563v-1.087-.038V27.438 27.4 24.813v-.038c0-.6-.33-1.425-1.984-2.062-1.065-.413-2.498-.638-4.004-.638-1.506 0-2.902.225-4.004.638-1.653.637-1.984 1.462-1.984 2.062v13.163zm2.425-13.95c.918-.337 2.204-.562 3.526-.562 1.36 0 2.609.188 3.527.563.882.337 1.102.675 1.139.787v.038c0 .112-.22.45-1.139.787-.918.338-2.204.563-3.527.563-1.359 0-2.608-.188-3.526-.563-.918-.337-1.139-.712-1.139-.787.037-.113.22-.45 1.139-.825zm-1.102 2.588c.184.112.404.188.661.3 1.065.412 2.498.638 4.004.638 1.506 0 2.902-.226 4.004-.638.257-.112.478-.188.662-.3v.825c0 .112-.22.45-1.14.787-.918.338-2.203.563-3.526.563-1.359 0-2.608-.188-3.526-.563-.919-.337-1.14-.712-1.14-.787v-.825zm0 2.625c.184.112.404.188.661.3 1.065.412 2.498.637 4.004.637 1.506 0 2.902-.225 4.004-.637.257-.112.478-.188.662-.3v.825c0 .112-.22.45-1.14.787-.918.338-2.203.563-3.526.563-1.359 0-2.608-.188-3.526-.563-.919-.337-1.14-.712-1.14-.787V29.2zm6.906 11.137V42.925c0 .6.33 1.425 1.984 2.063 1.065.412 2.498.637 4.004.637 1.506 0 2.902-.225 4.004-.637 1.653-.638 1.984-1.463 1.984-2.063V40.337 40.3 37.712v-.037V35.087v-.037c0-.6-.331-1.425-1.984-2.063-1.065-.412-2.498-.637-4.004-.637-1.506 0-2.902.225-4.004.637-1.653.638-1.984 1.463-1.984 2.063v5.287zm2.461-6.075c.919-.337 2.204-.562 3.527-.562 1.359 0 2.608.188 3.526.563.882.337 1.102.675 1.14.787v.038c0 .112-.221.45-1.14.787-.918.338-2.204.563-3.526.563-1.36 0-2.608-.188-3.527-.563-.918-.337-1.139-.712-1.139-.787 0-.113.22-.488 1.14-.825zm-1.139 2.55c.184.113.405.188.662.3 1.102.413 2.498.638 4.004.638 1.506 0 2.902-.225 4.004-.637.257-.113.477-.188.661-.3v.824c0 .113-.22.45-1.139.788-.918.338-2.204.563-3.526.563-1.36 0-2.608-.188-3.527-.563-.918-.337-1.139-.712-1.139-.787v-.825zm0 2.626c.184.112.405.187.662.3 1.102.412 2.498.637 4.004.637 1.506 0 2.902-.225 4.004-.637.257-.113.477-.188.661-.3v.824c0 .113-.22.45-1.139.788-.918.338-2.204.563-3.526.563-1.36 0-2.608-.188-3.527-.563-.918-.337-1.139-.712-1.139-.787v-.825zm0 2.624c.184.113.405.188.662.3 1.102.413 2.498.638 4.004.638 1.506 0 2.902-.225 4.004-.637.257-.113.477-.188.661-.3v.824c0 .113-.22.45-1.139.788-.918.338-2.204.563-3.526.563-1.36 0-2.608-.188-3.527-.563-.918-.337-1.139-.712-1.139-.787v-.825z"/>
    </g>
</svg>
