<svg xmlns="http://www.w3.org/2000/svg" width="17" height="22" viewBox="0 0 17 22">
    <g fill="none" fill-rule="evenodd">
        <path d="M-4-1h24v24H-4z"/>
        <path fill="#FFF" fill-rule="nonzero" d="M13.767 7.751l-.92-1.153a.24.24 0 0 0-.35-.035c-2 1.862-10.479 13.291-11.226 15.314-.05.133.026.165.12.06L13.756 8.142a.312.312 0 0 0 .011-.39zM.15 21.22c.035.138.12.155.197.036l10.17-15.671a.212.212 0 0 0-.09-.319L8.94 4.59a.276.276 0 0 0-.352.121C5.702 10.018 2.852 15.257.021 20.507c-.063.117.029.323.128.713zM11.443.038a.238.238 0 0 0-.338.088c-.323.576-.6 1.065-.87 1.558-1.013 1.84-1.052 1.912.782 2.675.129.053.295 0 .372-.118l1.805-2.79a.251.251 0 0 0-.074-.35L11.443.038zm3.698 2.913c-2.236 2.224-2.304 2.58-.541 3.874.112.082.28.063.374-.041l1.96-2.187a.257.257 0 0 0-.017-.36c-.47-.433-.917-.842-1.408-1.293a.269.269 0 0 0-.368.007z"/>
    </g>
</svg>
