<svg xmlns="http://www.w3.org/2000/svg" width="110" height="32" viewBox="0 0 110 32">
    <defs>
        <linearGradient id="a" x1="64.654%" x2="39.654%" y1="15.804%" y2="74.137%">
            <stop offset="0%" stop-color="#37AEE2"/>
            <stop offset="100%" stop-color="#1E96C8"/>
        </linearGradient>
        <linearGradient id="b" x1="61.344%" x2="80.498%" y1="47.997%" y2="73.688%">
            <stop offset="0%" stop-color="#EFF7FC"/>
            <stop offset="100%" stop-color="#FFF"/>
        </linearGradient>
    </defs>
    <g fill="none" fill-rule="nonzero">
        <path fill="#A6A6A6" d="M106.086 32H3.853C1.73 32 0 30.298 0 28.214V3.78C0 1.696 1.729 0 3.853 0h102.233C108.21 0 110 1.696 110 3.78v24.434c0 2.084-1.79 3.786-3.914 3.786z"/>
        <path fill="#000" d="M109 27.993c0 1.661-1.39 3.007-3.11 3.007H4.114C2.395 31 1 29.654 1 27.993V4.01C1 2.351 2.395 1 4.114 1H105.89c1.72 0 3.11 1.35 3.11 3.011L109 27.993z"/>
        <path fill="url(#a)" d="M20 10c0 5.525-4.475 10-10 10S0 15.525 0 10 4.475 0 10 0s10 4.475 10 10z" transform="translate(8 5)"/>
        <path fill="#C8DAEA" d="M16.167 19.583c-.325 0-.267-.125-.384-.433l-.95-3.133 5.9-3.684.692.184-.575 1.566-4.683 5.5z"/>
        <path fill="#A9C9DD" d="M16.167 19.583c.25 0 .358-.116.5-.25.216-.208 3-2.916 3-2.916L17.958 16l-1.583 1-.208 2.5v.083z"/>
        <path fill="url(#b)" d="M8.333 12.033l4.034 2.975c.458.25.791.125.908-.425l1.642-7.733c.166-.675-.259-.975-.7-.775L4.583 9.792c-.658.266-.65.633-.116.791l2.475.775 5.725-3.608c.266-.167.516-.075.316.108l-4.65 4.175z" transform="translate(8 5)"/>
        <path fill="#FFF" fill-opacity=".8" d="M39.879 11h-.672V9.18h-.062c-.223.191-.56.32-1.016.32-1.012 0-1.54-.61-1.54-1.508V6.79h.673v1.203c0 .555.297.91.87.91.528 0 .88-.195 1.075-.414V6.79h.672V11zm2.637-.516c.691 0 1.203-.453 1.203-1.054v-.387l-1.133.074c-.64.043-.922.266-.922.688 0 .43.363.68.852.68zm-.125.59c-.817 0-1.422-.484-1.422-1.254 0-.754.554-1.187 1.535-1.246l1.215-.074v-.383c0-.52-.324-.805-.953-.805-.504 0-.856.192-.95.524h-.68c.09-.676.755-1.121 1.653-1.121 1.027 0 1.602.527 1.602 1.402V11h-.641v-.621h-.063c-.273.45-.734.695-1.296.695zm6.367-4.285v.563H47.39V11h-.672V7.352h-1.367v-.563h3.406zm3.48 2.262h-2.562v-.637h2.562v.637zM54.184 11h-.672V6.79h.816l1.508 3.265h.062l1.512-3.266h.785V11h-.675V8.004h-.075l-1.332 2.879h-.523l-1.332-2.88h-.074V11zm6.648-.516c.691 0 1.203-.453 1.203-1.054v-.387l-1.133.074c-.64.043-.922.266-.922.688 0 .43.364.68.852.68zm-.125.59c-.816 0-1.422-.484-1.422-1.254 0-.754.555-1.187 1.535-1.246l1.215-.074v-.383c0-.52-.324-.805-.953-.805-.504 0-.855.192-.95.524h-.679c.09-.676.754-1.121 1.652-1.121 1.028 0 1.602.527 1.602 1.402V11h-.64v-.621h-.063c-.274.45-.734.695-1.297.695zm6.012-3.722h-2.024V11h-.672V6.79h2.696v.562zm2.32 3.132c.691 0 1.203-.453 1.203-1.054v-.387l-1.133.074c-.64.043-.921.266-.921.688 0 .43.363.68.851.68zm-.125.59c-.816 0-1.422-.484-1.422-1.254 0-.754.555-1.187 1.535-1.246l1.215-.074v-.383c0-.52-.324-.805-.953-.805-.504 0-.855.192-.95.524h-.679c.09-.676.754-1.121 1.653-1.121 1.027 0 1.601.527 1.601 1.402V11h-.64v-.621h-.063c-.273.45-.734.695-1.297.695zm4.75-.004c-.914 0-1.598-.449-1.672-1.148h.692c.082.367.453.582.98.582.621 0 .988-.293.988-.711 0-.48-.343-.7-.988-.7h-.656v-.562h.656c.531 0 .828-.207.828-.629 0-.355-.277-.617-.828-.617-.504 0-.879.219-.934.559h-.664c.09-.692.715-1.13 1.598-1.13.95 0 1.492.466 1.492 1.138 0 .418-.27.793-.683.886v.063c.558.12.847.472.847.957 0 .781-.675 1.312-1.656 1.312zm3.453-.07h-.672V6.79h.672v3.14h.063l2.097-3.14h.672V11h-.672V7.86h-.062L77.117 11zm6.942 0V9.094h-2.102V11h-.672V6.79h.672V8.53h2.102V6.79h.671V11h-.671z"/>
        <path fill="#FFF" d="M40.935 22.805h-1.617v-6.25H37v-1.36h6.253v1.36h-2.318v6.25zm8.865-1.36v1.36h-5.118v-7.61H49.8v1.36h-3.501v1.778h3.303v1.26h-3.303v1.851h3.5zm6.756-.027v1.387h-5.054v-7.61h1.617v6.223h3.437zm6.584.026v1.36h-5.118v-7.609h5.118v1.36h-3.5v1.778h3.302v1.26H59.64v1.851h3.501zm8.49-1.745c0 2.035-1.316 3.301-3.426 3.301-2.296 0-3.704-1.519-3.704-4.008C64.5 16.54 65.919 15 68.167 15c1.826 0 3.17 1.039 3.394 2.621h-1.606c-.24-.77-.889-1.218-1.788-1.218-1.247 0-2.013.975-2.013 2.573 0 1.63.803 2.621 2.077 2.621 1.06 0 1.794-.617 1.826-1.534l.005-.137h-1.675v-1.198h3.244v.97zm3.164-3.217v2.341h1.42c.813 0 1.29-.432 1.29-1.165 0-.723-.504-1.176-1.307-1.176h-1.403zm0 3.565v2.758h-1.616v-7.61h3.244c1.697 0 2.74.928 2.74 2.442 0 .97-.513 1.814-1.402 2.162l1.628 3.006h-1.831l-1.44-2.758h-1.323zm10.959 2.758l-.584-1.814h-2.714l-.594 1.814h-1.622l2.682-7.61h1.9l2.682 7.61h-1.75zm-1.981-6.028l-.969 2.985h2.024l-.959-2.985h-.096zM97 22.805h-1.499v-5.09h-.086l-1.964 4.652h-1.076l-1.97-4.651h-.086v5.089H88.82v-7.61h1.906l2.136 5.115h.096l2.142-5.115H97v7.61z"/>
    </g>
</svg>
