<svg xmlns="http://www.w3.org/2000/svg" width="64" height="64" viewBox="0 0 64 64">
    <g fill="none" fill-rule="evenodd">
        <circle cx="32" cy="32" r="32" fill="#E9724C" fill-rule="nonzero"/>
        <g fill="#FFF">
            <path fill-rule="nonzero" d="M32 20.686c-6.755 0-12.25 5.495-12.25 12.25 0 3.335 1.342 6.358 3.51 8.57l-2.254 2.253a1.312 1.312 0 0 0 .93 2.241c.336 0 .672-.128.928-.384L25.3 43.18a12.172 12.172 0 0 0 6.7 2.007c2.473 0 4.772-.742 6.699-2.005l2.434 2.434a1.309 1.309 0 0 0 1.855 0 1.312 1.312 0 0 0 0-1.856l-2.251-2.251a12.207 12.207 0 0 0 3.513-8.573c0-6.755-5.495-12.25-12.25-12.25zm4.848 16.188a1.284 1.284 0 0 1-.928.385 1.27 1.27 0 0 1-.928-.385l-3.92-3.92a1.311 1.311 0 0 1-.385-.928v-3.955A1.31 1.31 0 0 1 32 26.76a1.31 1.31 0 0 1 1.313 1.312v3.413l3.534 3.535a1.32 1.32 0 0 1 0 1.855z"/>
            <path d="M40.242 18.009a5.71 5.71 0 0 0-4.322 1.951 13.575 13.575 0 0 1 8.566 7.683A5.739 5.739 0 0 0 46 23.766a5.768 5.768 0 0 0-5.758-5.757zM28.185 19.925A5.841 5.841 0 0 0 23.845 18 5.855 5.855 0 0 0 18 23.845a5.87 5.87 0 0 0 1.479 3.876 13.604 13.604 0 0 1 8.706-7.796z"/>
        </g>
    </g>
</svg>
