<svg xmlns="http://www.w3.org/2000/svg" width="110" height="32" viewBox="0 0 110 32">
    <g fill="none" fill-rule="evenodd">
        <path fill="#A6A6A6" fill-rule="nonzero" d="M106.086 32H3.853C1.73 32 0 30.298 0 28.214V3.78C0 1.696 1.729 0 3.853 0h102.233C108.21 0 110 1.696 110 3.78v24.434c0 2.084-1.79 3.786-3.914 3.786z"/>
        <path fill="#000" fill-rule="nonzero" d="M109 27.993c0 1.661-1.39 3.007-3.11 3.007H4.114C2.395 31 1 29.654 1 27.993V4.01C1 2.351 2.395 1 4.114 1H105.89c1.72 0 3.11 1.35 3.11 3.011L109 27.993z"/>
        <path fill="#FFF" fill-opacity=".8" fill-rule="nonzero" d="M42.879 11h-.672V9.18h-.062c-.223.191-.56.32-1.016.32-1.012 0-1.54-.61-1.54-1.508V6.79h.673v1.203c0 .555.297.91.87.91.528 0 .88-.195 1.075-.414V6.79h.672V11zm2.637-.516c.691 0 1.203-.453 1.203-1.054v-.387l-1.133.074c-.64.043-.922.266-.922.688 0 .43.363.68.852.68zm-.125.59c-.817 0-1.422-.484-1.422-1.254 0-.754.554-1.187 1.535-1.246l1.215-.074v-.383c0-.52-.324-.805-.953-.805-.504 0-.856.192-.95.524h-.68c.09-.676.755-1.121 1.653-1.121 1.027 0 1.602.527 1.602 1.402V11h-.641v-.621h-.063c-.273.45-.734.695-1.296.695zm6.367-4.285v.563H50.39V11h-.672V7.352h-1.367v-.563h3.406zm3.48 2.262h-2.562v-.637h2.562v.637zM57.184 11h-.672V6.79h.816l1.508 3.265h.062l1.512-3.266h.785V11h-.675V8.004h-.075l-1.332 2.879h-.523l-1.332-2.88h-.074V11zm6.648-.516c.691 0 1.203-.453 1.203-1.054v-.387l-1.133.074c-.64.043-.922.266-.922.688 0 .43.364.68.852.68zm-.125.59c-.816 0-1.422-.484-1.422-1.254 0-.754.555-1.187 1.535-1.246l1.215-.074v-.383c0-.52-.324-.805-.953-.805-.504 0-.855.192-.95.524h-.679c.09-.676.754-1.121 1.652-1.121 1.028 0 1.602.527 1.602 1.402V11h-.64v-.621h-.063c-.274.45-.734.695-1.297.695zm6.012-3.722h-2.024V11h-.672V6.79h2.696v.562zm2.32 3.132c.691 0 1.203-.453 1.203-1.054v-.387l-1.133.074c-.64.043-.921.266-.921.688 0 .43.363.68.851.68zm-.125.59c-.816 0-1.422-.484-1.422-1.254 0-.754.555-1.187 1.535-1.246l1.215-.074v-.383c0-.52-.324-.805-.953-.805-.504 0-.855.192-.95.524h-.679c.09-.676.754-1.121 1.653-1.121 1.027 0 1.601.527 1.601 1.402V11h-.64v-.621h-.063c-.273.45-.734.695-1.297.695zm4.75-.004c-.914 0-1.598-.449-1.672-1.148h.692c.082.367.453.582.98.582.621 0 .988-.293.988-.711 0-.48-.343-.7-.988-.7h-.656v-.562h.656c.531 0 .828-.207.828-.629 0-.355-.277-.617-.828-.617-.504 0-.879.219-.934.559h-.664c.09-.692.715-1.13 1.598-1.13.95 0 1.492.466 1.492 1.138 0 .418-.27.793-.683.886v.063c.558.12.847.472.847.957 0 .781-.675 1.312-1.656 1.312zm3.453-.07h-.672V6.79h.672v3.14h.063l2.097-3.14h.672V11h-.672V7.86h-.062L80.117 11zm6.942 0V9.094h-2.102V11h-.672V6.79h.672V8.53h2.102V6.79h.671V11h-.671z"/>
        <path fill="#FFF" fill-rule="nonzero" d="M45.323 24h-2.495l-3.336-9.864h2.331l2.242 7.54h.123l2.202-7.54h2.221L45.323 24zm7.534 0h-2.064v-9.864h2.064V24zm7.323 0h-4.43v-9.864h4.313c1.915 0 3.056.936 3.056 2.46 0 1.047-.772 1.956-1.784 2.106v.123c1.306.096 2.256 1.08 2.256 2.352 0 1.73-1.306 2.823-3.411 2.823zm-2.366-8.285v2.509h1.552c1.114 0 1.723-.458 1.723-1.251 0-.786-.568-1.258-1.552-1.258h-1.723zm0 6.706h1.84c1.189 0 1.831-.5 1.831-1.422 0-.902-.663-1.38-1.88-1.38h-1.79v2.802zm14.678-.185V24h-6.535v-9.864h6.535v1.763h-4.47v2.304h4.217v1.634h-4.218v2.4h4.471zm4.738-6.432v3.035h1.812c1.04 0 1.647-.56 1.647-1.51 0-.937-.642-1.525-1.668-1.525h-1.79zm0 4.62V24h-2.064v-9.864h4.143c2.167 0 3.5 1.203 3.5 3.165 0 1.258-.657 2.351-1.791 2.803L83.096 24h-2.338l-1.84-3.575H77.23z"/>
        <path fill="#665CAC" fill-rule="nonzero" d="M16.957 22.667c-1.178-.536-2.004-1.092-2.479-1.667-.475-.575-1.025-1.686-1.652-3.333l.826-7.5 2.478-2.5 4.957-.834 5.783.834 3.304 4.166-.826 7.5-2.478 2.5-6.61.834c-1.118 1.263-1.944 2.096-2.477 2.5-.534.403-.81.403-.826 0v-2.5z"/>
        <path fill="#FFF" fill-rule="nonzero" d="M28.83 7.967c-.498-.455-2.506-1.91-6.979-1.931 0 0-5.277-.317-7.849 2.036-1.432 1.428-1.936 3.518-1.987 6.11-.054 2.593-.123 7.447 4.571 8.764h.003l-.003 2.01s-.03.813.508.978c.648.2 1.03-.416 1.65-1.084.34-.365.811-.904 1.165-1.314 3.209.27 5.68-.347 5.958-.437.649-.21 4.317-.68 4.91-5.533.616-5.003-.3-8.17-1.947-9.599zm.543 9.24c-.504 4.053-3.479 4.311-4.025 4.485-.234.074-2.401.613-5.127.434 0 0-2.032 2.443-2.665 3.08-.1.1-.216.141-.294.12-.108-.027-.138-.155-.138-.344.003-.27.018-3.338.018-3.338-.003 0-.003 0 0 0-3.968-1.1-3.737-5.234-3.692-7.398.045-2.165.453-3.938 1.663-5.13 2.176-1.963 6.657-1.67 6.657-1.67 3.785.018 5.598 1.153 6.018 1.533 1.393 1.195 2.104 4.048 1.585 8.228z"/>
        <path stroke="#FFF" stroke-linecap="round" stroke-linejoin="round" stroke-width=".505" d="M23.691 14.072c-.048-.991-.552-1.51-1.513-1.56M24.988 14.506c.02-.922-.252-1.692-.823-2.311-.57-.62-1.36-.964-2.374-1.036"/>
        <path stroke="#FFF" stroke-linecap="round" stroke-linejoin="round" stroke-width=".505" d="M26.318 15.024c-.012-1.602-.493-2.86-1.438-3.781-.946-.92-2.125-1.387-3.533-1.396"/>
        <path fill="#FFF" fill-rule="nonzero" d="M22.23 17.452s.357.03.546-.206l.372-.468c.18-.233.615-.38 1.041-.143.238.134.664.395.928.59.282.206.861.688.861.688.277.23.34.572.153.931 0 .003-.003.006-.003.006-.192.339-.45.659-.777.955l-.006.006c-.267.222-.531.35-.79.38a.444.444 0 0 1-.113.007c-.115 0-.226-.015-.337-.051l-.009-.012c-.399-.111-1.062-.392-2.17-1-.72-.395-1.317-.8-1.822-1.2a9.63 9.63 0 0 1-.873-.78c-.01-.008-.018-.017-.027-.026l-.027-.027a9.621 9.621 0 0 1-.727-.818 12.918 12.918 0 0 1-1.203-1.817c-.61-1.105-.892-1.766-1.003-2.165l-.012-.009a.99.99 0 0 1-.05-.335.44.44 0 0 1 .005-.114c.03-.257.16-.52.381-.787l.006-.006c.298-.326.616-.584.958-.776.003 0 .006-.003.006-.003.36-.185.702-.122.933.153.003.003.484.578.69.86.196.266.46.688.592.925.237.425.09.859-.144 1.039l-.468.37c-.237.192-.207.546-.207.546s.696 2.625 3.295 3.287z"/>
    </g>
</svg>
