<svg xmlns="http://www.w3.org/2000/svg" width="64" height="64" viewBox="0 0 64 64">
    <g fill="none" fill-rule="nonzero">
        <circle cx="32" cy="32" r="32" fill="#E9724C"/>
        <g fill="#FFF">
            <path d="M44.054 37.877h-4.448a5.09 5.09 0 0 1-5.084-5.084 5.09 5.09 0 0 1 5.084-5.083h4.448a.635.635 0 0 0 .636-.636v-1.906a2.536 2.536 0 0 0-2.34-2.522l-3.65-6.374a2.511 2.511 0 0 0-3.45-.93l-12.51 7.284h-2.198A2.544 2.544 0 0 0 18 25.168v15.25a2.544 2.544 0 0 0 2.542 2.543h21.606a2.544 2.544 0 0 0 2.542-2.542v-1.907a.635.635 0 0 0-.636-.635zm-4.565-17.67l1.384 2.419h-5.538l4.154-2.419zm-14.224 2.419L35.89 16.44a1.246 1.246 0 0 1 1.707.463l.001.002-9.824 5.72h-2.509z"/>
            <path d="M44.054 28.98h-4.448a3.817 3.817 0 0 0-3.813 3.813 3.817 3.817 0 0 0 3.813 3.813h4.448a1.908 1.908 0 0 0 1.907-1.906v-3.813a1.908 1.908 0 0 0-1.907-1.906zm-4.448 5.084c-.7 0-1.271-.57-1.271-1.27 0-.701.57-1.272 1.27-1.272.701 0 1.272.57 1.272 1.271 0 .7-.57 1.271-1.271 1.271z"/>
        </g>
    </g>
</svg>
